SplineFontDB: 3.2
FontName: AMoshrefThulthRegular
FullName: AMoshref-Thulth
FamilyName: AMoshref-Thulth
Weight: Book
Copyright: AMoshref-Thulth was drawn, designed and programed by Ali Moshref, it is an Open Font that distributed under OFL licesnce, appreciated if i got any comments or suggestions at my email addres: ali.moshref@yahoo.com.
Version: 0.1
ItalicAngle: 0
UnderlinePosition: -394
UnderlineWidth: 298
Ascent: 3276
Descent: 820
InvalidEm: 0
sfntRevision: 0x00010000
LayerCount: 2
Layer: 0 1 "Back" 1
Layer: 1 1 "Fore" 0
XUID: [1021 367 1104765500 970]
StyleMap: 0x0040
FSType: 0
OS2Version: 4
OS2_WeightWidthSlopeOnly: 0
OS2_UseTypoMetrics: 0
CreationTime: 1524281868
ModificationTime: 1765466038
PfmFamily: 17
TTFWeight: 400
TTFWidth: 5
LineGap: 0
VLineGap: 0
Panose: 2 0 5 3 0 0 0 0 0 0
OS2TypoAscent: 3892
OS2TypoAOffset: 0
OS2TypoDescent: -992
OS2TypoDOffset: 0
OS2TypoLinegap: 0
OS2WinAscent: 4710
OS2WinAOffset: 0
OS2WinDescent: 1840
OS2WinDOffset: 0
HheadAscent: 3892
HheadAOffset: 0
HheadDescent: -992
HheadDOffset: 0
OS2SubXSize: 2662
OS2SubYSize: 2864
OS2SubXOff: 0
OS2SubYOff: 574
OS2SupXSize: 2662
OS2SupYSize: 2864
OS2SupXOff: 0
OS2SupYOff: 1962
OS2StrikeYSize: 200
OS2StrikeYPos: 1056
OS2CapHeight: 1400
OS2XHeight: 958
OS2Vendor: 'XXXX'
OS2CodePages: 00000001.00000000
OS2UnicodeRanges: 00002003.90000000.00000008.00000000
Lookup: 1 9 0 "'fina' Terminal Forms in Arabic lookup 0" { "'fina' Terminal Forms in Arabic lookup 0 subtable"  } ['fina' ('DFLT' <'dflt' > 'arab' <'dflt' > ) ]
Lookup: 1 9 0 "'medi' Medial Forms in Arabic lookup 1" { "'medi' Medial Forms in Arabic lookup 1 subtable"  } ['medi' ('DFLT' <'dflt' > 'arab' <'dflt' > ) ]
Lookup: 1 9 0 "'init' Initial Forms in Arabic lookup 2" { "'init' Initial Forms in Arabic lookup 2 subtable"  } ['init' ('DFLT' <'dflt' > 'arab' <'dflt' > ) ]
Lookup: 6 9 0 "'calt' Contextual Alternates lookup 3" { "'calt' Contextual Alternates lookup 3 subtable"  } ['calt' ('DFLT' <'dflt' > 'arab' <'dflt' > 'latn' <'dflt' > ) ]

StartChar: zeroarabic
Encoding: 1632 1632 6
Width: 810
GlyphClass: 2
Flags: W
LayerCount: 2
Fore
SplineSet
324 958 m 1,0,-1
 548 768 l 1,1,-1
 412 464 l 1,2,-1
 182 658 l 1,3,-1
 324 958 l 1,0,-1
EndSplineSet
Substitution2: "Single Substitution lookup 38 subtable" No_0
EndChar

StartChar: onearabic
Encoding: 1633 1633 7
Width: 674
GlyphClass: 2
Flags: W
LayerCount: 2
Fore
SplineSet
154 1946 m 1,0,1
 274 1832 274 1832 396 1468 c 0,2,3
 516 1108 516 1108 516 736 c 0,4,5
 516 350 516 350 456 348 c 1,6,7
 462 388 462 388 460 458 c 0,8,9
 460 950 460 950 222 1380 c 0,10,11
 162 1480 162 1480 98 1560 c 1,12,-1
 154 1946 l 1,0,1
EndSplineSet
Substitution2: "Single Substitution lookup 38 subtable" No_1
EndChar

StartChar: twoarabic
Encoding: 1634 1634 8
Width: 830
GlyphClass: 2
Flags: W
LayerCount: 2
Fore
SplineSet
638 1936 m 1,0,-1
 644 1936 l 1,1,2
 656 1926 656 1926 656 1862 c 128,-1,3
 656 1798 656 1798 592 1596 c 0,4,5
 528 1396 528 1396 376 1354 c 1,6,7
 460 1048 460 1048 470 734 c 1,8,9
 468 356 468 356 414 348 c 1,10,11
 420 388 420 388 420 458 c 0,12,13
 420 934 420 934 184 1366 c 0,14,15
 118 1480 118 1480 50 1566 c 1,16,-1
 112 1946 l 1,17,18
 142 1916 142 1916 188 1840 c 2,19,-1
 246 1750 l 1,20,21
 326 1666 326 1666 407 1666 c 128,-1,22
 488 1666 488 1666 545 1736 c 128,-1,23
 602 1806 602 1806 620 1870 c 2,24,-1
 638 1936 l 1,0,-1
EndSplineSet
Substitution2: "Single Substitution lookup 38 subtable" No_2
EndChar

StartChar: threearabic
Encoding: 1635 1635 9
Width: 938
GlyphClass: 2
Flags: W
LayerCount: 2
Fore
SplineSet
548 1708 m 1,0,1
 598 1668 598 1668 663 1667 c 128,-1,2
 728 1666 728 1666 776 1735 c 128,-1,3
 824 1804 824 1804 838 1868 c 2,4,-1
 848 1934 l 1,5,-1
 854 1934 l 1,6,7
 864 1924 864 1924 863 1851 c 128,-1,8
 862 1778 862 1778 782 1606 c 1,9,-1
 698 1454 l 1,10,11
 614 1344 614 1344 544 1338 c 1,12,13
 452 1344 452 1344 424 1420 c 1,14,15
 374 1372 374 1372 332 1358 c 1,16,17
 414 1086 414 1086 414 812 c 2,18,-1
 414 738 l 1,19,20
 394 394 394 394 377 374 c 128,-1,21
 360 354 360 354 354 352 c 1,22,23
 360 392 360 392 358 462 c 0,24,25
 358 954 358 954 118 1384 c 0,26,27
 58 1484 58 1484 -4 1564 c 1,28,-1
 50 1950 l 1,29,30
 82 1920 82 1920 112 1878 c 0,31,32
 138 1830 138 1830 138 1818 c 0,33,34
 250 1678 250 1678 337 1677 c 128,-1,35
 424 1676 424 1676 478 1743 c 128,-1,36
 532 1810 532 1810 548 1874 c 2,37,-1
 562 1940 l 1,38,-1
 568 1940 l 1,39,40
 580 1930 580 1930 580 1884 c 128,-1,41
 580 1838 580 1838 548 1708 c 1,0,1
EndSplineSet
Substitution2: "Single Substitution lookup 38 subtable" No_3
EndChar

StartChar: fourarabic
Encoding: 1636 1636 10
Width: 828
GlyphClass: 2
Flags: W
LayerCount: 2
Fore
SplineSet
778 720 m 1,0,1
 796 712 796 712 800 696 c 0,2,3
 800 608 800 608 656 486 c 0,4,5
 514 364 514 364 394 366 c 2,6,7
 394 366 394 366 392 366 c 0,8,9
 272 368 272 368 188 436 c 0,10,11
 148 476 148 476 147 535 c 128,-1,12
 146 594 146 594 196 734 c 0,13,14
 244 864 244 864 244 914 c 0,15,16
 244 936 244 936 236 944 c 0,17,18
 210 970 210 970 144 1008 c 0,19,20
 10 1092 10 1092 6 1166 c 2,21,-1
 6 1186 l 1,22,-1
 50 1416 l 1,23,24
 108 1616 108 1616 217 1749 c 128,-1,25
 326 1882 326 1882 388 1934 c 2,26,-1
 452 1984 l 1,27,-1
 360 1646 l 1,28,29
 240 1582 240 1582 120 1422 c 1,30,31
 138 1400 138 1400 254 1306 c 0,32,33
 378 1206 378 1206 378 1098 c 0,34,35
 378 1072 378 1072 370 1044 c 0,36,37
 362 1004 362 1004 322 900 c 0,38,39
 284 804 284 804 284 758 c 0,40,41
 284 736 284 736 294 728 c 0,42,43
 378 664 378 664 528 660 c 0,44,45
 530 660 530 660 534 660 c 0,46,47
 686 662 686 662 778 720 c 1,0,1
EndSplineSet
Substitution2: "Single Substitution lookup 38 subtable" No_4
EndChar

StartChar: fivearabic
Encoding: 1637 1637 11
Width: 792
GlyphClass: 2
Flags: W
LayerCount: 2
Fore
SplineSet
686 938 m 1,0,-1
 628 572 l 2,1,2
 626 564 626 564 626 558 c 0,3,4
 544 344 544 344 386 304 c 0,5,6
 338 294 338 294 294 292 c 2,7,-1
 286 292 l 1,8,9
 54 318 54 318 38 616 c 1,10,-1
 38 640 l 2,11,12
 38 648 38 648 52 820 c 1,13,-1
 52 832 l 1,14,15
 152 1450 152 1450 386 1596 c 0,16,17
 416 1614 416 1614 446 1616 c 0,18,19
 574 1616 574 1616 648 1330 c 0,20,21
 682 1180 682 1180 686 1012 c 2,22,-1
 686 938 l 1,0,-1
344 676 m 1,23,24
 488 682 488 682 606 814 c 1,25,26
 540 1160 540 1160 404 1216 c 0,27,28
 354 1234 354 1234 320 1214 c 0,29,30
 218 1164 218 1164 114 886 c 1,31,32
 188 682 188 682 344 676 c 1,23,24
EndSplineSet
Substitution2: "Single Substitution lookup 38 subtable" No_5
EndChar

StartChar: sixarabic
Encoding: 1638 1638 12
Width: 896
GlyphClass: 2
Flags: W
LayerCount: 2
Fore
SplineSet
762 344 m 1,0,1
 528 610 528 610 528 1290 c 0,2,3
 528 1366 528 1366 536 1522 c 1,4,5
 454 1472 454 1472 294 1472 c 2,6,7
 294 1472 294 1472 288 1472 c 0,8,9
 122 1474 122 1474 2 1566 c 1,10,-1
 62 1942 l 1,11,12
 178 1868 178 1868 382 1868 c 128,-1,13
 586 1868 586 1868 634 1942 c 1,14,15
 600 1530 600 1530 600 1488 c 0,16,17
 602 1010 602 1010 818 726 c 1,18,-1
 762 344 l 1,0,1
EndSplineSet
Substitution2: "Single Substitution lookup 38 subtable" No_6
EndChar

StartChar: sevenarabic
Encoding: 1639 1639 13
Width: 948
GlyphClass: 2
Flags: W
LayerCount: 2
Fore
SplineSet
440 848 m 1,0,1
 516 1426 516 1426 750 1794 c 0,2,3
 812 1886 812 1886 866 1934 c 1,4,-1
 810 1550 l 1,5,6
 580 1266 580 1266 404 368 c 1,7,-1
 402 352 l 1,8,9
 378 740 378 740 246 1074 c 128,-1,10
 114 1408 114 1408 -10 1564 c 1,11,-1
 46 1950 l 1,12,13
 162 1844 162 1844 293 1499 c 128,-1,14
 424 1154 424 1154 440 848 c 1,0,1
EndSplineSet
Substitution2: "Single Substitution lookup 38 subtable" No_7
EndChar

StartChar: eightarabic
Encoding: 1640 1640 14
Width: 946
GlyphClass: 2
Flags: W
LayerCount: 2
Fore
SplineSet
854 726 m 1,0,-1
 790 344 l 1,1,2
 680 440 680 440 550 787 c 128,-1,3
 420 1134 420 1134 404 1444 c 1,4,5
 328 874 328 874 92 502 c 0,6,7
 30 408 30 408 -26 358 c 1,8,-1
 34 744 l 1,9,10
 216 968 216 968 382 1670 c 0,11,12
 412 1802 412 1802 434 1926 c 1,13,-1
 434 1918 l 1,14,15
 440 1936 440 1936 438 1946 c 1,16,17
 462 1574 462 1574 596 1232 c 128,-1,18
 730 890 730 890 854 726 c 1,0,-1
EndSplineSet
Substitution2: "Single Substitution lookup 38 subtable" No_8
EndChar

StartChar: ninearabic
Encoding: 1641 1641 15
Width: 738
GlyphClass: 2
Flags: W
LayerCount: 2
Fore
SplineSet
10 1366 m 2,0,-1
 16 1416 l 2,1,2
 40 1604 40 1604 108 1756 c 1,3,4
 200 1924 200 1924 308 1938 c 1,5,-1
 324 1938 l 1,6,7
 454 1920 454 1920 510 1460 c 128,-1,8
 566 1000 566 1000 599 892 c 128,-1,9
 632 784 632 784 686 728 c 1,10,-1
 686 722 l 2,11,12
 686 622 686 622 636 344 c 1,13,14
 504 536 504 536 442 1052 c 0,15,16
 430 1162 430 1162 424 1204 c 1,17,18
 356 1120 356 1120 240 1118 c 0,19,20
 60 1118 60 1118 18 1288 c 0,21,22
 10 1328 10 1328 10 1366 c 2,0,-1
358 1464 m 1,23,24
 302 1578 302 1578 246 1582 c 2,25,26
 246 1582 246 1582 242 1582 c 0,27,28
 184 1580 184 1580 130 1534 c 1,29,30
 192 1466 192 1466 266 1462 c 128,-1,31
 340 1458 340 1458 358 1464 c 1,23,24
EndSplineSet
Substitution2: "Single Substitution lookup 38 subtable" No_9
EndChar

StartChar: HMZ_G
Encoding: 1569 1569 17
Width: 1180
GlyphClass: 2
Flags: W
AnchorPoint: "Anchor-2" 358 -230 basechar 0
AnchorPoint: "Anchor-1" 520 1418 basechar 0
LayerCount: 2
Fore
SplineSet
406 670 m 0,0,1
 564 896 564 896 720 914 c 1,2,3
 824 908 824 908 826 778 c 0,4,5
 826 678 826 678 776 562 c 1,6,-1
 750 624 l 1,7,8
 706 680 706 680 662 682 c 128,-1,9
 618 684 618 684 556 669 c 128,-1,10
 494 654 494 654 414 568 c 1,11,12
 446 418 446 418 666 382 c 0,13,14
 712 376 712 376 768 376 c 0,15,16
 840 376 840 376 1110 484 c 1,17,-1
 1036 262 l 1,18,19
 684 146 684 146 216 -104 c 0,20,21
 192 -118 192 -118 174 -124 c 1,22,-1
 256 116 l 1,23,24
 368 170 368 170 458 210 c 1,25,26
 292 268 292 268 288 380 c 2,27,-1
 288 390 l 1,28,29
 298 486 298 486 386 638 c 0,30,31
 398 656 398 656 406 670 c 0,0,1
EndSplineSet
Substitution2: "'fina' Terminal Forms in Arabic lookup 0 subtable" YHZ_B00
EndChar

StartChar: AMD_G
Encoding: 1570 1570 18
Width: 640
GlyphClass: 2
Flags: W
AnchorPoint: "Anchor-2" 600 -500 basechar 0
AnchorPoint: "Anchor-1" 120 3828 basechar 0
LayerCount: 2
Fore
SplineSet
402 3672 m 0,0,1
 522 3712 522 3712 584 3712 c 0,2,3
 650 3712 650 3712 652 3668 c 0,4,5
 646 3630 646 3630 590 3546 c 128,-1,6
 534 3462 534 3462 520 3414 c 0,7,8
 494 3322 494 3322 516 3434 c 0,9,10
 528 3478 528 3478 570 3541 c 128,-1,11
 612 3604 612 3604 614 3612 c 0,12,13
 580 3634 580 3634 556 3636 c 128,-1,14
 532 3638 532 3638 498 3626 c 0,15,16
 202 3518 202 3518 10 3516 c 2,17,-1
 -32 3516 l 1,18,19
 -132 3526 -132 3526 -226 3556 c 1,20,21
 -196 3468 -196 3468 -195 3422 c 128,-1,22
 -194 3376 -194 3376 -198 3364 c 1,23,24
 -230 3546 -230 3546 -356 3630 c 1,25,-1
 -356 3640 l 2,26,27
 -356 3684 -356 3684 -344 3718 c 1,28,-1
 -344 3714 l 1,29,30
 -250 3650 -250 3650 -208 3632 c 0,31,32
 -112 3590 -112 3590 23 3590 c 128,-1,33
 158 3590 158 3590 402 3672 c 0,0,1
284 140 m 2,34,-1
 294 410 l 1,35,36
 294 1042 294 1042 66 3122 c 1,37,-1
 36 3188 l 1,38,-1
 152 3426 l 1,39,40
 176 3372 176 3372 230 3242 c 0,41,42
 408 2802 408 2802 412 2746 c 0,43,44
 406 2736 406 2736 404 2734 c 0,45,46
 362 2740 362 2740 266 2866 c 1,47,-1
 246 2870 l 1,48,-1
 238 2858 l 1,49,50
 434 1254 434 1254 434 738 c 0,51,52
 432 490 432 490 340 174 c 0,53,54
 322 114 322 114 314 100 c 1,55,-1
 306 100 l 1,56,57
 286 110 286 110 284 140 c 2,34,-1
EndSplineSet
Substitution2: "'fina' Terminal Forms in Arabic lookup 0 subtable" AMD_B00
EndChar

StartChar: AHZ_G
Encoding: 1571 1571 19
Width: 670
GlyphClass: 2
Flags: W
AnchorPoint: "Anchor-2" 372 -448 basechar 0
AnchorPoint: "Anchor-1" 184 4148 basechar 0
LayerCount: 2
Fore
SplineSet
332 3750 m 1,0,-1
 302 3666 l 1,1,-1
 -110 3486 l 1,2,-1
 -76 3580 l 1,3,4
 -44 3596 -44 3596 30 3626 c 1,5,6
 -44 3652 -44 3652 -50 3706 c 1,7,8
 -46 3760 -46 3760 16 3837 c 128,-1,9
 78 3914 78 3914 138 3926 c 1,10,-1
 148 3926 l 1,11,12
 194 3918 194 3918 194 3876 c 1,13,-1
 168 3766 l 1,14,-1
 150 3806 l 1,15,16
 128 3824 128 3824 104 3822 c 0,17,18
 64 3822 64 3822 14 3774 c 1,19,20
 36 3698 36 3698 144 3696 c 0,21,22
 198 3698 198 3698 253 3720 c 128,-1,23
 308 3742 308 3742 332 3750 c 1,0,-1
288 152 m 2,24,-1
 298 398 l 1,25,26
 298 1000 298 1000 66 3132 c 1,27,-1
 38 3194 l 1,28,-1
 156 3432 l 1,29,30
 180 3378 180 3378 234 3248 c 0,31,32
 408 2816 408 2816 412 2756 c 0,33,34
 408 2742 408 2742 404 2740 c 0,35,36
 370 2746 370 2746 266 2870 c 1,37,-1
 246 2874 l 1,38,-1
 238 2864 l 1,39,40
 434 1260 434 1260 434 742 c 0,41,42
 432 494 432 494 340 178 c 0,43,44
 318 106 318 106 318 104 c 1,45,-1
 310 104 l 1,46,47
 288 114 288 114 288 152 c 2,24,-1
EndSplineSet
Substitution2: "'fina' Terminal Forms in Arabic lookup 0 subtable" AHZ_B00
EndChar

StartChar: WHZ_G
Encoding: 1572 1572 20
Width: 1196
GlyphClass: 2
Flags: W
AnchorPoint: "Anchor-2" 456 -492 basechar 0
AnchorPoint: "Anchor-1" 572 2340 basechar 0
LayerCount: 2
Fore
SplineSet
640 842 m 2,0,-1
 778 846 l 1,1,-1
 804 846 l 1,2,3
 676 956 676 956 608 956 c 2,4,5
 608 956 608 956 606 956 c 0,6,7
 538 956 538 956 494 894 c 1,8,9
 532 842 532 842 640 842 c 2,0,-1
850 1714 m 1,10,-1
 820 1628 l 1,11,-1
 408 1450 l 1,12,-1
 442 1542 l 1,13,14
 474 1558 474 1558 550 1588 c 1,15,16
 476 1614 476 1614 470 1670 c 1,17,18
 474 1724 474 1724 535 1801 c 128,-1,19
 596 1878 596 1878 654 1888 c 1,20,-1
 666 1888 l 1,21,22
 712 1880 712 1880 714 1838 c 1,23,-1
 686 1730 l 1,24,-1
 668 1768 l 1,25,26
 648 1784 648 1784 624 1786 c 0,27,28
 586 1788 586 1788 534 1736 c 1,29,30
 556 1660 556 1660 636 1660 c 0,31,32
 718 1660 718 1660 772 1683 c 128,-1,33
 826 1706 826 1706 850 1714 c 1,10,-1
610 616 m 1,34,35
 374 620 374 620 376 854 c 0,36,37
 384 958 384 958 434 1056 c 0,38,39
 530 1216 530 1216 658 1220 c 0,40,41
 746 1216 746 1216 832 1134 c 0,42,43
 1028 942 1028 942 1052 640 c 1,44,-1
 1052 518 l 1,45,46
 1042 376 1042 376 1012 328 c 0,47,48
 836 42 836 42 -26 -438 c 0,49,50
 -256 -566 -256 -566 -268 -567 c 128,-1,51
 -280 -568 -280 -568 -642 -656 c 0,52,53
 -998 -742 -998 -742 -1074 -742 c 2,54,55
 -1074 -742 -1074 -742 -1076 -742 c 0,56,57
 -1148 -740 -1148 -740 -1150 -734 c 0,58,59
 280 -116 280 -116 862 388 c 0,60,61
 942 458 942 458 988 516 c 1,62,63
 984 528 984 528 974 550 c 1,64,65
 892 624 892 624 772 624 c 2,66,-1
 610 616 l 1,34,35
EndSplineSet
Substitution2: "Single Substitution lookup 43 subtable" WHZ_002
Substitution2: "Single Substitution lookup 42 subtable" WHZ_001
Substitution2: "'fina' Terminal Forms in Arabic lookup 0 subtable" WHZ_B00
EndChar

StartChar: AZB_G
Encoding: 1573 1573 21
Width: 628
GlyphClass: 2
Flags: W
AnchorPoint: "Anchor-2" 210 -1212 basechar 0
AnchorPoint: "Anchor-1" 110 3810 basechar 0
LayerCount: 2
Fore
SplineSet
748 -190 m 1,0,-1
 716 -276 l 1,1,-1
 304 -456 l 1,2,-1
 338 -362 l 1,3,4
 370 -346 370 -346 444 -316 c 1,5,6
 370 -290 370 -290 366 -234 c 0,7,8
 370 -180 370 -180 431 -104 c 128,-1,9
 492 -28 492 -28 552 -16 c 1,10,-1
 562 -16 l 1,11,12
 608 -24 608 -24 608 -66 c 1,13,-1
 582 -176 l 1,14,-1
 564 -138 l 1,15,16
 542 -120 542 -120 518 -118 c 0,17,18
 478 -118 478 -118 428 -168 c 1,19,20
 452 -244 452 -244 560 -246 c 0,21,22
 614 -244 614 -244 669 -221 c 128,-1,23
 724 -198 724 -198 748 -190 c 1,0,-1
282 118 m 2,24,-1
 290 390 l 1,25,26
 290 1022 290 1022 64 3100 c 1,27,-1
 34 3166 l 1,28,-1
 150 3404 l 1,29,30
 174 3350 174 3350 228 3220 c 0,31,32
 406 2780 406 2780 410 2724 c 2,33,-1
 410 2720 l 1,34,-1
 402 2712 l 1,35,36
 366 2718 366 2718 268 2844 c 1,37,-1
 244 2848 l 1,38,-1
 236 2836 l 1,39,40
 432 1232 432 1232 432 716 c 0,41,42
 430 468 430 468 338 152 c 0,43,44
 320 92 320 92 312 78 c 1,45,-1
 304 78 l 1,46,47
 284 88 284 88 282 118 c 2,24,-1
EndSplineSet
Substitution2: "'fina' Terminal Forms in Arabic lookup 0 subtable" AZB_B00
EndChar

StartChar: YHZ_G
Encoding: 1574 1574 22
Width: 2570
GlyphClass: 2
Flags: W
AnchorPoint: "Anchor-2" 648 -754 basechar 0
AnchorPoint: "Anchor-1" 850 2360 basechar 0
LayerCount: 2
Fore
SplineSet
2238 464 m 1,0,1
 2114 340 2114 340 1836 170 c 0,2,3
 1310 -154 1310 -154 912 -154 c 2,4,-1
 888 -154 l 1,5,6
 296 -142 296 -142 184 340 c 0,7,8
 150 486 150 486 150 566 c 0,9,10
 152 868 152 868 280 1148 c 0,11,12
 304 1200 304 1200 324 1200 c 0,13,14
 346 1202 346 1202 326 1156 c 0,15,16
 288 1072 288 1072 258 938 c 128,-1,17
 228 804 228 804 228 714 c 0,18,19
 228 366 228 366 500 194 c 0,20,21
 662 92 662 92 912 92 c 0,22,23
 1022 92 1022 92 1170 124 c 0,24,25
 1726 248 1726 248 2126 580 c 0,26,27
 2200 642 2200 642 2230 680 c 1,28,29
 2186 742 2186 742 1844 782 c 0,30,31
 1592 808 1592 808 1512 916 c 0,32,33
 1474 966 1474 966 1475 1055 c 128,-1,34
 1476 1144 1476 1144 1520 1250 c 0,35,36
 1662 1590 1662 1590 1992 1794 c 0,37,38
 2092 1856 2092 1856 2218 1874 c 1,39,-1
 2222 1874 l 2,40,41
 2336 1874 2336 1874 2346 1688 c 1,42,43
 2342 1544 2342 1544 2316 1532 c 0,44,45
 2312 1530 2312 1530 2268 1572 c 0,46,47
 2226 1614 2226 1614 2146 1618 c 2,48,-1
 2138 1618 l 2,49,50
 2014 1618 2014 1618 1824 1464 c 128,-1,51
 1634 1310 1634 1310 1552 1174 c 1,52,53
 1590 1042 1590 1042 1852 1006 c 0,54,55
 2110 970 2110 970 2118 968 c 0,56,57
 2312 920 2312 920 2326 772 c 0,58,59
 2334 622 2334 622 2238 464 c 1,0,1
948 1796 m 1,60,-1
 918 1712 l 1,61,-1
 504 1530 l 1,62,-1
 538 1624 l 1,63,64
 570 1640 570 1640 644 1672 c 1,65,66
 566 1700 566 1700 566 1754 c 0,67,68
 566 1804 566 1804 632 1884 c 0,69,70
 692 1960 692 1960 752 1972 c 1,71,-1
 764 1972 l 1,72,73
 810 1964 810 1964 810 1920 c 1,74,-1
 782 1812 l 1,75,-1
 766 1850 l 1,76,77
 744 1868 744 1868 720 1868 c 0,78,79
 680 1868 680 1868 630 1820 c 1,80,81
 654 1738 654 1738 760 1742 c 0,82,83
 814 1744 814 1744 869 1766 c 128,-1,84
 924 1788 924 1788 948 1796 c 1,60,-1
EndSplineSet
Substitution2: "'init' Initial Forms in Arabic lookup 2 subtable" YHZ_00B
Substitution2: "'medi' Medial Forms in Arabic lookup 1 subtable" YHZ_B0B
Substitution2: "'fina' Terminal Forms in Arabic lookup 0 subtable" YHZ_B00
EndChar

StartChar: ALF_G
Encoding: 1575 1575 23
Width: 632
GlyphClass: 2
Flags: W
AnchorPoint: "Anchor-2" 332 -274 basechar 0
AnchorPoint: "Anchor-1" 122 3644 basechar 0
LayerCount: 2
Fore
SplineSet
292 136 m 2,0,-1
 302 384 l 1,1,2
 300 1042 300 1042 72 3118 c 1,3,-1
 44 3180 l 1,4,-1
 160 3414 l 1,5,6
 184 3360 184 3360 238 3230 c 0,7,8
 412 2798 412 2798 414 2738 c 0,9,10
 408 2728 408 2728 408 2726 c 1,11,12
 372 2732 372 2732 272 2858 c 1,13,-1
 254 2862 l 1,14,-1
 246 2850 l 1,15,16
 442 1246 442 1246 442 726 c 0,17,18
 440 478 440 478 348 166 c 0,19,20
 326 100 326 100 320 88 c 1,21,-1
 312 88 l 1,22,23
 292 98 292 98 292 136 c 2,0,-1
EndSplineSet
Substitution2: "'ss01' Style Set 1 lookup 10 subtable" ALF_001
Substitution2: "'fina' Terminal Forms in Arabic lookup 0 subtable" ALF_B00
EndChar

StartChar: BAA_G
Encoding: 1576 1576 24
Width: 2778
GlyphClass: 2
Flags: W
AnchorPoint: "Anchor-2" 702 -456 basechar 0
AnchorPoint: "Anchor-1" 1418 1732 basechar 0
LayerCount: 2
Fore
SplineSet
2428 1344 m 1,0,1
 2652 1104 2652 1104 2658 852 c 0,2,3
 2658 832 2658 832 2658 814 c 0,4,5
 2658 596 2658 596 2614 554 c 0,6,7
 2220 252 2220 252 1604 74 c 0,8,9
 1206 -38 1206 -38 896 -38 c 0,10,11
 724 -38 724 -38 578 -4 c 0,12,13
 338 60 338 60 214 222 c 1,14,15
 122 390 122 390 122 567 c 128,-1,16
 122 744 122 744 252 1048 c 0,17,18
 264 1078 264 1078 269 1065 c 128,-1,19
 274 1052 274 1052 274 1044 c 0,20,21
 210 878 210 878 212 736 c 0,22,23
 212 352 212 352 650 246 c 0,24,25
 760 220 760 220 976 218 c 0,26,27
 1580 218 1580 218 2190 502 c 0,28,29
 2454 626 2454 626 2586 744 c 1,30,31
 2514 960 2514 960 2394 1090 c 1,32,-1
 2428 1344 l 1,0,1
1310 -450 m 1,33,-1
 1452 -242 l 1,34,-1
 1696 -420 l 1,35,-1
 1554 -628 l 1,36,-1
 1310 -450 l 1,33,-1
EndSplineSet
Substitution2: "'init' Initial Forms in Arabic lookup 2 subtable" BAA_00B
Substitution2: "'medi' Medial Forms in Arabic lookup 1 subtable" BAA_B0B
Substitution2: "'fina' Terminal Forms in Arabic lookup 0 subtable" BAA_B00
EndChar

StartChar: TAM_G
Encoding: 1577 1577 25
Width: 1072
GlyphClass: 2
Flags: W
AnchorPoint: "Anchor-2" -32 -118 basechar 0
AnchorPoint: "Anchor-1" 414 2682 basechar 0
LayerCount: 2
Fore
SplineSet
838 1686 m 1,0,1
 838 1686 838 1686 840 1600 c 0,2,3
 840 1530 840 1530 812 1460 c 0,4,5
 704 1248 704 1248 516 1002 c 1,6,7
 524 998 524 998 536 986 c 0,8,9
 704 836 704 836 704 616 c 0,10,11
 702 482 702 482 646 368 c 1,12,13
 578 254 578 254 360 164 c 0,14,15
 280 134 280 134 238 134 c 0,16,17
 118 150 118 150 114 324 c 0,18,19
 114 570 114 570 256 822 c 0,20,21
 266 840 266 840 293 877 c 128,-1,22
 320 914 320 914 328 924 c 1,23,24
 194 1078 194 1078 88 1230 c 1,25,-1
 16 1270 l 1,26,-1
 48 1534 l 1,27,28
 60 1524 60 1524 402 1274 c 1,29,30
 438 1236 438 1236 392 1234 c 0,31,32
 386 1234 386 1234 333 1245 c 128,-1,33
 280 1256 280 1256 272 1252 c 1,34,35
 320 1196 320 1196 434 1084 c 1,36,37
 774 1538 774 1538 830 1686 c 1,38,-1
 836 1692 l 1,39,-1
 838 1686 l 1,0,1
178 454 m 0,40,41
 182 392 182 392 265 393 c 128,-1,42
 348 394 348 394 461 456 c 128,-1,43
 574 518 574 518 630 574 c 1,44,45
 598 640 598 640 538 700 c 0,46,47
 424 816 424 816 398 846 c 1,48,49
 220 610 220 610 199 547 c 128,-1,50
 178 484 178 484 178 454 c 0,40,41
382 2060 m 1,51,-1
 246 1862 l 1,52,-1
 2 2044 l 1,53,-1
 138 2250 l 1,54,-1
 378 2072 l 1,55,-1
 520 2270 l 1,56,-1
 764 2088 l 1,57,-1
 622 1880 l 1,58,-1
 382 2060 l 1,51,-1
EndSplineSet
Substitution2: "'fina' Terminal Forms in Arabic lookup 0 subtable" TAM_B00
EndChar

StartChar: TAA_G
Encoding: 1578 1578 26
Width: 2734
GlyphClass: 2
Flags: W
AnchorPoint: "Anchor-2" 772 -344 basechar 0
AnchorPoint: "Anchor-1" 1416 1966 basechar 0
LayerCount: 2
Fore
SplineSet
2608 406 m 1,0,1
 2592 470 2592 470 2484 470 c 128,-1,2
 2376 470 2376 470 2221 414 c 128,-1,3
 2066 358 2066 358 1946 315 c 128,-1,4
 1826 272 1826 272 1756 246 c 0,5,6
 1252 68 1252 68 836 68 c 0,7,8
 356 68 356 68 158 328 c 1,9,10
 66 496 66 496 66 672 c 128,-1,11
 66 848 66 848 194 1152 c 0,12,13
 206 1182 206 1182 212 1169 c 128,-1,14
 218 1156 218 1156 218 1150 c 0,15,16
 154 984 154 984 154 842 c 0,17,18
 154 458 154 458 594 352 c 0,19,20
 704 326 704 326 900 324 c 0,21,22
 1404 326 1404 326 2068 580 c 0,23,24
 2432 718 2432 718 2576 718 c 2,25,-1
 2584 718 l 1,26,27
 2730 698 2730 698 2734 584 c 0,28,29
 2734 506 2734 506 2652 358 c 0,30,31
 2632 322 2632 322 2530 186 c 128,-1,32
 2428 50 2428 50 2404 -15 c 128,-1,33
 2380 -80 2380 -80 2376 -88 c 128,-1,34
 2372 -96 2372 -96 2370 -101 c 128,-1,35
 2368 -106 2368 -106 2360 -110 c 0,36,37
 2356 -104 2356 -104 2358 -94 c 0,38,39
 2358 -62 2358 -62 2378 20 c 0,40,41
 2406 132 2406 132 2552 316 c 0,42,43
 2600 380 2600 380 2608 406 c 1,0,1
1494 1262 m 1,44,-1
 1354 1062 l 1,45,-1
 1110 1240 l 1,46,-1
 1250 1448 l 1,47,-1
 1494 1270 l 1,48,-1
 1636 1470 l 1,49,-1
 1880 1288 l 1,50,-1
 1734 1080 l 1,51,-1
 1494 1262 l 1,44,-1
EndSplineSet
Substitution2: "'init' Initial Forms in Arabic lookup 2 subtable" TAA_00B
Substitution2: "'medi' Medial Forms in Arabic lookup 1 subtable" TAA_B0B
Substitution2: "'fina' Terminal Forms in Arabic lookup 0 subtable" TAA_B00
EndChar

StartChar: THA_G
Encoding: 1579 1579 27
Width: 2804
GlyphClass: 2
Flags: W
AnchorPoint: "Anchor-2" 774 -464 basechar 0
AnchorPoint: "Anchor-1" 1322 2124 basechar 0
LayerCount: 2
Fore
SplineSet
2428 1300 m 1,0,1
 2652 1060 2652 1060 2658 808 c 0,2,3
 2658 788 2658 788 2658 772 c 0,4,5
 2658 554 2658 554 2614 510 c 1,6,7
 2220 208 2220 208 1604 30 c 0,8,9
 1206 -82 1206 -82 896 -82 c 0,10,11
 724 -82 724 -82 578 -48 c 0,12,13
 338 16 338 16 214 178 c 1,14,15
 122 346 122 346 122 523 c 128,-1,16
 122 700 122 700 252 1004 c 0,17,18
 264 1034 264 1034 269 1020 c 128,-1,19
 274 1006 274 1006 274 1000 c 0,20,21
 210 834 210 834 212 692 c 0,22,23
 212 308 212 308 650 202 c 0,24,25
 760 176 760 176 976 174 c 0,26,27
 1580 174 1580 174 2190 458 c 0,28,29
 2454 582 2454 582 2586 700 c 1,30,31
 2514 916 2514 916 2394 1046 c 1,32,-1
 2428 1300 l 1,0,1
1420 1068 m 1,33,-1
 1282 866 l 1,34,-1
 1034 1050 l 1,35,-1
 1176 1256 l 1,36,-1
 1416 1080 l 1,37,-1
 1552 1278 l 1,38,-1
 1796 1100 l 1,39,-1
 1658 890 l 1,40,-1
 1420 1068 l 1,33,-1
1552 1364 m 1,41,-1
 1406 1158 l 1,42,-1
 1164 1344 l 1,43,-1
 1306 1548 l 1,44,-1
 1552 1364 l 1,41,-1
EndSplineSet
Substitution2: "'init' Initial Forms in Arabic lookup 2 subtable" THA_00B
Substitution2: "'medi' Medial Forms in Arabic lookup 1 subtable" THA_B0B
Substitution2: "'fina' Terminal Forms in Arabic lookup 0 subtable" THA_B00
EndChar

StartChar: JIM_G
Encoding: 1580 1580 28
Width: 2100
GlyphClass: 2
Flags: W
AnchorPoint: "Anchor-2" 496 -1794 basechar 0
AnchorPoint: "Anchor-1" 996 2342 basechar 0
LayerCount: 2
Fore
SplineSet
1236 1044 m 1,0,-1
 624 1086 l 1,1,-1
 610 1058 l 2,2,3
 598 1032 598 1032 393 1030 c 128,-1,4
 188 1028 188 1028 100 1016 c 1,5,-1
 100 1020 l 1,6,-1
 190 1258 l 1,7,-1
 194 1262 l 1,8,9
 434 1344 434 1344 636 1344 c 0,10,11
 672 1344 672 1344 1040 1310 c 128,-1,12
 1408 1276 1408 1276 1663 1276 c 128,-1,13
 1918 1276 1918 1276 2034 1280 c 1,14,-1
 1900 1024 l 1,15,-1
 1896 1024 l 1,16,17
 1210 844 1210 844 906 678 c 0,18,19
 356 378 356 378 250 -136 c 0,20,21
 246 -184 246 -184 246 -256 c 0,22,23
 250 -670 250 -670 496 -914 c 1,24,25
 856 -1238 856 -1238 1838 -1236 c 0,26,27
 2162 -1236 2162 -1236 2762 -1188 c 1,28,29
 2622 -1242 2622 -1242 2416 -1325 c 128,-1,30
 2210 -1408 2210 -1408 2088 -1449 c 128,-1,31
 1966 -1490 1966 -1490 1672 -1490 c 0,32,33
 830 -1490 830 -1490 482 -1194 c 0,34,35
 244 -986 244 -986 190 -616 c 1,36,-1
 186 -630 l 1,37,-1
 186 -590 l 1,38,39
 178 -532 178 -532 178 -398 c 0,40,41
 178 42 178 42 402 382 c 0,42,43
 678 808 678 808 1236 1044 c 1,0,-1
1296 -330 m 1,44,-1
 1048 -146 l 1,45,-1
 1188 60 l 1,46,-1
 1436 -124 l 1,47,-1
 1296 -330 l 1,44,-1
EndSplineSet
Substitution2: "'init' Initial Forms in Arabic lookup 2 subtable" JIM_00B
Substitution2: "'medi' Medial Forms in Arabic lookup 1 subtable" JIM_B0B
Substitution2: "'fina' Terminal Forms in Arabic lookup 0 subtable" JIM_B00
EndChar

StartChar: HHA_G
Encoding: 1581 1581 29
Width: 2062
GlyphClass: 2
Flags: W
AnchorPoint: "Anchor-2" 512 -1856 basechar 0
AnchorPoint: "Anchor-1" 950 2214 basechar 0
LayerCount: 2
Fore
SplineSet
1016 186 m 1,0,-1
 1564 208 l 1,1,2
 1938 204 1938 204 2084 40 c 128,-1,3
 2230 -124 2230 -124 2232 -354 c 0,4,5
 2232 -434 2232 -434 2212 -548 c 0,6,7
 2188 -746 2188 -746 2102 -894 c 0,8,9
 1822 -1364 1822 -1364 1342 -1506 c 0,10,11
 1176 -1554 1176 -1554 1012 -1552 c 0,12,13
 388 -1552 388 -1552 224 -990 c 0,14,15
 214 -960 214 -960 208 -928 c 2,16,-1
 182 -806 l 2,17,18
 174 -744 174 -744 176 -630 c 0,19,20
 180 -190 180 -190 368 186 c 1,21,22
 292 256 292 256 216 350 c 1,23,24
 278 322 278 322 422 272 c 1,25,26
 530 450 530 450 636 560 c 1,27,28
 580 596 580 596 387 687 c 128,-1,29
 194 778 194 778 144 840 c 0,30,31
 90 912 90 912 90 1024 c 0,32,33
 90 1062 90 1062 96 1106 c 2,34,-1
 112 1180 l 1,35,36
 166 1308 166 1308 312 1360 c 128,-1,37
 458 1412 458 1412 744 1412 c 0,38,39
 1262 1412 1262 1412 1792 1338 c 2,40,-1
 1968 1312 l 1,41,-1
 1894 1054 l 1,42,-1
 1886 1054 l 1,43,44
 1116 702 1116 702 836 526 c 1,45,46
 862 434 862 434 863 394 c 128,-1,47
 864 354 864 354 862 336 c 128,-1,48
 860 318 860 318 860 308 c 1,49,50
 822 392 822 392 746 468 c 1,51,52
 626 372 626 372 516 242 c 1,53,54
 740 186 740 186 1016 186 c 1,0,-1
182 1054 m 1,55,56
 242 994 242 994 455 878 c 128,-1,57
 668 762 668 762 750 672 c 1,58,59
 1042 930 1042 930 1500 1126 c 1,60,61
 1174 1170 1174 1170 941 1168 c 128,-1,62
 708 1166 708 1166 640 1164 c 0,63,64
 322 1146 322 1146 182 1054 c 1,55,56
1458 -54 m 1,65,-1
 1072 -62 l 2,66,67
 712 -62 712 -62 470 112 c 0,68,69
 450 128 450 128 434 140 c 1,70,71
 298 -88 298 -88 250 -360 c 0,72,73
 250 -378 250 -378 242 -408 c 1,74,-1
 242 -438 l 2,75,76
 242 -982 242 -982 602 -1192 c 0,77,78
 786 -1296 786 -1296 1044 -1300 c 0,79,80
 1124 -1300 1124 -1300 1218 -1288 c 0,81,82
 1512 -1252 1512 -1252 1822 -998 c 0,83,84
 1918 -920 1918 -920 2018 -802 c 128,-1,85
 2118 -684 2118 -684 2178 -490 c 1,86,87
 2122 -58 2122 -58 1544 -54 c 2,88,-1
 1458 -54 l 1,65,-1
EndSplineSet
Substitution2: "'init' Initial Forms in Arabic lookup 2 subtable" HHA_00B
Substitution2: "'medi' Medial Forms in Arabic lookup 1 subtable" HHA_B0B
Substitution2: "'fina' Terminal Forms in Arabic lookup 0 subtable" HHA_B00
EndChar

StartChar: KHA_G
Encoding: 1582 1582 30
Width: 2074
GlyphClass: 2
Flags: W
AnchorPoint: "Anchor-2" 438 -1786 basechar 0
AnchorPoint: "Anchor-1" 804 2678 basechar 0
LayerCount: 2
Fore
SplineSet
1022 198 m 1,0,-1
 1568 218 l 1,1,2
 1942 214 1942 214 2096 42 c 1,3,4
 2234 -100 2234 -100 2232 -344 c 0,5,6
 2232 -424 2232 -424 2220 -518 c 0,7,8
 2192 -758 2192 -758 2110 -882 c 0,9,10
 1830 -1352 1830 -1352 1352 -1494 c 0,11,12
 1186 -1542 1186 -1542 1026 -1540 c 0,13,14
 440 -1540 440 -1540 254 -1052 c 0,15,16
 228 -978 228 -978 210 -890 c 0,17,18
 180 -736 180 -736 180 -550 c 0,19,20
 180 -544 180 -544 180 -536 c 0,21,22
 182 -342 182 -342 270 -58 c 0,23,24
 276 -38 276 -38 376 198 c 1,25,26
 300 270 300 270 220 366 c 1,27,28
 282 338 282 338 426 288 c 1,29,30
 522 446 522 446 644 572 c 1,31,32
 588 608 588 608 394 702 c 128,-1,33
 200 796 200 796 162 844 c 0,34,35
 98 926 98 926 98 1032 c 0,36,37
 98 1142 98 1142 130 1216 c 0,38,39
 188 1326 188 1326 327 1375 c 128,-1,40
 466 1424 466 1424 752 1424 c 0,41,42
 1266 1424 1266 1424 1796 1348 c 2,43,-1
 1972 1324 l 1,44,-1
 1902 1066 l 1,45,-1
 1898 1066 l 1,46,47
 1060 682 1060 682 844 536 c 1,48,49
 870 444 870 444 871 405 c 128,-1,50
 872 366 872 366 870 348 c 128,-1,51
 868 330 868 330 868 320 c 1,52,53
 830 404 830 404 754 480 c 1,54,55
 624 378 624 378 520 254 c 1,56,57
 742 198 742 198 1022 198 c 1,0,-1
190 1064 m 1,58,59
 252 1004 252 1004 464 891 c 128,-1,60
 676 778 676 778 756 688 c 1,61,62
 1038 938 1038 938 1508 1138 c 1,63,64
 1160 1186 1160 1186 976 1182 c 0,65,66
 310 1184 310 1184 190 1064 c 1,58,59
438 150 m 1,67,68
 250 -166 250 -166 250 -494 c 0,69,70
 250 -938 250 -938 570 -1150 c 0,71,72
 772 -1282 772 -1282 1060 -1284 c 0,73,74
 1168 -1284 1168 -1284 1222 -1276 c 0,75,76
 1510 -1242 1510 -1242 1824 -988 c 0,77,78
 1924 -906 1924 -906 2024 -791 c 128,-1,79
 2124 -676 2124 -676 2182 -490 c 1,80,81
 2132 -48 2132 -48 1548 -42 c 2,82,-1
 1462 -42 l 1,83,-1
 1072 -50 l 2,84,85
 718 -50 718 -50 486 114 c 0,86,87
 460 134 460 134 438 150 c 1,67,68
1044 2010 m 1,88,-1
 902 1802 l 1,89,-1
 656 1984 l 1,90,-1
 802 2188 l 1,91,-1
 1044 2010 l 1,88,-1
EndSplineSet
Substitution2: "'init' Initial Forms in Arabic lookup 2 subtable" KHA_00B
Substitution2: "'medi' Medial Forms in Arabic lookup 1 subtable" KHA_B0B
Substitution2: "'fina' Terminal Forms in Arabic lookup 0 subtable" KHA_B00
EndChar

StartChar: DAL_G
Encoding: 1583 1583 31
Width: 1380
GlyphClass: 2
Flags: W
AnchorPoint: "Anchor-2" 440 -694 basechar 0
AnchorPoint: "Anchor-1" 504 2094 basechar 0
LayerCount: 2
Fore
SplineSet
1168 424 m 1,0,-1
 1164 386 l 2,1,2
 1154 276 1154 276 1100 164 c 0,3,4
 1070 96 1070 96 614 -194 c 0,5,6
 582 -214 582 -214 548 -236 c 0,7,8
 160 -474 160 -474 46 -515 c 128,-1,9
 -68 -556 -68 -556 -138 -556 c 0,10,11
 -390 -548 -390 -548 -394 -226 c 0,12,13
 -394 -16 -394 -16 -274 324 c 1,14,15
 -240 384 -240 384 -242 348 c 0,16,17
 -242 324 -242 324 -280 174 c 0,18,19
 -322 12 -322 12 -322 -70 c 0,20,21
 -316 -248 -316 -248 -168 -304 c 0,22,23
 -126 -312 -126 -312 -110 -312 c 0,24,25
 18 -312 18 -312 342 -120 c 0,26,27
 438 -64 438 -64 464 -48 c 0,28,29
 940 218 940 218 1078 338 c 1,30,31
 1024 484 1024 484 738 685 c 128,-1,32
 452 886 452 886 346 978 c 128,-1,33
 240 1070 240 1070 158 1200 c 1,34,-1
 102 1226 l 1,35,-1
 94 1492 l 1,36,37
 150 1458 150 1458 283 1380 c 128,-1,38
 416 1302 416 1302 480 1266 c 1,39,40
 530 1228 530 1228 468 1222 c 0,41,42
 456 1222 456 1222 444 1222 c 2,43,-1
 366 1234 l 2,44,45
 354 1232 354 1232 346 1226 c 1,46,47
 504 1078 504 1078 926 792 c 0,48,49
 1000 740 1000 740 1028 720 c 0,50,51
 1166 604 1166 604 1168 424 c 1,0,-1
EndSplineSet
Substitution2: "'fina' Terminal Forms in Arabic lookup 0 subtable" DAL_B00
EndChar

StartChar: THL_G
Encoding: 1584 1584 32
Width: 1458
GlyphClass: 2
Flags: W
AnchorPoint: "Anchor-2" 450 -676 basechar 0
AnchorPoint: "Anchor-1" 394 2626 basechar 0
LayerCount: 2
Fore
SplineSet
1176 444 m 1,0,-1
 1172 404 l 2,1,2
 1162 294 1162 294 1110 182 c 0,3,4
 1084 120 1084 120 556 -212 c 1,5,-1
 552 -214 l 1,6,7
 148 -462 148 -462 42 -500 c 128,-1,8
 -64 -538 -64 -538 -134 -538 c 0,9,10
 -386 -530 -386 -530 -390 -206 c 0,11,12
 -390 4 -390 4 -270 342 c 1,13,14
 -232 408 -232 408 -234 364 c 0,15,16
 -234 336 -234 336 -270 184 c 0,17,18
 -312 16 -312 16 -314 -52 c 0,19,20
 -308 -228 -308 -228 -164 -280 c 0,21,22
 -122 -288 -122 -288 -106 -288 c 0,23,24
 28 -288 28 -288 374 -88 c 0,25,26
 466 -32 466 -32 472 -30 c 0,27,28
 934 230 934 230 1086 362 c 1,29,30
 1032 508 1032 508 746 704 c 128,-1,31
 460 900 460 900 353 993 c 128,-1,32
 246 1086 246 1086 162 1218 c 1,33,-1
 106 1244 l 1,34,-1
 106 1510 l 1,35,36
 162 1476 162 1476 295 1398 c 128,-1,37
 428 1320 428 1320 492 1284 c 0,38,39
 550 1246 550 1246 476 1244 c 0,40,41
 416 1244 416 1244 385 1247 c 128,-1,42
 354 1250 354 1250 350 1248 c 1,43,44
 506 1100 506 1100 934 816 c 0,45,46
 1008 764 1008 764 1036 744 c 0,47,48
 1174 628 1174 628 1176 444 c 1,0,-1
496 2040 m 1,49,-1
 350 1830 l 1,50,-1
 106 2016 l 1,51,-1
 252 2222 l 1,52,-1
 496 2040 l 1,49,-1
EndSplineSet
Substitution2: "'fina' Terminal Forms in Arabic lookup 0 subtable" THL_B00
EndChar

StartChar: RAA_G
Encoding: 1585 1585 33
Width: 1192
GlyphClass: 2
Flags: W
AnchorPoint: "Anchor-2" 136 -916 basechar 0
AnchorPoint: "Anchor-1" 444 1870 basechar 0
LayerCount: 2
Fore
SplineSet
774 998 m 1,0,1
 794 956 794 956 903 791 c 128,-1,2
 1012 626 1012 626 1012 433 c 128,-1,3
 1012 240 1012 240 954 138 c 1,4,5
 730 -180 730 -180 -312 -734 c 1,6,7
 -928 -892 -928 -892 -1162 -908 c 0,8,9
 -1190 -906 -1190 -906 -1192 -900 c 0,10,11
 238 -284 238 -284 818 218 c 0,12,13
 894 286 894 286 942 340 c 1,14,15
 914 436 914 436 775 662 c 128,-1,16
 636 888 636 888 600 1056 c 1,17,-1
 554 1098 l 1,18,-1
 636 1352 l 1,19,20
 672 1304 672 1304 771 1191 c 128,-1,21
 870 1078 870 1078 910 1032 c 128,-1,22
 950 986 950 986 940 978 c 128,-1,23
 930 970 930 970 908 978 c 1,24,-1
 902 978 l 2,25,26
 888 982 888 982 804 1016 c 1,27,-1
 778 1012 l 1,28,-1
 774 998 l 1,0,1
EndSplineSet
AlternateSubs2: "'aalt' Access All Alternates lookup 54 subtable" RAA_001
Substitution2: "Single Substitution lookup 43 subtable" RAA_002
Substitution2: "Single Substitution lookup 42 subtable" RAA_003
Substitution2: "Single Substitution lookup 40 subtable" RAA_001
Substitution2: "'fina' Terminal Forms in Arabic lookup 0 subtable" RAA_B00
EndChar

StartChar: ZIN_G
Encoding: 1586 1586 34
Width: 1700
GlyphClass: 2
Flags: W
AnchorPoint: "Anchor-2" 476 -1020 basechar 0
AnchorPoint: "Anchor-1" 1194 2046 basechar 0
LayerCount: 2
Fore
SplineSet
-176 -838 m 2,0,1
 -500 -838 -500 -838 -536 -478 c 1,2,-1
 -536 -452 l 2,3,4
 -534 -188 -534 -188 -358 160 c 0,5,6
 -338 188 -338 188 -330 194 c 2,7,-1
 -324 194 l 1,8,9
 -320 184 -320 184 -352 112 c 0,10,11
 -474 -176 -474 -176 -476 -386 c 0,12,13
 -470 -642 -470 -642 -276 -646 c 2,14,-1
 -256 -646 l 2,15,16
 -72 -646 -72 -646 218 -336 c 0,17,18
 270 -280 270 -280 372 -164 c 0,19,20
 702 210 702 210 904 349 c 128,-1,21
 1106 488 1106 488 1306 506 c 1,22,-1
 1344 506 l 2,23,24
 1594 504 1594 504 1702 320 c 1,25,-1
 1702 272 l 2,26,27
 1700 162 1700 162 1664 46 c 1,28,29
 1614 180 1614 180 1432 244 c 0,30,31
 1352 270 1352 270 1278 270 c 0,32,33
 1180 270 1180 270 1088 226 c 0,34,35
 836 94 836 94 511 -275 c 128,-1,36
 186 -644 186 -644 72 -735 c 128,-1,37
 -42 -826 -42 -826 -142 -838 c 1,38,-1
 -176 -838 l 2,0,1
1474 1268 m 1,39,-1
 1332 1062 l 1,40,-1
 1088 1244 l 1,41,-1
 1232 1452 l 1,42,-1
 1474 1268 l 1,39,-1
EndSplineSet
AlternateSubs2: "'aalt' Access All Alternates lookup 54 subtable" ZIN_001
Substitution2: "Single Substitution lookup 40 subtable" ZIN_001
Substitution2: "'fina' Terminal Forms in Arabic lookup 0 subtable" ZIN_B00
EndChar

StartChar: SIN_G
Encoding: 1587 1587 35
Width: 3454
GlyphClass: 2
Flags: W
AnchorPoint: "Anchor-2" 1766 -1130 basechar 0
AnchorPoint: "Anchor-1" 2074 1782 basechar 0
LayerCount: 2
Fore
SplineSet
3208 614 m 1,0,1
 3144 490 3144 490 3081 464 c 128,-1,2
 3018 438 3018 438 2976 438 c 0,3,4
 2832 438 2832 438 2748 556 c 0,5,6
 2720 602 2720 602 2712 642 c 1,7,8
 2588 470 2588 470 2560 442 c 0,9,10
 2484 366 2484 366 2356 364 c 1,11,12
 2376 238 2376 238 2374 148 c 2,13,-1
 2374 124 l 2,14,15
 2370 -92 2370 -92 2304 -172 c 1,16,17
 1548 -834 1548 -834 986 -836 c 2,18,-1
 970 -836 l 1,19,20
 400 -824 400 -824 294 -334 c 0,21,22
 272 -234 272 -234 270 -122 c 0,23,24
 272 176 272 176 400 466 c 0,25,26
 424 518 424 518 444 518 c 128,-1,27
 464 518 464 518 448 474 c 0,28,29
 410 394 410 394 379 257 c 128,-1,30
 348 120 348 120 348 26 c 0,31,32
 348 -324 348 -324 618 -492 c 0,33,34
 782 -592 782 -592 994 -594 c 0,35,36
 1114 -592 1114 -592 1254 -560 c 0,37,38
 1832 -424 1832 -424 2268 0 c 2,39,-1
 2312 42 l 1,40,41
 2262 366 2262 366 2104 582 c 0,42,43
 2096 592 2096 592 2092 598 c 2,44,-1
 2164 854 l 1,45,46
 2178 832 2178 832 2206 767 c 128,-1,47
 2234 702 2234 702 2241 693 c 128,-1,48
 2248 684 2248 684 2250 680 c 0,49,50
 2300 592 2300 592 2390 590 c 0,51,52
 2562 590 2562 590 2712 798 c 0,53,54
 2724 814 2724 814 2734 827 c 128,-1,55
 2744 840 2744 840 2754 852 c 128,-1,56
 2764 864 2764 864 2772 874 c 128,-1,57
 2780 884 2780 884 2786 891 c 128,-1,58
 2792 898 2792 898 2797 902 c 128,-1,59
 2802 906 2802 906 2806 910 c 128,-1,60
 2810 914 2810 914 2816 918 c 0,61,62
 2824 926 2824 926 2828 924 c 2,63,-1
 2832 924 l 1,64,-1
 2836 920 l 1,65,-1
 2808 862 l 2,66,67
 2806 846 2806 846 2806 836 c 0,68,69
 2850 684 2850 684 3028 680 c 0,70,71
 3118 682 3118 682 3174 720 c 1,72,73
 3154 792 3154 792 3082 868 c 1,74,-1
 3140 1120 l 1,75,76
 3238 1008 3238 1008 3248 850 c 1,77,-1
 3248 828 l 2,78,79
 3244 704 3244 704 3208 614 c 1,0,1
EndSplineSet
Substitution2: "'ss01' Style Set 1 lookup 10 subtable" SIN_001
Substitution2: "'init' Initial Forms in Arabic lookup 2 subtable" SIN_00B
Substitution2: "'medi' Medial Forms in Arabic lookup 1 subtable" SIN_B0B
Substitution2: "'fina' Terminal Forms in Arabic lookup 0 subtable" SIN_B00
EndChar

StartChar: SHN_G
Encoding: 1588 1588 36
Width: 3454
GlyphClass: 2
Flags: W
AnchorPoint: "Anchor-2" 1774 -1108 basechar 0
AnchorPoint: "Anchor-1" 2348 2426 basechar 0
LayerCount: 2
Fore
SplineSet
3216 634 m 1,0,1
 3152 514 3152 514 3087 487 c 128,-1,2
 3022 460 3022 460 2982 460 c 0,3,4
 2836 460 2836 460 2752 580 c 0,5,6
 2726 624 2726 624 2720 662 c 1,7,8
 2596 490 2596 490 2568 464 c 0,9,10
 2492 388 2492 388 2360 386 c 1,11,12
 2380 260 2380 260 2378 168 c 2,13,-1
 2378 140 l 2,14,15
 2376 -82 2376 -82 2312 -150 c 1,16,17
 1556 -812 1556 -812 994 -816 c 2,18,-1
 978 -816 l 1,19,20
 416 -804 416 -804 304 -322 c 0,21,22
 280 -216 280 -216 280 -98 c 0,23,24
 282 212 282 212 404 488 c 0,25,26
 428 540 428 540 448 540 c 128,-1,27
 468 540 468 540 452 496 c 0,28,29
 414 416 414 416 384 276 c 0,30,31
 354 140 354 140 352 48 c 0,32,33
 352 -300 352 -300 622 -470 c 0,34,35
 788 -572 788 -572 1002 -572 c 0,36,37
 1122 -572 1122 -572 1264 -540 c 0,38,39
 1842 -404 1842 -404 2276 20 c 2,40,-1
 2320 62 l 1,41,42
 2270 386 2270 386 2112 604 c 0,43,44
 2104 614 2104 614 2100 618 c 2,45,-1
 2172 876 l 1,46,47
 2240 762 2240 762 2246 733 c 128,-1,48
 2252 704 2252 704 2254 700 c 0,49,50
 2304 612 2304 612 2394 612 c 0,51,52
 2566 612 2566 612 2716 818 c 0,53,54
 2728 834 2728 834 2739 847 c 128,-1,55
 2750 860 2750 860 2759 872 c 128,-1,56
 2768 884 2768 884 2776 894 c 128,-1,57
 2784 904 2784 904 2790 912 c 128,-1,58
 2796 920 2796 920 2801 923 c 128,-1,59
 2806 926 2806 926 2811 930 c 128,-1,60
 2816 934 2816 934 2820 938 c 0,61,62
 2828 946 2828 946 2832 946 c 2,63,-1
 2836 946 l 1,64,-1
 2844 942 l 1,65,-1
 2818 884 l 2,66,67
 2816 868 2816 868 2816 856 c 0,68,69
 2860 704 2860 704 3036 700 c 0,70,71
 3126 702 3126 702 3182 740 c 1,72,73
 3164 806 3164 806 3088 888 c 1,74,-1
 3150 1142 l 1,75,76
 3248 1030 3248 1030 3256 872 c 1,77,-1
 3256 848 l 2,78,79
 3252 724 3252 724 3216 634 c 1,0,1
2520 1456 m 1,80,-1
 2378 1254 l 1,81,-1
 2130 1436 l 1,82,-1
 2276 1644 l 1,83,-1
 2516 1464 l 1,84,-1
 2658 1666 l 1,85,-1
 2906 1484 l 1,86,-1
 2760 1276 l 1,87,-1
 2520 1456 l 1,80,-1
2650 1752 m 1,88,-1
 2510 1550 l 1,89,-1
 2266 1732 l 1,90,-1
 2408 1936 l 1,91,-1
 2650 1752 l 1,88,-1
EndSplineSet
Substitution2: "'init' Initial Forms in Arabic lookup 2 subtable" SHN_00B
Substitution2: "'medi' Medial Forms in Arabic lookup 1 subtable" SHN_B0B
Substitution2: "'fina' Terminal Forms in Arabic lookup 0 subtable" SHN_B00
EndChar

StartChar: SAD_G
Encoding: 1589 1589 37
Width: 3908
GlyphClass: 2
Flags: W
AnchorPoint: "Anchor-2" 2154 -870 basechar 0
AnchorPoint: "Anchor-1" 2294 1828 basechar 0
LayerCount: 2
Fore
SplineSet
2320 -18 m 1,0,1
 2266 330 2266 330 2098 542 c 1,2,-1
 2166 798 l 1,3,4
 2220 712 2220 712 2250 638 c 1,5,6
 2286 586 2286 586 2400 560 c 0,7,8
 2410 558 2410 558 2416 556 c 0,9,10
 2646 1014 2646 1014 2970 1264 c 0,11,12
 3090 1352 3090 1352 3214 1354 c 0,13,14
 3450 1354 3450 1354 3626 1110 c 0,15,16
 3680 1036 3680 1036 3690 1004 c 0,17,18
 3702 970 3702 970 3700 918 c 0,19,20
 3700 834 3700 834 3670 708 c 1,21,22
 3668 714 3668 714 3666 716 c 1,23,24
 3600 498 3600 498 3216 362 c 0,25,26
 2952 268 2952 268 2732 270 c 0,27,28
 2730 270 2730 270 2728 270 c 0,29,30
 2508 272 2508 272 2364 312 c 1,31,32
 2390 206 2390 206 2392 46 c 0,33,34
 2392 40 2392 40 2392 34 c 0,35,36
 2390 -134 2390 -134 2320 -226 c 1,37,-1
 2116 -400 l 1,38,39
 1486 -892 1486 -892 1004 -894 c 2,40,-1
 984 -894 l 1,41,42
 422 -882 422 -882 308 -400 c 0,43,44
 284 -294 284 -294 284 -174 c 0,45,46
 286 136 286 136 410 408 c 0,47,48
 434 460 434 460 454 461 c 128,-1,49
 474 462 474 462 458 416 c 0,50,51
 420 336 420 336 389 198 c 128,-1,52
 358 60 358 60 358 -32 c 0,53,54
 358 -380 358 -380 626 -548 c 0,55,56
 792 -650 792 -650 1008 -652 c 0,57,58
 1130 -652 1130 -652 1266 -620 c 0,59,60
 1856 -478 1856 -478 2320 -18 c 1,0,1
3610 802 m 1,61,62
 3402 1110 3402 1110 3156 1110 c 0,63,64
 2836 1110 2836 1110 2478 536 c 1,65,66
 2618 498 2618 498 2746 498 c 128,-1,67
 2874 498 2874 498 2962 514 c 0,68,69
 3434 596 3434 596 3610 802 c 1,61,62
EndSplineSet
Substitution2: "'ss01' Style Set 1 lookup 10 subtable" SAD_001
Substitution2: "'init' Initial Forms in Arabic lookup 2 subtable" SAD_00B
Substitution2: "'medi' Medial Forms in Arabic lookup 1 subtable" SAD_B0B
Substitution2: "'fina' Terminal Forms in Arabic lookup 0 subtable" SAD_B00
EndChar

StartChar: DAD_G
Encoding: 1590 1590 38
Width: 3908
GlyphClass: 2
Flags: W
AnchorPoint: "Anchor-2" 1990 -1042 basechar 0
AnchorPoint: "Anchor-1" 2072 2236 basechar 0
LayerCount: 2
Fore
SplineSet
2324 -8 m 1,0,1
 2272 340 2272 340 2102 554 c 1,2,-1
 2176 810 l 1,3,4
 2230 724 2230 724 2260 650 c 1,5,6
 2296 598 2296 598 2404 572 c 0,7,8
 2414 570 2414 570 2420 568 c 0,9,10
 2650 1026 2650 1026 2974 1276 c 0,11,12
 3094 1364 3094 1364 3218 1366 c 0,13,14
 3444 1366 3444 1366 3630 1122 c 0,15,16
 3684 1048 3684 1048 3696 1014 c 128,-1,17
 3708 980 3708 980 3706 932 c 0,18,19
 3706 848 3706 848 3674 720 c 1,20,21
 3672 726 3672 726 3670 728 c 1,22,23
 3604 510 3604 510 3220 372 c 0,24,25
 2956 278 2956 278 2736 282 c 0,26,27
 2734 282 2734 282 2732 282 c 0,28,29
 2512 284 2512 284 2368 324 c 1,30,31
 2394 218 2394 218 2396 58 c 0,32,33
 2396 52 2396 52 2396 46 c 0,34,35
 2394 -122 2394 -122 2324 -214 c 1,36,-1
 2120 -390 l 1,37,38
 1490 -882 1490 -882 1008 -884 c 2,39,-1
 988 -884 l 1,40,41
 418 -872 418 -872 310 -382 c 0,42,43
 288 -282 288 -282 290 -168 c 0,44,45
 292 130 292 130 418 420 c 0,46,47
 442 472 442 472 462 473 c 128,-1,48
 482 474 482 474 466 428 c 0,49,50
 420 334 420 334 391 203 c 128,-1,51
 362 72 362 72 362 -20 c 0,52,53
 362 -368 362 -368 630 -538 c 0,54,55
 796 -640 796 -640 1012 -640 c 0,56,57
 1132 -640 1132 -640 1272 -608 c 0,58,59
 1860 -468 1860 -468 2324 -8 c 1,0,1
3614 814 m 1,60,61
 3408 1122 3408 1122 3160 1122 c 0,62,63
 2838 1118 2838 1118 2482 548 c 1,64,65
 2622 510 2622 510 2751 510 c 128,-1,66
 2880 510 2880 510 2966 524 c 0,67,68
 3438 608 3438 608 3614 814 c 1,60,61
2452 1618 m 1,69,-1
 2306 1412 l 1,70,-1
 2058 1594 l 1,71,-1
 2200 1802 l 1,72,-1
 2452 1618 l 1,69,-1
EndSplineSet
Substitution2: "'init' Initial Forms in Arabic lookup 2 subtable" DAD_00B
Substitution2: "'medi' Medial Forms in Arabic lookup 1 subtable" DAD_B0B
Substitution2: "'fina' Terminal Forms in Arabic lookup 0 subtable" DAD_B00
EndChar

StartChar: TAH_G
Encoding: 1591 1591 39
Width: 2682
GlyphClass: 2
Flags: W
AnchorPoint: "Anchor-2" 1518 -282 basechar 0
AnchorPoint: "Anchor-1" 1904 2146 basechar 0
LayerCount: 2
Fore
SplineSet
1070 3314 m 1,0,1
 1322 2724 1322 2724 1320 2642 c 2,2,-1
 1320 2636 l 2,3,4
 1316 2628 1316 2628 1314 2624 c 0,5,6
 1286 2630 1286 2630 1184 2758 c 0,7,8
 1180 2762 1180 2762 1170 2762 c 2,9,-1
 1166 2762 l 1,10,11
 1334 1536 1334 1536 1334 1072 c 0,12,13
 1332 854 1332 854 1242 536 c 1,14,15
 1538 902 1538 902 1808 1096 c 0,16,17
 1950 1192 1950 1192 2092 1194 c 0,18,19
 2308 1194 2308 1194 2436 1026 c 0,20,21
 2504 932 2504 932 2506 836 c 2,22,-1
 2506 820 l 1,23,24
 2484 672 2484 672 2438 564 c 1,25,26
 2294 316 2294 316 1530 156 c 0,27,28
 1132 74 1132 74 866 74 c 1,29,-1
 794 78 l 1,30,-1
 788 78 l 2,31,32
 724 78 724 78 596 135 c 128,-1,33
 468 192 468 192 372 254 c 2,34,-1
 276 314 l 1,35,-1
 538 294 l 2,36,37
 620 292 620 292 748 292 c 0,38,39
 984 292 984 292 1074 304 c 1,40,41
 1132 388 1132 388 1188 462 c 1,42,-1
 1188 482 l 1,43,-1
 1192 700 l 2,44,45
 1192 880 1192 880 1171 1202 c 128,-1,46
 1150 1524 1150 1524 1073 2206 c 128,-1,47
 996 2888 996 2888 984 3010 c 1,48,-1
 956 3078 l 1,49,-1
 1070 3314 l 1,0,1
1136 310 m 1,50,51
 1694 374 1694 374 2160 568 c 0,52,53
 2326 638 2326 638 2416 704 c 1,54,55
 2324 900 2324 900 2104 950 c 0,56,57
 2056 958 2056 958 2030 956 c 0,58,59
 1658 956 1658 956 1136 310 c 1,50,51
EndSplineSet
Substitution2: "'init' Initial Forms in Arabic lookup 2 subtable" TAH_00B
Substitution2: "'medi' Medial Forms in Arabic lookup 1 subtable" TAH_B0B
Substitution2: "'fina' Terminal Forms in Arabic lookup 0 subtable" TAH_B00
EndChar

StartChar: DDH_G
Encoding: 1592 1592 40
Width: 2682
GlyphClass: 2
Flags: W
AnchorPoint: "Anchor-2" 1518 -282 basechar 0
AnchorPoint: "Anchor-1" 1984 2420 basechar 0
LayerCount: 2
Fore
SplineSet
1070 3314 m 1,0,1
 1322 2724 1322 2724 1320 2642 c 2,2,-1
 1320 2636 l 2,3,4
 1316 2628 1316 2628 1314 2624 c 0,5,6
 1286 2630 1286 2630 1184 2758 c 0,7,8
 1180 2762 1180 2762 1170 2762 c 2,9,-1
 1166 2762 l 1,10,11
 1334 1536 1334 1536 1334 1072 c 0,12,13
 1332 854 1332 854 1242 536 c 1,14,15
 1538 902 1538 902 1808 1096 c 0,16,17
 1950 1192 1950 1192 2092 1194 c 0,18,19
 2308 1194 2308 1194 2436 1026 c 0,20,21
 2504 932 2504 932 2506 836 c 2,22,-1
 2506 820 l 1,23,24
 2484 672 2484 672 2438 564 c 1,25,26
 2294 316 2294 316 1530 156 c 0,27,28
 1132 74 1132 74 866 74 c 1,29,-1
 794 78 l 1,30,-1
 788 78 l 2,31,32
 724 78 724 78 596 135 c 128,-1,33
 468 192 468 192 372 254 c 2,34,-1
 276 314 l 1,35,-1
 538 294 l 2,36,37
 620 292 620 292 748 292 c 0,38,39
 984 292 984 292 1074 304 c 1,40,41
 1132 388 1132 388 1188 462 c 1,42,-1
 1188 482 l 1,43,-1
 1192 700 l 2,44,45
 1192 880 1192 880 1171 1202 c 128,-1,46
 1150 1524 1150 1524 1073 2206 c 128,-1,47
 996 2888 996 2888 984 3010 c 1,48,-1
 956 3078 l 1,49,-1
 1070 3314 l 1,0,1
1136 310 m 1,50,51
 1694 374 1694 374 2160 568 c 0,52,53
 2326 638 2326 638 2416 704 c 1,54,55
 2324 900 2324 900 2104 950 c 0,56,57
 2056 958 2056 958 2030 956 c 0,58,59
 1658 956 1658 956 1136 310 c 1,50,51
2052 1746 m 1,60,-1
 1912 1544 l 1,61,-1
 1664 1722 l 1,62,-1
 1804 1930 l 1,63,-1
 2052 1746 l 1,60,-1
EndSplineSet
Substitution2: "'init' Initial Forms in Arabic lookup 2 subtable" DDH_00B
Substitution2: "'medi' Medial Forms in Arabic lookup 1 subtable" DDH_B0B
Substitution2: "'fina' Terminal Forms in Arabic lookup 0 subtable" DDH_B00
EndChar

StartChar: AIN_G
Encoding: 1593 1593 41
Width: 1830
GlyphClass: 2
Flags: W
AnchorPoint: "Anchor-2" 648 -1748 basechar 0
AnchorPoint: "Anchor-1" 740 2556 basechar 0
LayerCount: 2
Fore
SplineSet
248 1354 m 1,0,-1
 252 1404 l 1,1,2
 270 1518 270 1518 346 1622 c 2,3,-1
 374 1660 l 1,4,5
 578 1908 578 1908 830 1908 c 2,6,7
 830 1908 830 1908 832 1908 c 0,8,9
 1086 1906 1086 1906 1314 1720 c 1,10,-1
 1192 1750 l 2,11,12
 1152 1760 1152 1760 1074 1760 c 0,13,14
 868 1760 868 1760 660 1680 c 0,15,16
 462 1602 462 1602 358 1522 c 1,17,18
 372 1280 372 1280 594 1128 c 0,19,20
 742 1028 742 1028 896 1028 c 0,21,22
 898 1028 898 1028 900 1028 c 0,23,24
 1084 1030 1084 1030 1158 1082 c 0,25,26
 1506 1334 1506 1334 1820 1474 c 1,27,-1
 1730 1214 l 1,28,29
 664 684 664 684 444 -24 c 0,30,31
 418 -108 418 -108 402 -190 c 1,32,-1
 402 -226 l 2,33,34
 406 -634 406 -634 652 -872 c 1,35,36
 1012 -1196 1012 -1196 1998 -1196 c 0,37,38
 2322 -1196 2322 -1196 2922 -1144 c 1,39,40
 2780 -1200 2780 -1200 2576 -1283 c 128,-1,41
 2372 -1366 2372 -1366 2251 -1407 c 128,-1,42
 2130 -1448 2130 -1448 1826 -1448 c 0,43,44
 980 -1448 980 -1448 638 -1156 c 1,45,46
 336 -886 336 -886 338 -394 c 0,47,48
 340 280 340 280 802 774 c 1,49,50
 432 812 432 812 298 1114 c 0,51,52
 248 1226 248 1226 248 1354 c 1,0,-1
EndSplineSet
Substitution2: "'init' Initial Forms in Arabic lookup 2 subtable" AIN_00B
Substitution2: "'medi' Medial Forms in Arabic lookup 1 subtable" AIN_B0B
Substitution2: "'fina' Terminal Forms in Arabic lookup 0 subtable" AIN_B00
EndChar

StartChar: GHN_G
Encoding: 1594 1594 42
Width: 1812
GlyphClass: 2
Flags: W
AnchorPoint: "Anchor-2" 534 -1780 basechar 0
AnchorPoint: "Anchor-1" 546 2994 basechar 0
LayerCount: 2
Fore
SplineSet
2252 -224 m 0,0,1
 2252 -422 2252 -422 2166 -644 c 1,2,-1
 2166 -648 l 1,3,4
 2146 -704 2146 -704 2122 -746 c 0,5,6
 1842 -1214 1842 -1214 1426 -1374 c 0,7,8
 1250 -1442 1250 -1442 1046 -1442 c 0,9,10
 446 -1442 446 -1442 262 -916 c 0,11,12
 228 -818 228 -818 208 -680 c 1,13,-1
 204 -684 l 1,14,-1
 208 -672 l 1,15,16
 196 -576 196 -576 195 -417 c 128,-1,17
 194 -258 194 -258 236 -108 c 1,18,19
 290 168 290 168 360 278 c 0,20,21
 374 300 374 300 392 336 c 1,22,23
 298 422 298 422 236 500 c 1,24,25
 274 480 274 480 442 426 c 1,26,27
 520 550 520 550 674 706 c 1,28,29
 308 744 308 744 164 1036 c 0,30,31
 106 1154 106 1154 106 1286 c 1,32,-1
 110 1338 l 1,33,34
 142 1470 142 1470 204 1554 c 2,35,-1
 232 1592 l 1,36,37
 428 1840 428 1840 708 1838 c 0,38,39
 936 1838 936 1838 1170 1650 c 1,40,-1
 1048 1678 l 2,41,42
 1014 1686 1014 1686 934 1686 c 0,43,44
 726 1686 726 1686 512 1604 c 0,45,46
 304 1524 304 1524 216 1458 c 1,47,48
 226 1210 226 1210 452 1056 c 0,49,50
 604 952 604 952 758 952 c 0,51,52
 760 952 760 952 762 952 c 0,53,54
 912 954 912 954 1016 1010 c 1,55,56
 1340 1254 1340 1254 1678 1406 c 1,57,-1
 1582 1146 l 1,58,59
 922 818 922 818 570 382 c 1,60,61
 786 334 786 334 1042 336 c 2,62,-1
 1572 352 l 1,63,64
 1954 346 1954 346 2110 176 c 0,65,66
 2218 60 2218 60 2235 -54 c 128,-1,67
 2252 -168 2252 -168 2252 -224 c 0,0,1
270 -214 m 1,68,-1
 266 -298 l 1,69,70
 266 -856 266 -856 646 -1056 c 0,71,72
 822 -1148 822 -1148 1064 -1152 c 0,73,74
 1146 -1152 1146 -1152 1234 -1138 c 0,75,76
 1524 -1104 1524 -1104 1836 -856 c 0,77,78
 1936 -774 1936 -774 2039 -653 c 128,-1,79
 2142 -532 2142 -532 2198 -342 c 1,80,81
 2142 86 2142 86 1568 90 c 2,82,-1
 1454 90 l 1,83,-1
 1084 84 l 2,84,85
 732 84 732 84 498 250 c 0,86,87
 488 258 488 258 482 262 c 1,88,89
 326 14 326 14 270 -214 c 1,68,-1
798 2390 m 1,90,-1
 652 2188 l 1,91,-1
 404 2368 l 1,92,-1
 546 2572 l 1,93,-1
 798 2390 l 1,90,-1
EndSplineSet
Substitution2: "'init' Initial Forms in Arabic lookup 2 subtable" GHN_00B
Substitution2: "'medi' Medial Forms in Arabic lookup 1 subtable" GHN_B0B
Substitution2: "'fina' Terminal Forms in Arabic lookup 0 subtable" GHN_B00
EndChar

StartChar: FAA_G
Encoding: 1601 1601 43
Width: 3000
GlyphClass: 2
Flags: W
AnchorPoint: "Anchor-2" 906 -570 basechar 0
AnchorPoint: "Anchor-1" 1858 2408 basechar 0
LayerCount: 2
Fore
SplineSet
2526 624 m 2,0,-1
 2388 622 l 1,1,-1
 2358 622 l 1,2,3
 2134 646 2134 646 2130 832 c 0,4,5
 2130 934 2130 934 2182 1038 c 0,6,7
 2286 1216 2286 1216 2428 1226 c 1,8,9
 2522 1222 2522 1222 2602 1140 c 0,10,11
 2812 926 2812 926 2812 624 c 0,12,13
 2812 466 2812 466 2764 368 c 1,14,-1
 2764 354 l 1,15,16
 2354 40 2354 40 1738 -136 c 0,17,18
 1366 -242 1366 -242 1060 -244 c 0,19,20
 576 -240 576 -240 364 22 c 1,21,22
 266 188 266 188 267 357 c 128,-1,23
 268 526 268 526 394 842 c 0,24,25
 408 880 408 880 413 865 c 128,-1,26
 418 850 418 850 418 844 c 0,27,28
 354 678 354 678 358 536 c 0,29,30
 360 152 360 152 796 46 c 0,31,32
 906 20 906 20 1124 18 c 0,33,34
 1730 18 1730 18 2340 300 c 0,35,36
 2602 424 2602 424 2732 540 c 0,37,38
 2730 546 2730 546 2728 550 c 0,39,40
 2654 624 2654 624 2526 624 c 2,0,-1
2546 866 m 1,41,42
 2436 980 2436 980 2354 988 c 1,43,44
 2298 984 2298 984 2248 922 c 1,45,46
 2268 902 2268 902 2272 894 c 0,47,48
 2342 860 2342 860 2392 859 c 128,-1,49
 2442 858 2442 858 2484 862 c 128,-1,50
 2526 866 2526 866 2546 866 c 1,41,42
2436 1724 m 1,51,-1
 2294 1516 l 1,52,-1
 2046 1698 l 1,53,-1
 2192 1906 l 1,54,-1
 2436 1724 l 1,51,-1
EndSplineSet
Substitution2: "'init' Initial Forms in Arabic lookup 2 subtable" FAA_00B
Substitution2: "'medi' Medial Forms in Arabic lookup 1 subtable" FAA_B0B
Substitution2: "'fina' Terminal Forms in Arabic lookup 0 subtable" FAA_B00
EndChar

StartChar: QAF_G
Encoding: 1602 1602 44
Width: 2548
GlyphClass: 2
Flags: W
AnchorPoint: "Anchor-2" 784 -932 basechar 0
AnchorPoint: "Anchor-1" 1618 2396 basechar 0
LayerCount: 2
Fore
SplineSet
1924 770 m 2,0,-1
 2062 772 l 1,1,-1
 2090 772 l 1,2,3
 1964 880 1964 880 1894 884 c 2,4,5
 1894 884 1894 884 1892 884 c 0,6,7
 1822 882 1822 882 1774 820 c 1,8,9
 1812 770 1812 770 1924 770 c 2,0,-1
2062 544 m 2,10,-1
 1912 540 l 2,11,12
 1712 540 1712 540 1672 706 c 0,13,14
 1666 740 1666 740 1666 772 c 0,15,16
 1666 862 1666 862 1712 952 c 0,17,18
 1806 1124 1806 1124 1952 1126 c 0,19,20
 2044 1122 2044 1122 2128 1040 c 0,21,22
 2354 812 2354 812 2356 476 c 2,23,-1
 2356 458 l 2,24,25
 2354 218 2354 218 2296 146 c 1,26,-1
 2098 -30 l 1,27,28
 1468 -538 1468 -538 984 -542 c 2,29,-1
 956 -542 l 1,30,31
 386 -524 386 -524 278 -38 c 0,32,33
 256 62 256 62 256 174 c 0,34,35
 258 462 258 462 382 758 c 0,36,37
 406 810 406 810 426 812 c 1,38,39
 432 804 432 804 432 789 c 128,-1,40
 432 774 432 774 409 719 c 128,-1,41
 386 664 386 664 363 532 c 128,-1,42
 340 400 340 400 340 326 c 0,43,44
 340 -20 340 -20 604 -190 c 0,45,46
 768 -290 768 -290 937 -291 c 128,-1,47
 1106 -292 1106 -292 1252 -258 c 0,48,49
 1838 -108 1838 -108 2274 340 c 0,50,51
 2290 358 2290 358 2300 368 c 1,52,53
 2292 396 2292 396 2270 468 c 1,54,55
 2188 544 2188 544 2062 544 c 2,10,-1
1712 1684 m 1,56,-1
 1570 1486 l 1,57,-1
 1328 1664 l 1,58,-1
 1468 1872 l 1,59,-1
 1708 1690 l 1,60,-1
 1854 1894 l 1,61,-1
 2098 1712 l 1,62,-1
 1954 1504 l 1,63,-1
 1712 1684 l 1,56,-1
EndSplineSet
Substitution2: "'ss01' Style Set 1 lookup 10 subtable" QAF_001
Substitution2: "'init' Initial Forms in Arabic lookup 2 subtable" QAF_00B
Substitution2: "'medi' Medial Forms in Arabic lookup 1 subtable" QAF_B0B
Substitution2: "'fina' Terminal Forms in Arabic lookup 0 subtable" QAF_B00
EndChar

StartChar: KAF_G
Encoding: 1603 1603 45
Width: 2880
GlyphClass: 2
Flags: W
AnchorPoint: "Anchor-2" 1608 -630 basechar 0
AnchorPoint: "Anchor-1" 1440 2462 basechar 0
LayerCount: 2
Fore
SplineSet
1756 1296 m 1,0,1
 1640 1088 1640 1088 1467 1013 c 128,-1,2
 1294 938 1294 938 1012 938 c 2,3,-1
 944 938 l 1,4,5
 1514 1150 1514 1150 1692 1304 c 1,6,7
 1672 1318 1672 1318 1636 1318 c 2,8,-1
 1602 1318 l 2,9,10
 1272 1320 1272 1320 1266 1456 c 0,11,12
 1268 1480 1268 1480 1400 1756 c 1,13,-1
 1400 1748 l 1,14,15
 1534 1960 1534 1960 1664 1994 c 0,16,17
 1726 2002 1726 2002 1754 1968 c 1,18,19
 1716 1820 1716 1820 1680 1724 c 1,20,21
 1644 1756 1644 1756 1612 1758 c 0,22,23
 1506 1758 1506 1758 1392 1646 c 0,24,25
 1388 1634 1388 1634 1388 1622 c 0,26,27
 1388 1554 1388 1554 1646 1540 c 0,28,29
 1710 1536 1710 1536 1730 1534 c 0,30,31
 1818 1526 1818 1526 1822 1456 c 1,32,-1
 1816 1436 l 1,33,-1
 1756 1296 l 1,0,1
2648 2740 m 0,34,35
 2622 2746 2622 2746 2566 2811 c 128,-1,36
 2510 2876 2510 2876 2504 2876 c 2,37,-1
 2502 2876 l 1,38,39
 2682 1474 2682 1474 2682 904 c 0,40,41
 2682 772 2682 772 2646 599 c 128,-1,42
 2610 426 2610 426 2593 371 c 128,-1,43
 2576 316 2576 316 2544 274 c 1,44,45
 2042 -74 2042 -74 1562 -212 c 0,46,47
 1242 -304 1242 -304 960 -304 c 0,48,49
 564 -302 564 -302 378 -70 c 1,50,51
 282 94 282 94 282 266 c 128,-1,52
 282 438 282 438 408 758 c 0,53,54
 420 788 420 788 428 776 c 0,55,56
 436 758 436 758 434 754 c 0,57,58
 368 568 368 568 370 448 c 0,59,60
 376 76 376 76 818 -26 c 0,61,62
 888 -42 888 -42 1008 -42 c 0,63,64
 1596 -42 1596 -42 2178 260 c 0,65,66
 2418 384 2418 384 2552 486 c 1,67,68
 2552 512 2552 512 2516 1086 c 0,69,70
 2482 1684 2482 1684 2322 3122 c 1,71,-1
 2288 3186 l 1,72,-1
 2408 3424 l 1,73,74
 2496 3226 2496 3226 2575 3011 c 128,-1,75
 2654 2796 2654 2796 2656 2756 c 2,76,-1
 2656 2752 l 2,77,78
 2650 2740 2650 2740 2648 2740 c 0,34,35
EndSplineSet
Substitution2: "'init' Initial Forms in Arabic lookup 2 subtable" KAF_00B
Substitution2: "'medi' Medial Forms in Arabic lookup 1 subtable" KAF_B0B
Substitution2: "'fina' Terminal Forms in Arabic lookup 0 subtable" KAF_B00
EndChar

StartChar: LAM_G
Encoding: 1604 1604 46
Width: 2420
GlyphClass: 2
Flags: W
AnchorPoint: "Anchor-2" 1430 -796 basechar 0
AnchorPoint: "Anchor-1" 1108 1718 basechar 0
LayerCount: 2
Fore
SplineSet
2044 2906 m 1,0,1
 2240 1302 2240 1302 2240 774 c 0,2,3
 2240 490 2240 490 2148 206 c 0,4,5
 2126 142 2126 142 2108 104 c 1,6,7
 2108 104 2108 104 1900 -70 c 1,8,9
 1284 -544 1284 -544 810 -542 c 2,10,-1
 758 -542 l 1,11,12
 206 -510 206 -510 94 -40 c 0,13,14
 70 62 70 62 72 178 c 0,15,16
 74 470 74 470 212 778 c 0,17,18
 236 830 236 830 256 830 c 128,-1,19
 276 830 276 830 260 786 c 0,20,21
 216 708 216 708 187 567 c 128,-1,22
 158 426 158 426 158 330 c 0,23,24
 158 -14 158 -14 422 -184 c 0,25,26
 586 -284 586 -284 806 -284 c 0,27,28
 926 -284 926 -284 1046 -258 c 0,29,30
 1622 -132 1622 -132 2088 312 c 0,31,32
 2104 328 2104 328 2116 338 c 1,33,34
 2114 392 2114 392 2102 557 c 128,-1,35
 2090 722 2090 722 2060 1212 c 128,-1,36
 2030 1702 2030 1702 1876 3158 c 1,37,-1
 1840 3228 l 1,38,-1
 1958 3462 l 1,39,40
 2026 3316 2026 3316 2116 3088 c 0,41,42
 2206 2838 2206 2838 2206 2786 c 0,43,44
 2206 2774 2206 2774 2202 2772 c 0,45,46
 2174 2778 2174 2778 2068 2910 c 1,47,-1
 2048 2910 l 1,48,-1
 2044 2906 l 1,0,1
EndSplineSet
Substitution2: "'ss01' Style Set 1 lookup 10 subtable" LAM_001
Substitution2: "'init' Initial Forms in Arabic lookup 2 subtable" LAM_00B
Substitution2: "'medi' Medial Forms in Arabic lookup 1 subtable" LAM_B0B
Substitution2: "'fina' Terminal Forms in Arabic lookup 0 subtable" LAM_B00
EndChar

StartChar: MIM_G
Encoding: 1605 1605 47
Width: 2330
GlyphClass: 2
Flags: W
AnchorPoint: "Anchor-2" 1134 -344 basechar 0
AnchorPoint: "Anchor-1" 1370 1646 basechar 0
LayerCount: 2
Fore
SplineSet
1638 244 m 1,0,1
 1230 124 1230 124 840 -220 c 0,2,3
 768 -284 768 -284 544 -522 c 0,4,5
 320 -758 320 -758 184 -780 c 0,6,7
 172 -782 172 -782 164 -784 c 2,8,-1
 116 -788 l 1,9,10
 -142 -788 -142 -788 -216 -560 c 0,11,12
 -236 -498 -236 -498 -236 -404 c 0,13,14
 -236 -118 -236 -118 40 274 c 0,15,16
 78 328 78 328 86 312 c 0,17,18
 88 308 88 308 4 140 c 0,19,20
 -174 -208 -174 -208 -178 -380 c 0,21,22
 -182 -598 -182 -598 34 -598 c 0,23,24
 44 -598 44 -598 52 -598 c 0,25,26
 228 -598 228 -598 478 -348 c 0,27,28
 514 -312 514 -312 686 -134 c 0,29,30
 1052 242 1052 242 1422 386 c 0,31,32
 1458 400 1458 400 1482 408 c 1,33,34
 1388 522 1388 522 1380 578 c 0,35,36
 1376 612 1376 612 1376 634 c 0,37,38
 1374 814 1374 814 1490 886 c 1,39,40
 1564 918 1564 918 1612 918 c 0,41,42
 1804 918 1804 918 2020 748 c 0,43,44
 2118 672 2118 672 2132 640 c 0,45,46
 2146 604 2146 604 2134 564 c 0,47,48
 2104 462 2104 462 2058 380 c 1,49,50
 1956 358 1956 358 1754 284 c 1,51,52
 1798 188 1798 188 1797 122 c 128,-1,53
 1796 56 1796 56 1794 35 c 128,-1,54
 1792 14 1792 14 1792 6 c 1,55,56
 1768 100 1768 100 1638 244 c 1,0,1
1886 550 m 1,57,58
 1682 674 1682 674 1560 674 c 0,59,60
 1500 674 1500 674 1466 648 c 1,61,62
 1502 580 1502 580 1616 462 c 1,63,64
 1782 522 1782 522 1886 550 c 1,57,58
EndSplineSet
AlternateSubs2: "'aalt' Access All Alternates lookup 54 subtable" MIM_001
Substitution2: "Single Substitution lookup 40 subtable" MIM_001
Substitution2: "'ss01' Style Set 1 lookup 10 subtable" MIM_001
Substitution2: "'init' Initial Forms in Arabic lookup 2 subtable" MIM_00B
Substitution2: "'medi' Medial Forms in Arabic lookup 1 subtable" MIM_B0B
Substitution2: "'fina' Terminal Forms in Arabic lookup 0 subtable" MIM_B00
EndChar

StartChar: NON_G
Encoding: 1606 1606 48
Width: 2546
GlyphClass: 2
Flags: W
AnchorPoint: "Anchor-2" 784 -810 basechar 0
AnchorPoint: "Anchor-1" 1106 2286 basechar 0
LayerCount: 2
Fore
SplineSet
2270 154 m 1,0,1
 2146 30 2146 30 1868 -140 c 0,2,3
 1342 -464 1342 -464 944 -464 c 2,4,-1
 920 -464 l 1,5,6
 328 -452 328 -452 216 30 c 0,7,8
 182 176 182 176 182 256 c 0,9,10
 184 558 184 558 312 838 c 0,11,12
 336 890 336 890 356 892 c 0,13,14
 378 892 378 892 358 846 c 0,15,16
 320 762 320 762 290 628 c 128,-1,17
 260 494 260 494 260 404 c 0,18,19
 260 56 260 56 532 -116 c 0,20,21
 694 -218 694 -218 944 -218 c 0,22,23
 1064 -218 1064 -218 1202 -186 c 0,24,25
 1782 -54 1782 -54 2194 294 c 0,26,27
 2232 326 2232 326 2262 356 c 1,28,29
 2240 430 2240 430 2113 647 c 128,-1,30
 1986 864 1986 864 1962 1028 c 1,31,-1
 1962 1032 l 1,32,-1
 1924 1076 l 1,33,-1
 2018 1322 l 1,34,35
 2244 1034 2244 1034 2284 976 c 0,36,37
 2316 930 2316 930 2286 932 c 0,38,39
 2268 934 2268 934 2172 990 c 1,40,-1
 2138 988 l 1,41,-1
 2134 984 l 1,42,43
 2154 934 2154 934 2212 826 c 0,44,45
 2336 600 2336 600 2336 438 c 1,46,-1
 2320 284 l 1,47,48
 2298 206 2298 206 2270 154 c 1,0,1
1372 1454 m 1,49,-1
 1226 1252 l 1,50,-1
 982 1430 l 1,51,-1
 1128 1636 l 1,52,-1
 1372 1454 l 1,49,-1
EndSplineSet
AlternateSubs2: "'aalt' Access All Alternates lookup 54 subtable" NON_001
Substitution2: "'ss01' Style Set 1 lookup 10 subtable" NON_002
Substitution2: "'init' Initial Forms in Arabic lookup 2 subtable" NON_00B
Substitution2: "'medi' Medial Forms in Arabic lookup 1 subtable" NON_B0B
Substitution2: "'fina' Terminal Forms in Arabic lookup 0 subtable" NON_B00
EndChar

StartChar: HAA_G
Encoding: 1607 1607 49
Width: 1060
GlyphClass: 2
Flags: W
AnchorPoint: "Anchor-2" -36 -6 basechar 0
AnchorPoint: "Anchor-1" 398 2430 basechar 0
LayerCount: 2
Fore
SplineSet
826 1672 m 1,0,1
 826 1672 826 1672 826 1576 c 0,2,3
 826 1498 826 1498 804 1442 c 0,4,5
 702 1242 702 1242 508 988 c 1,6,7
 516 984 516 984 528 970 c 0,8,9
 696 820 696 820 696 602 c 0,10,11
 694 468 694 468 638 352 c 1,12,13
 570 238 570 238 352 150 c 0,14,15
 272 120 272 120 230 120 c 0,16,17
 106 136 106 136 104 312 c 0,18,19
 104 544 104 544 250 806 c 0,20,21
 260 826 260 826 285 862 c 128,-1,22
 310 898 310 898 316 910 c 1,23,24
 198 1044 198 1044 80 1216 c 1,25,-1
 10 1256 l 1,26,-1
 40 1520 l 1,27,28
 52 1512 52 1512 394 1260 c 1,29,30
 430 1222 430 1222 378 1220 c 0,31,32
 374 1220 374 1220 323 1230 c 128,-1,33
 272 1240 272 1240 264 1236 c 1,34,35
 312 1180 312 1180 426 1068 c 1,36,37
 790 1562 790 1562 820 1672 c 1,38,-1
 826 1676 l 1,39,-1
 826 1672 l 1,0,1
170 438 m 0,40,41
 174 376 174 376 257 378 c 128,-1,42
 340 380 340 380 453 441 c 128,-1,43
 566 502 566 502 622 558 c 1,44,45
 590 624 590 624 536 680 c 128,-1,46
 482 736 482 736 388 832 c 1,47,48
 204 590 204 590 178 488 c 0,49,50
 172 460 172 460 170 438 c 0,40,41
EndSplineSet
Substitution2: "'init' Initial Forms in Arabic lookup 2 subtable" HAA_00B
Substitution2: "'medi' Medial Forms in Arabic lookup 1 subtable" HAA_B0B
Substitution2: "'fina' Terminal Forms in Arabic lookup 0 subtable" HAA_B00
EndChar

StartChar: WAW_G
Encoding: 1608 1608 50
Width: 1166
GlyphClass: 2
Flags: W
AnchorPoint: "Anchor-2" -104 -1182 basechar 0
AnchorPoint: "Anchor-1" 584 1370 basechar 0
LayerCount: 2
Fore
SplineSet
748 166 m 1,0,-1
 576 154 l 1,1,2
 344 148 344 148 328 372 c 1,3,-1
 328 400 l 1,4,5
 342 588 342 588 468 700 c 0,6,7
 534 758 534 758 604 756 c 0,8,9
 694 756 694 756 792 666 c 0,10,11
 1026 444 1026 444 1026 114 c 0,12,13
 1026 8 1026 8 988 -106 c 0,14,15
 942 -228 942 -228 700 -444 c 0,16,17
 340 -764 340 -764 60 -848 c 0,18,19
 -28 -874 -28 -874 -126 -874 c 0,20,21
 -444 -874 -444 -874 -574 -632 c 0,22,23
 -650 -490 -650 -490 -649 -279 c 128,-1,24
 -648 -68 -648 -68 -554 166 c 0,25,26
 -546 186 -546 186 -534 210 c 0,27,28
 -518 238 -518 238 -508 228 c 0,29,30
 -506 226 -506 226 -504 216 c 0,31,32
 -504 188 -504 188 -532 96 c 0,33,34
 -568 -24 -568 -24 -574 -126 c 2,35,-1
 -574 -156 l 2,36,37
 -574 -420 -574 -420 -422 -534 c 0,38,39
 -306 -622 -306 -622 -124 -622 c 0,40,41
 222 -622 222 -622 718 -198 c 0,42,43
 884 -56 884 -56 962 60 c 1,44,45
 958 70 958 70 946 84 c 0,46,47
 864 164 864 164 748 166 c 1,0,-1
588 388 m 2,48,-1
 726 392 l 1,49,-1
 752 392 l 1,50,51
 624 502 624 502 558 502 c 2,52,-1
 556 502 l 2,53,54
 486 500 486 500 444 438 c 1,55,56
 480 388 480 388 588 388 c 2,48,-1
EndSplineSet
AlternateSubs2: "'aalt' Access All Alternates lookup 54 subtable" WAW_001
Substitution2: "Single Substitution lookup 43 subtable" WAW_002
Substitution2: "Single Substitution lookup 41 subtable" WAW_001
Substitution2: "Single Substitution lookup 40 subtable" WAW_001
Substitution2: "'ss01' Style Set 1 lookup 10 subtable" WAW_001
Substitution2: "'fina' Terminal Forms in Arabic lookup 0 subtable" WAW_B00
EndChar

StartChar: AMK_G
Encoding: 1609 1609 51
Width: 2510
GlyphClass: 2
Flags: W
AnchorPoint: "Anchor-2" 1054 -538 basechar 0
AnchorPoint: "Anchor-1" 902 1992 basechar 0
LayerCount: 2
Fore
SplineSet
2238 464 m 1,0,1
 2114 340 2114 340 1836 170 c 0,2,3
 1310 -154 1310 -154 912 -154 c 2,4,-1
 888 -154 l 1,5,6
 296 -142 296 -142 184 340 c 0,7,8
 150 486 150 486 150 566 c 0,9,10
 152 868 152 868 280 1148 c 0,11,12
 304 1200 304 1200 324 1200 c 0,13,14
 346 1202 346 1202 326 1156 c 0,15,16
 288 1072 288 1072 258 938 c 128,-1,17
 228 804 228 804 228 714 c 0,18,19
 228 366 228 366 500 194 c 0,20,21
 662 92 662 92 912 92 c 0,22,23
 1022 92 1022 92 1170 124 c 0,24,25
 1726 248 1726 248 2126 580 c 0,26,27
 2200 642 2200 642 2230 680 c 1,28,29
 2186 742 2186 742 1844 782 c 0,30,31
 1592 808 1592 808 1512 916 c 0,32,33
 1474 966 1474 966 1475 1055 c 128,-1,34
 1476 1144 1476 1144 1520 1250 c 0,35,36
 1662 1590 1662 1590 1992 1794 c 0,37,38
 2092 1856 2092 1856 2218 1874 c 1,39,-1
 2222 1874 l 2,40,41
 2336 1874 2336 1874 2346 1688 c 1,42,43
 2342 1544 2342 1544 2316 1532 c 0,44,45
 2312 1530 2312 1530 2268 1572 c 0,46,47
 2226 1614 2226 1614 2146 1618 c 2,48,-1
 2138 1618 l 2,49,50
 2014 1618 2014 1618 1824 1464 c 128,-1,51
 1634 1310 1634 1310 1552 1174 c 1,52,53
 1590 1042 1590 1042 1852 1006 c 0,54,55
 2110 970 2110 970 2118 968 c 0,56,57
 2312 920 2312 920 2326 772 c 0,58,59
 2334 622 2334 622 2238 464 c 1,0,1
EndSplineSet
Substitution2: "'init' Initial Forms in Arabic lookup 2 subtable" AMK_00B
Substitution2: "'medi' Medial Forms in Arabic lookup 1 subtable" AMK_B0B
Substitution2: "'fina' Terminal Forms in Arabic lookup 0 subtable" AMK_B00
EndChar

StartChar: YAA_G
Encoding: 1610 1610 52
Width: 2510
GlyphClass: 2
Flags: W
AnchorPoint: "Anchor-2" 436 -522 basechar 0
AnchorPoint: "Anchor-1" 922 1912 basechar 0
LayerCount: 2
Fore
SplineSet
1128 -604 m 1,0,-1
 1270 -400 l 1,1,-1
 1514 -584 l 1,2,-1
 1372 -790 l 1,3,-1
 1128 -612 l 1,4,-1
 988 -812 l 1,5,-1
 744 -630 l 1,6,-1
 884 -426 l 1,7,-1
 1128 -604 l 1,0,-1
2238 464 m 1,8,9
 2114 340 2114 340 1836 170 c 0,10,11
 1310 -154 1310 -154 912 -154 c 2,12,-1
 888 -154 l 1,13,14
 296 -142 296 -142 184 340 c 0,15,16
 150 486 150 486 150 566 c 0,17,18
 152 868 152 868 280 1148 c 0,19,20
 304 1200 304 1200 324 1200 c 0,21,22
 346 1202 346 1202 326 1156 c 0,23,24
 288 1072 288 1072 258 938 c 128,-1,25
 228 804 228 804 228 714 c 0,26,27
 228 366 228 366 500 194 c 0,28,29
 662 92 662 92 912 92 c 0,30,31
 1022 92 1022 92 1170 124 c 0,32,33
 1726 248 1726 248 2126 580 c 0,34,35
 2200 642 2200 642 2230 680 c 1,36,37
 2186 742 2186 742 1844 782 c 0,38,39
 1592 808 1592 808 1512 916 c 0,40,41
 1474 966 1474 966 1475 1055 c 128,-1,42
 1476 1144 1476 1144 1520 1250 c 0,43,44
 1662 1590 1662 1590 1992 1794 c 0,45,46
 2092 1856 2092 1856 2218 1874 c 1,47,-1
 2222 1874 l 2,48,49
 2336 1874 2336 1874 2346 1688 c 1,50,51
 2342 1544 2342 1544 2316 1532 c 0,52,53
 2312 1530 2312 1530 2268 1572 c 0,54,55
 2226 1614 2226 1614 2146 1618 c 2,56,-1
 2138 1618 l 2,57,58
 2014 1618 2014 1618 1824 1464 c 128,-1,59
 1634 1310 1634 1310 1552 1174 c 1,60,61
 1590 1042 1590 1042 1852 1006 c 0,62,63
 2110 970 2110 970 2118 968 c 0,64,65
 2312 920 2312 920 2326 772 c 0,66,67
 2334 622 2334 622 2238 464 c 1,8,9
EndSplineSet
AlternateSubs2: "'aalt' Access All Alternates lookup 54 subtable" YAA_001
Substitution2: "'ss01' Style Set 1 lookup 10 subtable" YAA_002
Substitution2: "'init' Initial Forms in Arabic lookup 2 subtable" YAA_00B
Substitution2: "'medi' Medial Forms in Arabic lookup 1 subtable" YAA_B0B
Substitution2: "'fina' Terminal Forms in Arabic lookup 0 subtable" YAA_B00
EndChar

StartChar: BAA_00M
Encoding: 59792 59792 53
Width: 706
GlyphClass: 2
Flags: W
AnchorPoint: "Anchor-2" -180 -892 basechar 0
AnchorPoint: "Anchor-1" 112 1576 basechar 0
AnchorPoint: "Cursive-0" -50 -2 exit 0
LayerCount: 2
Fore
SplineSet
324 -522 m 1,0,-1
 80 -334 l 1,1,-1
 222 -132 l 1,2,-1
 470 -312 l 1,3,-1
 324 -522 l 1,0,-1
322 1000 m 1,4,5
 492 816 492 816 486 546 c 0,6,7
 484 450 484 450 464 386 c 0,8,9
 388 160 388 160 0 18 c 1,10,-1
 -50 -2 l 1,11,-1
 -54 -2 l 2,12,13
 -72 4 -72 4 -74 44 c 0,14,15
 -74 190 -74 190 24 240 c 1,16,17
 326 342 326 342 420 472 c 1,18,19
 388 596 388 596 270 740 c 1,20,-1
 322 1000 l 1,4,5
EndSplineSet
EndChar

StartChar: BAA_M00
Encoding: 59793 59793 54
Width: 3178
GlyphClass: 2
Flags: W
AnchorPoint: "Anchor-2" 1784 -1140 basechar 0
AnchorPoint: "Anchor-1" 1592 1540 basechar 0
AnchorPoint: "Cursive-0" 3128 42 entry 0
LayerCount: 2
Fore
SplineSet
1792 -832 m 1,0,-1
 1540 -650 l 1,1,-1
 1686 -446 l 1,2,-1
 1934 -628 l 1,3,-1
 1792 -832 l 1,0,-1
2952 696 m 1,4,-1
 2936 638 l 2,5,6
 2932 616 2932 616 2932 586 c 0,7,8
 2932 340 2932 340 3204 274 c 0,9,10
 3220 270 3220 270 3226 244 c 128,-1,11
 3232 218 3232 218 3230 168 c 128,-1,12
 3228 118 3228 118 3188 82 c 128,-1,13
 3148 46 3148 46 3132 42 c 2,14,-1
 3128 42 l 1,15,16
 2970 92 2970 92 2898 244 c 0,17,18
 2868 308 2868 308 2868 390 c 0,19,20
 2868 412 2868 412 2870 438 c 1,21,22
 1746 -128 1746 -128 1030 -134 c 0,23,24
 568 -138 568 -138 358 120 c 1,25,26
 254 294 254 294 260 456 c 0,27,28
 266 718 266 718 386 940 c 0,29,30
 400 964 400 964 408 962 c 0,31,32
 418 958 418 958 412 946 c 0,33,34
 348 780 348 780 348 638 c 0,35,36
 348 246 348 246 806 140 c 0,37,38
 886 120 886 120 1068 120 c 0,39,40
 1818 118 1818 118 2952 696 c 1,4,-1
EndSplineSet
EndChar

StartChar: BAA_M0B
Encoding: 59794 59794 55
Width: 778
GlyphClass: 2
Flags: W
AnchorPoint: "Anchor-2" 480 -896 basechar 0
AnchorPoint: "Anchor-1" 640 1582 basechar 0
AnchorPoint: "Cursive-0" -54 28 exit 0
AnchorPoint: "Cursive-0" 796 -40 entry 0
LayerCount: 2
Fore
SplineSet
538 536 m 1,0,1
 534 308 534 308 870 194 c 0,2,3
 948 168 948 168 948 78 c 0,4,5
 948 -6 948 -6 872 -36 c 0,6,7
 830 -52 830 -52 796 -40 c 0,8,9
 512 46 512 46 480 322 c 1,10,11
 480 322 480 322 476 348 c 1,12,13
 464 344 464 344 424 296 c 0,14,15
 196 28 196 28 -54 28 c 1,16,17
 -108 40 -108 40 -110 94 c 0,18,19
 -112 192 -112 192 -34 246 c 0,20,21
 -8 264 -8 264 20 264 c 0,22,23
 230 266 230 266 430 488 c 0,24,25
 518 586 518 586 540 600 c 1,26,-1
 544 598 l 2,27,28
 550 590 550 590 538 536 c 1,0,1
528 -674 m 1,29,-1
 286 -492 l 1,30,-1
 422 -286 l 1,31,-1
 670 -468 l 1,32,-1
 528 -674 l 1,29,-1
EndSplineSet
EndChar

StartChar: BAA_B0M
Encoding: 59795 59795 56
Width: 638
GlyphClass: 2
Flags: W
AnchorPoint: "Anchor-2" -114 -982 basechar 0
AnchorPoint: "Anchor-1" 30 1338 basechar 0
AnchorPoint: "Cursive-0" -142 94 exit 0
AnchorPoint: "Cursive-0" 652 6 entry 0
LayerCount: 2
Fore
SplineSet
492 618 m 0,0,1
 480 560 480 560 480 510 c 0,2,3
 480 256 480 256 678 246 c 0,4,5
 722 244 722 244 728 244 c 0,6,7
 740 240 740 240 740 158 c 0,8,9
 742 90 742 90 684 22 c 0,10,11
 668 4 668 4 652 6 c 0,12,13
 492 12 492 12 428 142 c 0,14,15
 394 212 394 212 394 273 c 128,-1,16
 394 334 394 334 402 372 c 1,17,18
 304 288 304 288 -78 122 c 0,19,20
 -112 106 -112 106 -142 94 c 1,21,-1
 -146 94 l 2,22,23
 -178 100 -178 100 -180 150 c 0,24,25
 -180 282 -180 282 -68 336 c 1,26,27
 238 450 238 450 454 600 c 0,28,29
 494 628 494 628 492 618 c 0,0,1
-124 -704 m 1,30,-1
 -366 -518 l 1,31,-1
 -228 -318 l 1,32,-1
 20 -496 l 1,33,-1
 -124 -704 l 1,30,-1
EndSplineSet
EndChar

StartChar: BAA_M0M
Encoding: 59796 59796 57
Width: 708
GlyphClass: 2
Flags: W
AnchorPoint: "Anchor-2" 412 -1024 basechar 0
AnchorPoint: "Anchor-1" 228 1564 basechar 0
AnchorPoint: "Cursive-0" 12 34 exit 0
AnchorPoint: "Cursive-0" 632 28 entry 0
LayerCount: 2
Fore
SplineSet
472 -700 m 1,0,-1
 228 -520 l 1,1,-1
 368 -314 l 1,2,-1
 616 -498 l 1,3,-1
 472 -700 l 1,0,-1
490 522 m 2,4,-1
 490 502 l 2,5,6
 490 324 490 324 708 260 c 0,7,8
 740 250 740 250 740 178 c 0,9,10
 740 100 740 100 676 48 c 0,11,12
 654 30 654 30 640 28 c 2,13,-1
 632 28 l 1,14,15
 470 76 470 76 434 262 c 0,16,17
 422 318 422 318 428 364 c 1,18,19
 312 170 312 170 12 34 c 1,20,-1
 8 34 l 2,21,22
 -12 40 -12 40 -10 112 c 0,23,24
 -10 192 -10 192 54 252 c 0,25,26
 78 272 78 272 88 276 c 0,27,28
 392 390 392 390 484 568 c 0,29,30
 490 580 490 580 498 562 c 1,31,32
 490 534 490 534 490 522 c 2,4,-1
EndSplineSet
EndChar

StartChar: JIM_00W
Encoding: 59797 59797 58
Width: 2074
GlyphClass: 2
Flags: W
AnchorPoint: "Anchor-2" 732 -912 basechar 0
AnchorPoint: "Anchor-1" 790 1972 basechar 0
AnchorPoint: "Cursive-0" -122 -48 exit 0
LayerCount: 2
Fore
SplineSet
718 -580 m 1,0,-1
 472 -398 l 1,1,-1
 614 -196 l 1,2,-1
 860 -380 l 1,3,-1
 718 -580 l 1,0,-1
184 686 m 2,4,-1
 -232 716 l 2,5,6
 -246 716 -246 716 -271 714 c 128,-1,7
 -296 712 -296 712 -306 712 c 1,8,9
 -302 720 -302 720 -267 826 c 128,-1,10
 -232 932 -232 932 -212 952 c 1,11,12
 -110 994 -110 994 8 994 c 0,13,14
 10 994 10 994 14 994 c 0,15,16
 134 992 134 992 506 872 c 0,17,18
 1098 676 1098 676 1876 622 c 1,19,-1
 1758 388 l 1,20,-1
 1442 416 l 1,21,-1
 1416 416 l 2,22,23
 1106 414 1106 414 680 232 c 0,24,25
 102 -16 102 -16 -122 -48 c 1,26,-1
 -126 -48 l 1,27,28
 -146 -40 -146 -40 -146 32 c 0,29,30
 -146 100 -146 100 -82 172 c 0,31,32
 -60 192 -60 192 -44 196 c 0,33,34
 212 252 212 252 708 454 c 0,35,36
 800 490 800 490 856 512 c 1,37,38
 720 544 720 544 497 619 c 128,-1,39
 274 694 274 694 248 704 c 1,40,41
 236 686 236 686 184 686 c 2,4,-1
EndSplineSet
EndChar

StartChar: JIM_M00
Encoding: 59798 59798 59
Width: 1716
GlyphClass: 2
Flags: W
AnchorPoint: "Anchor-2" 468 -1456 basechar 0
AnchorPoint: "Anchor-1" 858 2366 basechar 0
AnchorPoint: "Cursive-0" 1830 48 entry 0
LayerCount: 2
Fore
SplineSet
1396 -370 m 1,0,-1
 1148 -188 l 1,1,-1
 1290 18 l 1,2,-1
 1538 -166 l 1,3,-1
 1396 -370 l 1,0,-1
1414 952 m 1,4,5
 526 628 526 628 390 -62 c 0,6,7
 386 -82 386 -82 386 -182 c 0,8,9
 388 -596 388 -596 636 -840 c 1,10,11
 996 -1164 996 -1164 1980 -1162 c 0,12,13
 2304 -1162 2304 -1162 2906 -1114 c 1,14,15
 2766 -1168 2766 -1168 2560 -1251 c 128,-1,16
 2354 -1334 2354 -1334 2232 -1375 c 128,-1,17
 2110 -1416 2110 -1416 1816 -1416 c 0,18,19
 968 -1416 968 -1416 626 -1122 c 0,20,21
 422 -948 422 -948 344 -592 c 0,22,23
 322 -496 322 -496 322 -356 c 0,24,25
 322 2 322 2 476 330 c 1,26,27
 736 842 736 842 1376 1118 c 1,28,-1
 764 1158 l 1,29,-1
 750 1132 l 2,30,31
 736 1106 736 1106 534 1104 c 0,32,33
 328 1102 328 1102 240 1088 c 1,34,-1
 334 1334 l 1,35,-1
 338 1334 l 1,36,37
 582 1412 582 1412 772 1412 c 0,38,39
 806 1412 806 1412 1177 1380 c 128,-1,40
 1548 1348 1548 1348 1805 1348 c 128,-1,41
 2062 1348 2062 1348 2174 1350 c 1,42,-1
 2044 1098 l 1,43,-1
 2040 1098 l 1,44,45
 1966 1078 1966 1078 1792 1055 c 128,-1,46
 1618 1032 1618 1032 1452 964 c 1,47,-1
 1452 914 l 2,48,49
 1458 414 1458 414 1904 282 c 0,50,51
 1942 270 1942 270 1942 192 c 0,52,53
 1942 112 1942 112 1876 64 c 0,54,55
 1852 48 1852 48 1836 48 c 2,56,-1
 1830 48 l 1,57,58
 1574 138 1574 138 1452 358 c 0,59,60
 1322 588 1322 588 1414 952 c 1,4,5
EndSplineSet
EndChar

StartChar: JIM_B0W
Encoding: 59799 59799 60
Width: 1776
GlyphClass: 2
Flags: W
AnchorPoint: "Anchor-2" 952 -766 basechar 0
AnchorPoint: "Anchor-1" 834 1916 basechar 0
AnchorPoint: "Cursive-0" -110 68 exit 0
AnchorPoint: "Cursive-0" 1802 -6 entry 0
LayerCount: 2
Fore
SplineSet
198 800 m 2,0,-1
 -220 826 l 1,1,2
 -220 826 -220 826 -258 824 c 0,3,4
 -282 822 -282 822 -294 822 c 1,5,6
 -250 930 -250 930 -192 1064 c 1,7,8
 -112 1102 -112 1102 2 1102 c 0,9,10
 126 1102 126 1102 314 1048 c 0,11,12
 328 1044 328 1044 353 1034 c 128,-1,13
 378 1024 378 1024 390 1020 c 0,14,15
 1096 784 1096 784 1892 732 c 1,16,-1
 1774 500 l 1,17,18
 1724 502 1724 502 1502 522 c 1,19,-1
 1502 492 l 2,20,21
 1502 254 1502 254 1878 232 c 0,22,23
 1906 230 1906 230 1906 138 c 0,24,25
 1906 48 1906 48 1838 8 c 0,26,27
 1818 -4 1818 -4 1802 -6 c 2,28,-1
 1798 -6 l 1,29,30
 1508 12 1508 12 1436 256 c 0,31,32
 1428 288 1428 288 1426 310 c 2,33,-1
 1422 358 l 2,34,35
 1422 402 1422 402 1444 526 c 1,36,-1
 1432 526 l 2,37,38
 1128 524 1128 524 634 313 c 128,-1,39
 140 102 140 102 -110 68 c 1,40,-1
 -114 68 l 1,41,42
 -150 76 -150 76 -152 124 c 0,43,44
 -152 234 -152 234 -78 286 c 0,45,46
 -54 304 -54 304 -32 310 c 0,47,48
 190 360 190 360 720 566 c 0,49,50
 812 602 812 602 870 622 c 1,51,52
 732 654 732 654 511 730 c 128,-1,53
 290 806 290 806 264 814 c 1,54,-1
 260 814 l 1,55,56
 250 800 250 800 198 800 c 2,0,-1
940 -436 m 1,57,-1
 696 -252 l 1,58,-1
 838 -46 l 1,59,-1
 1086 -228 l 1,60,-1
 940 -436 l 1,57,-1
EndSplineSet
EndChar

StartChar: JIM_M0B
Encoding: 59800 59800 61
Width: 1850
GlyphClass: 2
Flags: W
AnchorPoint: "Anchor-2" 1162 -766 basechar 0
AnchorPoint: "Anchor-1" 1010 1966 basechar 0
AnchorPoint: "Cursive-0" -8 64 exit 0
AnchorPoint: "Cursive-0" 1844 -46 entry 0
LayerCount: 2
Fore
SplineSet
1150 -436 m 1,0,-1
 902 -252 l 1,1,-1
 1044 -46 l 1,2,-1
 1292 -228 l 1,3,-1
 1150 -436 l 1,0,-1
346 770 m 2,4,-1
 144 774 l 2,5,6
 32 774 32 774 -58 762 c 1,7,8
 -54 772 -54 772 28 1020 c 1,9,10
 168 1086 168 1086 267 1086 c 128,-1,11
 366 1086 366 1086 670 1004 c 0,12,13
 1256 846 1256 846 2012 834 c 1,14,-1
 1918 608 l 1,15,16
 1824 612 1824 612 1718 610 c 0,17,18
 1696 610 1696 610 1674 612 c 0,19,20
 1588 612 1588 612 1502 600 c 1,21,22
 1506 306 1506 306 1918 188 c 0,23,24
 1960 168 1960 168 1960 88 c 0,25,26
 1962 14 1962 14 1888 -34 c 0,27,28
 1860 -52 1860 -52 1844 -46 c 0,29,30
 1458 86 1458 86 1454 468 c 2,31,-1
 1454 502 l 2,32,33
 1454 546 1454 546 1466 596 c 1,34,35
 1234 552 1234 552 803 332 c 128,-1,36
 372 112 372 112 132 76 c 0,37,38
 54 64 54 64 -8 64 c 1,39,40
 -26 72 -26 72 -27 124 c 128,-1,41
 -28 176 -28 176 12 239 c 128,-1,42
 52 302 52 302 66 302 c 0,43,44
 342 324 342 324 676 480 c 2,45,-1
 1074 670 l 1,46,47
 876 698 876 698 500 806 c 1,48,-1
 496 796 l 2,49,50
 480 770 480 770 346 770 c 2,4,-1
EndSplineSet
EndChar

StartChar: JIM_M0W
Encoding: 59801 59801 62
Width: 1698
GlyphClass: 2
Flags: W
AnchorPoint: "Anchor-2" 936 -470 basechar 0
AnchorPoint: "Anchor-1" 850 2084 basechar 0
AnchorPoint: "Cursive-0" -112 96 exit 0
AnchorPoint: "Cursive-0" 1680 -48 entry 0
LayerCount: 2
Fore
SplineSet
944 -272 m 1,0,-1
 700 -90 l 1,1,-1
 840 116 l 1,2,-1
 1084 -66 l 1,3,-1
 944 -272 l 1,0,-1
224 838 m 2,4,-1
 -196 866 l 1,5,6
 -196 866 -196 866 -234 864 c 0,7,8
 -258 862 -258 862 -270 862 c 1,9,10
 -208 1038 -208 1038 -166 1104 c 1,11,12
 -52 1152 -52 1152 36 1151 c 128,-1,13
 124 1150 124 1150 270 1111 c 128,-1,14
 416 1072 416 1072 426 1068 c 0,15,16
 1184 816 1184 816 1916 768 c 1,17,-1
 1796 532 l 1,18,-1
 1488 564 l 2,19,20
 1418 566 1418 566 1350 568 c 1,21,-1
 1350 560 l 2,22,23
 1350 314 1350 314 1654 214 c 0,24,25
 1706 196 1706 196 1756 186 c 1,26,27
 1790 168 1790 168 1790 86 c 128,-1,28
 1790 4 1790 4 1720 -36 c 0,29,30
 1696 -52 1696 -52 1680 -48 c 0,31,32
 1346 50 1346 50 1308 354 c 0,33,34
 1290 492 1290 492 1308 564 c 1,35,36
 1034 518 1034 518 716 382 c 0,37,38
 116 126 116 126 -112 96 c 1,39,-1
 -116 96 l 1,40,41
 -132 104 -132 104 -132 166 c 0,42,43
 -132 222 -132 222 -92 278 c 0,44,45
 -48 338 -48 338 -38 342 c 0,46,47
 252 412 252 412 764 612 c 0,48,49
 846 644 846 644 898 664 c 1,50,51
 762 696 762 696 538 771 c 128,-1,52
 314 846 314 846 288 854 c 1,53,54
 276 838 276 838 224 838 c 2,4,-1
EndSplineSet
EndChar

StartChar: SIN_00M
Encoding: 59802 59802 63
Width: 1674
GlyphClass: 2
Flags: W
AnchorPoint: "Anchor-2" 280 -268 basechar 0
AnchorPoint: "Anchor-1" 686 1494 basechar 0
AnchorPoint: "Cursive-0" -66 34 exit 0
LayerCount: 2
Fore
SplineSet
996 -308 m 0,0,1
 938 -310 938 -310 932 -222 c 1,2,-1
 896 -272 l 2,3,4
 852 -326 852 -326 824 -332 c 0,5,6
 796 -336 796 -336 756 -312 c 0,7,8
 736 -300 736 -300 712 -302 c 0,9,10
 648 -304 648 -304 564 -394 c 0,11,12
 378 -596 378 -596 118 -634 c 1,13,14
 346 -542 346 -542 464 -444 c 0,15,16
 542 -378 542 -378 622 -294 c 0,17,18
 726 -186 726 -186 784 -224 c 0,19,20
 828 -252 828 -252 858 -242 c 128,-1,21
 888 -232 888 -232 936 -176 c 0,22,23
 972 -136 972 -136 984 -136 c 1,24,25
 982 -144 982 -144 970 -164 c 1,26,27
 980 -228 980 -228 1040 -220 c 0,28,29
 1060 -218 1060 -218 1088 -206 c 1,30,31
 1088 -188 1088 -188 1080 -172 c 1,32,-1
 1112 -76 l 1,33,34
 1132 -116 1132 -116 1124 -170 c 0,35,36
 1088 -304 1088 -304 996 -308 c 0,0,1
1544 354 m 0,37,38
 1506 196 1506 196 1388 124 c 0,39,40
 1328 88 1328 88 1258 86 c 0,41,42
 1110 86 1110 86 1060 202 c 0,43,44
 1040 248 1040 248 1036 296 c 2,45,-1
 1036 324 l 1,46,47
 1020 308 1020 308 980 248 c 0,48,49
 832 30 832 30 664 8 c 0,50,51
 492 -16 492 -16 442 132 c 0,52,53
 420 198 420 198 430 286 c 1,54,55
 416 266 416 266 0 60 c 0,56,57
 -32 44 -32 44 -66 34 c 1,58,-1
 -70 34 l 1,59,60
 -94 42 -94 42 -96 74 c 0,61,62
 -98 182 -98 182 -26 248 c 0,63,64
 -2 270 -2 270 10 274 c 0,65,66
 446 466 446 466 540 550 c 0,67,68
 544 554 544 554 552 554 c 0,69,70
 556 554 556 554 552 544 c 2,71,-1
 552 540 l 1,72,-1
 560 554 l 1,73,74
 510 454 510 454 510 386 c 1,75,76
 538 254 538 254 680 238 c 1,77,78
 760 240 760 240 840 288 c 0,79,80
 906 326 906 326 1062 520 c 0,81,82
 1120 592 1120 592 1134 576 c 1,83,84
 1128 562 1128 562 1116 522 c 1,85,-1
 1116 510 l 2,86,87
 1122 342 1122 342 1260 328 c 1,88,-1
 1280 328 l 2,89,90
 1394 330 1394 330 1490 402 c 1,91,92
 1472 468 1472 468 1396 550 c 1,93,-1
 1456 802 l 1,94,95
 1560 684 1560 684 1564 510 c 0,96,97
 1560 422 1560 422 1544 354 c 0,37,38
EndSplineSet
AlternateSubs2: "'swsh' Swash in Arabic lookup 9 subtable" SIN_10M
EndChar

StartChar: SIN_M00
Encoding: 59803 59803 64
Width: 3594
GlyphClass: 2
Flags: W
AnchorPoint: "Anchor-2" 2210 -1138 basechar 0
AnchorPoint: "Anchor-1" 2162 1652 basechar 0
AnchorPoint: "Cursive-0" 3522 30 entry 0
LayerCount: 2
Fore
SplineSet
3176 -468 m 0,0,1
 3118 -470 3118 -470 3112 -382 c 1,2,-1
 3076 -432 l 2,3,4
 3032 -486 3032 -486 3004 -492 c 0,5,6
 2976 -496 2976 -496 2936 -472 c 0,7,8
 2916 -460 2916 -460 2892 -462 c 0,9,10
 2828 -464 2828 -464 2744 -554 c 0,11,12
 2558 -756 2558 -756 2298 -794 c 1,13,14
 2526 -702 2526 -702 2644 -604 c 0,15,16
 2722 -538 2722 -538 2802 -454 c 0,17,18
 2906 -346 2906 -346 2964 -384 c 0,19,20
 3008 -412 3008 -412 3038 -402 c 128,-1,21
 3068 -392 3068 -392 3116 -336 c 0,22,23
 3152 -296 3152 -296 3164 -296 c 1,24,25
 3162 -304 3162 -304 3150 -324 c 1,26,27
 3160 -388 3160 -388 3220 -380 c 0,28,29
 3240 -378 3240 -378 3268 -366 c 1,30,31
 3268 -348 3268 -348 3260 -332 c 1,32,-1
 3292 -236 l 1,33,34
 3312 -276 3312 -276 3304 -330 c 0,35,36
 3268 -464 3268 -464 3176 -468 c 0,0,1
3220 402 m 1,37,38
 3134 156 3134 156 2948 158 c 0,39,40
 2792 158 2792 158 2754 292 c 0,41,42
 2744 326 2744 326 2744 364 c 2,43,-1
 2744 392 l 1,44,45
 2726 376 2726 376 2650 268 c 128,-1,46
 2574 160 2574 160 2509 124 c 128,-1,47
 2444 88 2444 88 2362 88 c 1,48,49
 2378 2 2378 2 2378 -102 c 2,50,-1
 2378 -162 l 1,51,52
 2366 -356 2366 -356 2318 -438 c 1,53,-1
 2114 -614 l 1,54,55
 1482 -1108 1482 -1108 998 -1112 c 2,56,-1
 978 -1112 l 1,57,58
 414 -1100 414 -1100 304 -616 c 0,59,60
 278 -496 278 -496 278 -388 c 0,61,62
 280 -78 280 -78 404 198 c 0,63,64
 428 250 428 250 446 248 c 0,65,66
 470 248 470 248 452 206 c 0,67,68
 410 110 410 110 384 -14 c 0,69,70
 354 -152 354 -152 352 -244 c 0,71,72
 352 -594 352 -594 622 -756 c 0,73,74
 786 -854 786 -854 962 -855 c 128,-1,75
 1138 -856 1138 -856 1260 -826 c 0,76,77
 1840 -688 1840 -688 2274 -268 c 1,78,-1
 2314 -228 l 1,79,80
 2260 114 2260 114 2100 324 c 1,81,-1
 2170 586 l 1,82,83
 2196 538 2196 538 2244 430 c 128,-1,84
 2292 322 2292 322 2398 322 c 0,85,86
 2566 322 2566 322 2720 524 c 0,87,88
 2816 652 2816 652 2836 652 c 2,89,-1
 2838 652 l 1,90,-1
 2842 648 l 1,91,92
 2840 636 2840 636 2818 586 c 1,93,94
 2794 400 2794 400 2972 396 c 0,95,96
 3108 390 3108 390 3178 504 c 0,97,98
 3204 548 3204 548 3220 625 c 128,-1,99
 3236 702 3236 702 3270 730 c 1,100,101
 3270 724 3270 724 3268 644 c 2,102,-1
 3268 632 l 2,103,104
 3272 362 3272 362 3598 264 c 0,105,106
 3622 256 3622 256 3622 184 c 0,107,108
 3622 114 3622 114 3583 72 c 128,-1,109
 3544 30 3544 30 3526 30 c 2,110,-1
 3522 30 l 1,111,112
 3260 110 3260 110 3220 402 c 1,37,38
EndSplineSet
EndChar

StartChar: SIN_B0M
Encoding: 59804 59804 65
Width: 1734
GlyphClass: 2
Flags: W
AnchorPoint: "Anchor-2" 960 -244 basechar 0
AnchorPoint: "Anchor-1" 676 1596 basechar 0
AnchorPoint: "Cursive-0" -70 44 exit 0
AnchorPoint: "Cursive-0" 1746 86 entry 0
LayerCount: 2
Fore
SplineSet
514 422 m 0,0,1
 514 236 514 236 710 238 c 0,2,3
 860 240 860 240 1064 512 c 0,4,5
 1108 570 1108 570 1124 574 c 0,6,7
 1138 576 1138 576 1136 570 c 0,8,9
 1114 522 1114 522 1112 492 c 0,10,11
 1106 316 1106 316 1266 312 c 0,12,13
 1404 308 1404 308 1472 422 c 0,14,15
 1498 466 1498 466 1508 510 c 0,16,17
 1528 606 1528 606 1568 648 c 1,18,19
 1564 614 1564 614 1566 562 c 0,20,21
 1566 340 1566 340 1820 324 c 0,22,23
 1838 316 1838 316 1840 236 c 0,24,25
 1842 168 1842 168 1778 104 c 0,26,27
 1760 86 1760 86 1746 86 c 0,28,29
 1530 98 1530 98 1516 322 c 1,30,31
 1416 74 1416 74 1254 72 c 0,32,33
 1096 70 1096 70 1056 208 c 0,34,35
 1046 242 1046 242 1046 316 c 1,36,37
 1034 304 1034 304 990 236 c 0,38,39
 870 60 870 60 750 24 c 0,40,41
 712 12 712 12 664 12 c 0,42,43
 496 12 496 12 444 152 c 0,44,45
 416 228 416 228 432 306 c 1,46,47
 358 226 358 226 -70 44 c 1,48,-1
 -74 44 l 1,49,50
 -96 52 -96 52 -98 86 c 0,51,52
 -98 200 -98 200 -28 262 c 0,53,54
 -10 278 -10 278 4 284 c 0,55,56
 350 424 350 424 500 540 c 0,57,58
 546 576 546 576 554 576 c 2,59,-1
 556 574 l 1,60,-1
 554 570 l 1,61,-1
 558 574 l 1,62,-1
 554 566 l 1,63,-1
 554 570 l 1,64,65
 514 484 514 484 514 422 c 0,0,1
558 574 m 1,66,-1
 558 576 l 1,67,-1
 558 574 l 1,66,-1
EndSplineSet
EndChar

StartChar: SIN_M0B
Encoding: 59805 59805 66
Width: 1982
GlyphClass: 2
Flags: W
AnchorPoint: "Anchor-2" 1060 -382 basechar 0
AnchorPoint: "Anchor-1" 1212 1860 basechar 0
AnchorPoint: "Cursive-0" -52 42 exit 0
AnchorPoint: "Cursive-0" 1902 64 entry 0
LayerCount: 2
Fore
SplineSet
1604 408 m 1,0,1
 1518 162 1518 162 1332 164 c 0,2,3
 1174 164 1174 164 1136 296 c 0,4,5
 1126 330 1126 330 1128 370 c 2,6,-1
 1128 398 l 1,7,8
 1112 382 1112 382 1068 320 c 0,9,10
 928 130 928 130 844 108 c 0,11,12
 800 96 800 96 766 98 c 0,13,14
 612 98 612 98 564 240 c 0,15,16
 548 286 548 286 549 328 c 128,-1,17
 550 370 550 370 560 412 c 1,18,19
 540 408 540 408 416 284 c 0,20,21
 172 42 172 42 -52 42 c 0,22,23
 -74 48 -74 48 -74 128 c 0,24,25
 -74 200 -74 200 -34 240 c 128,-1,26
 6 280 6 280 24 280 c 0,27,28
 276 296 276 296 540 570 c 0,29,30
 620 654 620 654 644 654 c 1,31,-1
 648 650 l 2,32,33
 646 642 646 642 634 590 c 0,34,35
 620 536 620 536 620 514 c 0,36,37
 620 342 620 342 758 328 c 0,38,39
 776 326 776 326 794 324 c 0,40,41
 860 324 860 324 926 364 c 0,42,43
 988 398 988 398 1152 598 c 0,44,45
 1212 670 1212 670 1226 654 c 1,46,47
 1202 602 1202 602 1202 576 c 0,48,49
 1208 402 1208 402 1356 402 c 0,50,51
 1496 402 1496 402 1562 510 c 0,52,53
 1588 554 1588 554 1603 630 c 128,-1,54
 1618 706 1618 706 1656 736 c 1,55,56
 1656 728 1656 728 1652 658 c 2,57,-1
 1652 642 l 2,58,59
 1652 386 1652 386 1978 296 c 0,60,61
 1998 290 1998 290 1998 202 c 0,62,63
 2000 128 2000 128 1940 76 c 0,64,65
 1926 64 1926 64 1906 64 c 2,66,-1
 1902 64 l 1,67,68
 1630 158 1630 158 1604 408 c 1,0,1
EndSplineSet
EndChar

StartChar: SIN_M0M
Encoding: 59806 59806 67
Width: 1882
GlyphClass: 2
Flags: W
AnchorPoint: "Anchor-2" 322 -104 basechar 0
AnchorPoint: "Anchor-1" 668 1732 basechar 0
AnchorPoint: "Cursive-0" -70 150 exit 0
AnchorPoint: "Cursive-0" 1802 54 entry 0
LayerCount: 2
Fore
SplineSet
1356 -188 m 0,0,1
 1298 -190 1298 -190 1292 -102 c 1,2,-1
 1256 -152 l 2,3,4
 1212 -206 1212 -206 1184 -212 c 0,5,6
 1156 -216 1156 -216 1116 -192 c 0,7,8
 1096 -180 1096 -180 1072 -182 c 0,9,10
 1008 -184 1008 -184 924 -274 c 0,11,12
 738 -476 738 -476 478 -514 c 1,13,14
 706 -422 706 -422 824 -324 c 0,15,16
 902 -258 902 -258 982 -174 c 0,17,18
 1086 -66 1086 -66 1144 -104 c 0,19,20
 1188 -132 1188 -132 1218 -122 c 128,-1,21
 1248 -112 1248 -112 1296 -56 c 0,22,23
 1332 -16 1332 -16 1344 -16 c 1,24,25
 1342 -24 1342 -24 1330 -44 c 1,26,27
 1340 -108 1340 -108 1400 -100 c 0,28,29
 1420 -98 1420 -98 1448 -86 c 1,30,31
 1448 -68 1448 -68 1440 -52 c 1,32,-1
 1472 44 l 1,33,34
 1492 4 1492 4 1484 -50 c 0,35,36
 1448 -184 1448 -184 1356 -188 c 0,0,1
-70 150 m 1,37,-1
 -98 146 l 1,38,39
 -140 152 -140 152 -142 188 c 0,40,41
 -146 266 -146 266 -54 352 c 0,42,43
 -20 384 -20 384 4 392 c 0,44,45
 360 522 360 522 496 622 c 1,46,-1
 512 626 l 1,47,48
 500 570 500 570 500 528 c 0,49,50
 500 362 500 362 638 332 c 0,51,52
 656 328 656 328 676 328 c 0,53,54
 740 328 740 328 808 368 c 0,55,56
 904 422 904 422 1032 602 c 0,57,58
 1078 666 1078 666 1094 662 c 0,59,60
 1106 660 1106 660 1106 658 c 2,61,-1
 1086 588 l 1,62,-1
 1086 572 l 1,63,64
 1108 412 1108 412 1236 398 c 1,65,66
 1376 398 1376 398 1440 504 c 0,67,68
 1468 550 1468 550 1484 628 c 128,-1,69
 1500 706 1500 706 1534 736 c 1,70,-1
 1534 626 l 2,71,72
 1534 402 1534 402 1878 288 c 0,73,74
 1914 276 1914 276 1914 198 c 0,75,76
 1914 116 1914 116 1846 72 c 0,77,78
 1822 56 1822 56 1806 54 c 2,79,-1
 1802 54 l 1,80,81
 1530 152 1530 152 1484 414 c 1,82,83
 1396 166 1396 166 1230 164 c 0,84,85
 1062 164 1062 164 1022 298 c 0,86,87
 1012 332 1012 332 1012 370 c 2,88,-1
 1012 406 l 1,89,90
 994 390 994 390 948 326 c 0,91,92
 814 134 814 134 728 110 c 0,93,94
 688 98 688 98 640 98 c 0,95,96
 480 98 480 98 430 234 c 0,97,98
 414 278 414 278 414 320 c 0,99,100
 414 346 414 346 422 390 c 1,101,102
 246 252 246 252 -70 150 c 1,37,-1
EndSplineSet
EndChar

StartChar: SAD_00M
Encoding: 59807 59807 68
Width: 1996
GlyphClass: 2
Flags: W
AnchorPoint: "Anchor-2" 358 -354 basechar 0
AnchorPoint: "Anchor-1" 874 1610 basechar 0
AnchorPoint: "Cursive-0" -72 12 exit 0
LayerCount: 2
Fore
SplineSet
1006 -426 m 1,0,1
 1118 -246 1118 -246 1220 -230 c 1,2,-1
 1224 -230 l 2,3,4
 1290 -236 1290 -236 1281 -315 c 128,-1,5
 1272 -394 1272 -394 1218 -450 c 0,6,7
 1142 -528 1142 -528 1054 -532 c 0,8,9
 1026 -534 1026 -534 980 -514 c 1,10,11
 956 -558 956 -558 952 -562 c 0,12,13
 936 -592 936 -592 934 -592 c 1,14,-1
 934 -580 l 1,15,16
 934 -580 934 -580 966 -506 c 1,17,18
 938 -494 938 -494 920 -494 c 0,19,20
 846 -504 846 -504 772 -588 c 0,21,22
 620 -766 620 -766 402 -792 c 1,23,24
 590 -732 590 -732 710 -612 c 0,25,26
 716 -606 716 -606 830 -488 c 0,27,28
 926 -388 926 -388 1006 -426 c 1,0,1
1254 -360 m 1,29,30
 1240 -322 1240 -322 1175 -321 c 128,-1,31
 1110 -320 1110 -320 1022 -436 c 1,32,33
 1064 -460 1064 -460 1092 -454 c 0,34,35
 1196 -438 1196 -438 1254 -360 c 1,29,30
1846 756 m 0,36,37
 1924 652 1924 652 1924 554 c 128,-1,38
 1924 456 1924 456 1894 356 c 0,39,40
 1828 150 1828 150 1482 18 c 0,41,42
 1238 -76 1238 -76 994 -76 c 0,43,44
 992 -76 992 -76 988 -76 c 0,45,46
 740 -74 740 -74 606 22 c 1,47,-1
 532 -134 l 2,48,49
 504 -186 504 -186 498 -134 c 2,50,-1
 498 -116 l 2,51,52
 500 -108 500 -108 562 44 c 1,53,54
 434 170 434 170 434 326 c 1,55,56
 256 140 256 140 -72 12 c 1,57,-1
 -76 12 l 1,58,59
 -98 22 -98 22 -98 54 c 0,60,61
 -100 172 -100 172 -30 232 c 0,62,63
 -12 248 -12 248 2 254 c 0,64,65
 244 348 244 348 430 498 c 0,66,67
 500 554 500 554 516 556 c 0,68,69
 522 556 522 556 513 533 c 128,-1,70
 504 510 504 510 504 456 c 0,71,72
 504 396 504 396 516 370 c 0,73,74
 544 294 544 294 646 232 c 1,75,76
 892 698 892 698 1192 920 c 0,77,78
 1312 1008 1312 1008 1428 1010 c 0,79,80
 1654 1008 1654 1008 1846 756 c 0,36,37
1834 448 m 1,81,82
 1626 760 1626 760 1376 760 c 0,83,84
 1056 756 1056 756 708 200 c 1,85,86
 820 148 820 148 944 149 c 128,-1,87
 1068 150 1068 150 1188 170 c 0,88,89
 1666 254 1666 254 1834 448 c 1,81,82
EndSplineSet
EndChar

StartChar: SAD_M00
Encoding: 59808 59808 69
Width: 2908
GlyphClass: 2
Flags: W
AnchorPoint: "Anchor-2" 1828 -1090 basechar 0
AnchorPoint: "Anchor-1" 2062 2234 basechar 0
AnchorPoint: "Cursive-0" 3036 148 entry 0
LayerCount: 2
Fore
SplineSet
2686 -466 m 1,0,1
 2798 -286 2798 -286 2900 -270 c 1,2,-1
 2904 -270 l 2,3,4
 2970 -276 2970 -276 2961 -355 c 128,-1,5
 2952 -434 2952 -434 2898 -490 c 0,6,7
 2822 -568 2822 -568 2734 -572 c 0,8,9
 2706 -574 2706 -574 2660 -554 c 1,10,11
 2636 -598 2636 -598 2632 -602 c 0,12,13
 2616 -632 2616 -632 2614 -632 c 1,14,-1
 2614 -620 l 1,15,16
 2614 -620 2614 -620 2646 -546 c 1,17,18
 2618 -534 2618 -534 2600 -534 c 0,19,20
 2526 -544 2526 -544 2452 -628 c 0,21,22
 2300 -806 2300 -806 2082 -832 c 1,23,24
 2270 -772 2270 -772 2390 -652 c 0,25,26
 2396 -646 2396 -646 2510 -528 c 0,27,28
 2606 -428 2606 -428 2686 -466 c 1,0,1
2934 -400 m 1,29,30
 2920 -362 2920 -362 2855 -361 c 128,-1,31
 2790 -360 2790 -360 2702 -476 c 1,32,33
 2744 -500 2744 -500 2772 -494 c 0,34,35
 2876 -478 2876 -478 2934 -400 c 1,29,30
3630 1070 m 0,36,37
 3702 974 3702 974 3704 906 c 0,38,39
 3704 782 3704 782 3666 682 c 0,40,41
 3576 442 3576 442 3192 326 c 0,42,43
 3182 324 3182 324 3094 298 c 1,44,45
 3092 268 3092 268 3090 240 c 0,46,47
 3090 152 3090 152 3040 148 c 2,48,-1
 3036 148 l 1,49,50
 2790 210 2790 210 2645 221 c 128,-1,51
 2500 232 2500 232 2364 274 c 1,52,53
 2380 182 2380 182 2380 72 c 2,54,-1
 2380 14 l 1,55,56
 2358 -194 2358 -194 2320 -258 c 1,57,-1
 2116 -432 l 1,58,59
 1486 -924 1486 -924 1004 -928 c 2,60,-1
 984 -928 l 1,61,62
 408 -916 408 -916 306 -426 c 0,63,64
 282 -314 282 -314 284 -212 c 0,65,66
 286 86 286 86 414 376 c 0,67,68
 438 428 438 428 456 428 c 0,69,70
 480 428 480 428 462 384 c 0,71,72
 412 272 412 272 386 158 c 0,73,74
 358 26 358 26 358 -64 c 0,75,76
 358 -414 358 -414 626 -578 c 0,77,78
 790 -676 790 -676 967 -676 c 128,-1,79
 1144 -676 1144 -676 1266 -648 c 0,80,81
 1858 -506 1858 -506 2316 -52 c 1,82,83
 2268 256 2268 256 2112 490 c 0,84,85
 2104 502 2104 502 2098 508 c 2,86,-1
 2166 764 l 1,87,88
 2244 622 2244 622 2301 583 c 128,-1,89
 2358 544 2358 544 2416 522 c 1,90,91
 2650 986 2650 986 2970 1232 c 0,92,93
 3084 1320 3084 1320 3214 1320 c 0,94,95
 3438 1320 3438 1320 3630 1070 c 0,36,37
3610 768 m 1,96,97
 3406 1072 3406 1072 3160 1072 c 0,98,99
 2832 1068 2832 1068 2478 504 c 1,100,101
 2618 466 2618 466 2746 466 c 0,102,103
 2874 464 2874 464 2962 480 c 0,104,105
 3434 560 3434 560 3610 768 c 1,96,97
EndSplineSet
EndChar

StartChar: SAD_B0M
Encoding: 59809 59809 70
Width: 1716
GlyphClass: 2
Flags: W
AnchorPoint: "Anchor-2" 1038 -314 basechar 0
AnchorPoint: "Anchor-1" 766 1698 basechar 0
AnchorPoint: "Cursive-0" -2 2 exit 0
AnchorPoint: "Cursive-0" 2036 102 entry 0
LayerCount: 2
Fore
SplineSet
1946 686 m 1024,0,-1
528 -82 m 0,1,2
 528 -62 528 -62 590 102 c 1,3,4
 490 198 490 198 486 346 c 1,5,6
 300 114 300 114 -2 2 c 1,7,-1
 -8 2 l 1,8,9
 -22 10 -22 10 -24 32 c 0,10,11
 -24 138 -24 138 44 214 c 0,12,13
 68 240 68 240 74 242 c 0,14,15
 322 334 322 334 482 526 c 0,16,17
 532 584 532 584 550 584 c 0,18,19
 554 584 554 584 550 576 c 2,20,-1
 550 574 l 1,21,22
 542 548 542 548 543 494 c 128,-1,23
 544 440 544 440 550 424 c 0,24,25
 578 358 578 358 680 292 c 1,26,27
 918 738 918 738 1222 970 c 0,28,29
 1338 1058 1338 1058 1462 1060 c 0,30,31
 1686 1060 1686 1060 1874 808 c 0,32,33
 1948 708 1948 708 1950 602 c 0,34,35
 1950 400 1950 400 1792 264 c 1,36,37
 1926 284 1926 284 2140 350 c 1,38,39
 2176 344 2176 344 2178 312 c 0,40,41
 2180 226 2180 226 2092 140 c 0,42,43
 2062 110 2062 110 2036 102 c 0,44,45
 1814 30 1814 30 1580 2 c 128,-1,46
 1346 -26 1346 -26 1140 -28 c 1,47,-1
 1006 -24 l 2,48,49
 822 -24 822 -24 632 72 c 1,50,-1
 562 -80 l 1,51,52
 530 -124 530 -124 528 -82 c 0,1,2
1864 506 m 1,53,54
 1658 814 1658 814 1408 814 c 0,55,56
 1088 810 1088 810 738 254 c 1,57,58
 882 196 882 196 1025 195 c 128,-1,59
 1168 194 1168 194 1250 210 c 0,60,61
 1686 288 1686 288 1864 506 c 1,53,54
EndSplineSet
EndChar

StartChar: SAD_M0B
Encoding: 59810 59810 71
Width: 1248
GlyphClass: 2
Flags: W
AnchorPoint: "Anchor-2" 988 -288 basechar 0
AnchorPoint: "Anchor-1" 1330 1762 basechar 0
AnchorPoint: "Cursive-0" 10 60 exit 0
AnchorPoint: "Cursive-0" 1502 -28 entry 0
LayerCount: 2
Fore
SplineSet
604 -32 m 0,0,1
 604 -12 604 -12 670 152 c 1,2,3
 570 252 570 252 566 384 c 1,4,5
 544 380 544 380 426 270 c 0,6,7
 210 76 210 76 10 60 c 1,8,9
 -36 66 -36 66 -36 154 c 0,10,11
 -36 236 -36 236 32 280 c 0,12,13
 56 296 56 296 84 298 c 0,14,15
 330 314 330 314 568 566 c 0,16,17
 622 622 622 622 644 628 c 0,18,19
 650 630 650 630 648 624 c 0,20,21
 624 580 624 580 624 538 c 0,22,23
 622 500 622 500 630 474 c 0,24,25
 654 410 654 410 756 342 c 1,26,27
 994 790 994 790 1302 1022 c 0,28,29
 1418 1110 1418 1110 1538 1112 c 0,30,31
 1766 1112 1766 1112 1950 860 c 0,32,33
 2028 754 2028 754 2028 681 c 128,-1,34
 2028 608 2028 608 2002 462 c 1,35,36
 1926 262 1926 262 1616 140 c 1,37,38
 1616 140 1616 140 1554 120 c 1,39,40
 1556 -34 1556 -34 1502 -28 c 1,41,42
 1328 28 1328 28 1158 27 c 128,-1,43
 988 26 988 26 964 30 c 0,44,45
 820 50 820 50 712 120 c 1,46,-1
 636 -32 l 2,47,48
 606 -78 606 -78 604 -32 c 0,0,1
1938 556 m 1,49,50
 1732 864 1732 864 1488 862 c 0,51,52
 1166 858 1166 858 814 298 c 1,53,54
 918 250 918 250 1041 251 c 128,-1,55
 1164 252 1164 252 1298 272 c 0,56,57
 1766 356 1766 356 1938 556 c 1,49,50
EndSplineSet
EndChar

StartChar: SAD_M0M
Encoding: 59811 59811 72
Width: 1160
GlyphClass: 2
Flags: W
AnchorPoint: "Anchor-2" 162 -194 basechar 0
AnchorPoint: "Anchor-1" 672 1636 basechar 0
AnchorPoint: "Cursive-0" -46 46 exit 0
AnchorPoint: "Cursive-0" 1424 -4 entry 0
LayerCount: 2
Fore
SplineSet
810 -266 m 1,0,1
 922 -86 922 -86 1024 -70 c 1,2,-1
 1028 -70 l 2,3,4
 1094 -76 1094 -76 1085 -155 c 128,-1,5
 1076 -234 1076 -234 1022 -290 c 0,6,7
 946 -368 946 -368 858 -372 c 0,8,9
 830 -374 830 -374 784 -354 c 1,10,11
 760 -398 760 -398 756 -402 c 0,12,13
 740 -432 740 -432 738 -432 c 1,14,-1
 738 -420 l 1,15,16
 738 -420 738 -420 770 -346 c 1,17,18
 742 -334 742 -334 724 -334 c 0,19,20
 650 -344 650 -344 576 -428 c 0,21,22
 424 -606 424 -606 206 -632 c 1,23,24
 394 -572 394 -572 514 -452 c 0,25,26
 520 -446 520 -446 634 -328 c 0,27,28
 730 -228 730 -228 810 -266 c 1,0,1
1058 -200 m 1,29,30
 1044 -162 1044 -162 979 -161 c 128,-1,31
 914 -160 914 -160 826 -276 c 1,32,33
 868 -300 868 -300 896 -294 c 0,34,35
 1000 -278 1000 -278 1058 -200 c 1,29,30
574 644 m 1,36,-1
 568 580 l 2,37,38
 570 528 570 528 576 506 c 0,39,40
 600 432 600 432 698 370 c 1,41,42
 946 840 946 840 1242 1056 c 0,43,44
 1362 1144 1362 1144 1478 1146 c 0,45,46
 1702 1146 1702 1146 1890 894 c 0,47,48
 1968 788 1968 788 1968 678 c 0,49,50
 1968 562 1968 562 1940 492 c 0,51,52
 1866 312 1866 312 1646 206 c 0,53,54
 1546 158 1546 158 1462 138 c 1,55,-1
 1462 114 l 2,56,57
 1460 4 1460 4 1424 -4 c 1,58,59
 1218 52 1218 52 1020 56 c 0,60,61
 794 62 794 62 656 154 c 1,62,-1
 580 2 l 1,63,64
 542 -54 542 -54 544 8 c 2,65,-1
 544 20 l 2,66,67
 546 28 546 28 608 180 c 1,68,69
 508 280 508 280 506 426 c 1,70,71
 286 174 286 174 -46 46 c 1,72,-1
 -56 46 l 1,73,74
 -94 54 -94 54 -96 94 c 0,75,76
 -100 190 -100 190 -16 262 c 0,77,78
 8 282 8 282 30 288 c 0,79,80
 322 388 322 388 522 616 c 0,81,82
 560 660 560 660 574 658 c 0,83,84
 578 658 578 658 574 650 c 2,85,-1
 574 644 l 1,36,-1
1882 584 m 1,86,87
 1672 900 1672 900 1430 896 c 0,88,89
 1108 892 1108 892 758 332 c 1,90,91
 860 284 860 284 982 284 c 0,92,93
 1170 284 1170 284 1254 300 c 0,94,95
 1704 380 1704 380 1882 584 c 1,86,87
EndSplineSet
EndChar

StartChar: TAH_00M
Encoding: 59812 59812 73
Width: 1442
GlyphClass: 2
Flags: W
AnchorPoint: "Anchor-2" 602 -12 basechar 0
AnchorPoint: "Anchor-1" 890 2220 basechar 0
AnchorPoint: "Cursive-0" 0 26 exit 0
LayerCount: 2
Fore
SplineSet
106 496 m 1,0,-1
 116 824 l 1,1,2
 116 1536 116 1536 -56 2890 c 0,3,4
 -60 2920 -60 2920 -62 2944 c 2,5,-1
 -88 3004 l 1,6,-1
 28 3238 l 1,7,8
 46 3188 46 3188 103 3063 c 128,-1,9
 160 2938 160 2938 186 2864 c 0,10,11
 272 2628 272 2628 272 2564 c 0,12,13
 272 2552 272 2552 268 2552 c 0,14,15
 240 2558 240 2558 138 2684 c 1,16,-1
 118 2688 l 1,17,18
 260 1680 260 1680 258 1136 c 0,19,20
 256 864 256 864 172 564 c 1,21,22
 572 1050 572 1050 726 1158 c 0,23,24
 852 1246 852 1246 980 1248 c 0,25,26
 1182 1248 1182 1248 1300 1068 c 0,27,28
 1348 994 1348 994 1348 867 c 128,-1,29
 1348 740 1348 740 1258 620 c 0,30,31
 1042 336 1042 336 0 26 c 1,32,-1
 -16 26 l 2,33,34
 -104 32 -104 32 -106 94 c 0,35,36
 -106 174 -106 174 -82 212 c 0,37,38
 -40 282 -40 282 4 352 c 2,39,-1
 106 496 l 1,0,-1
12 248 m 1,40,41
 1094 588 1094 588 1262 812 c 1,42,43
 1198 952 1198 952 1000 1002 c 0,44,45
 976 1008 976 1008 932 1006 c 0,46,47
 690 1006 690 1006 270 568 c 0,48,49
 66 352 66 352 12 248 c 1,40,41
EndSplineSet
EndChar

StartChar: TAH_M00
Encoding: 59813 59813 74
Width: 1786
GlyphClass: 2
Flags: W
AnchorPoint: "Anchor-2" 1354 -248 basechar 0
AnchorPoint: "Anchor-1" 1832 2000 basechar 0
AnchorPoint: "Cursive-0" 2012 84 entry 0
LayerCount: 2
Fore
SplineSet
1190 510 m 1,0,-1
 1194 724 l 2,1,2
 1194 904 1194 904 1174 1229 c 128,-1,3
 1154 1554 1154 1554 1079 2219 c 128,-1,4
 1004 2884 1004 2884 984 3048 c 1,5,-1
 958 3100 l 1,6,-1
 1074 3338 l 1,7,8
 1090 3294 1090 3294 1147 3165 c 128,-1,9
 1204 3036 1204 3036 1266 2866 c 128,-1,10
 1328 2696 1328 2696 1328 2666 c 2,11,-1
 1328 2662 l 2,12,13
 1322 2650 1322 2650 1318 2650 c 0,14,15
 1290 2652 1290 2652 1186 2782 c 1,16,-1
 1166 2786 l 1,17,18
 1334 1560 1334 1560 1332 1096 c 0,19,20
 1330 868 1330 868 1244 564 c 1,21,22
 1542 930 1542 930 1810 1120 c 0,23,24
 1944 1216 1944 1216 2094 1218 c 0,25,26
 2314 1218 2314 1218 2438 1048 c 0,27,28
 2506 954 2506 954 2506 860 c 2,29,-1
 2506 844 l 1,30,31
 2482 680 2482 680 2440 594 c 0,32,33
 2368 462 2368 462 2090 316 c 1,34,35
 2116 290 2116 290 2120 190 c 128,-1,36
 2124 90 2124 90 2052 82 c 2,37,-1
 2030 80 l 1,38,-1
 2012 84 l 1,39,40
 1714 174 1714 174 1494 174 c 1,41,-1
 1446 170 l 1,42,43
 1060 100 1060 100 924 100 c 1,44,-1
 862 104 l 1,45,-1
 854 104 l 2,46,47
 732 104 732 104 440 284 c 2,48,-1
 344 342 l 1,49,50
 846 300 846 300 1074 330 c 1,51,52
 1120 396 1120 396 1190 490 c 1,53,-1
 1190 510 l 1,0,-1
1142 338 m 1,54,55
 1746 406 1746 406 2164 586 c 0,56,57
 2288 640 2288 640 2412 732 c 1,58,59
 2318 932 2318 932 2106 976 c 0,60,61
 2072 984 2072 984 2034 984 c 0,62,63
 1664 984 1664 984 1142 338 c 1,54,55
EndSplineSet
EndChar

StartChar: TAH_B0M
Encoding: 59814 59814 75
Width: 1320
GlyphClass: 2
Flags: W
AnchorPoint: "Anchor-2" 686 -10 basechar 0
AnchorPoint: "Anchor-1" 824 2130 basechar 0
AnchorPoint: "Cursive-0" 26 108 exit 0
AnchorPoint: "Cursive-0" 1408 342 entry 0
LayerCount: 2
Fore
SplineSet
106 348 m 1024,0,1
1278 888 m 1,2,3
 1166 1130 1166 1130 980 1130 c 0,4,5
 676 1130 676 1130 204 582 c 0,6,7
 86 444 86 444 2 324 c 1,8,9
 60 324 60 324 606 529 c 128,-1,10
 1152 734 1152 734 1278 888 c 1,2,3
150 624 m 1,11,-1
 158 948 l 1,12,13
 158 1644 158 1644 -14 3010 c 0,14,15
 -18 3040 -18 3040 -20 3068 c 1,16,-1
 -46 3124 l 1,17,-1
 72 3358 l 1,18,19
 90 3308 90 3308 146 3184 c 128,-1,20
 202 3060 202 3060 228 2986 c 0,21,22
 314 2752 314 2752 316 2688 c 0,23,24
 316 2676 316 2676 310 2674 c 0,25,26
 282 2680 282 2680 182 2808 c 1,27,-1
 162 2812 l 1,28,29
 302 1818 302 1818 300 1258 c 0,30,31
 298 1002 298 1002 216 710 c 1,32,33
 560 1138 560 1138 768 1282 c 0,34,35
 888 1366 888 1366 1008 1368 c 0,36,37
 1206 1368 1206 1368 1310 1180 c 0,38,39
 1370 1074 1370 1074 1370 968 c 0,40,41
 1370 842 1370 842 1286 718 c 1,42,43
 1166 564 1166 564 974 468 c 2,44,45
 974 468 974 468 966 464 c 1,46,47
 1294 526 1294 526 1484 582 c 1,48,-1
 1488 582 l 2,49,50
 1536 576 1536 576 1538 520 c 0,51,52
 1538 384 1538 384 1408 342 c 1,53,54
 928 224 928 224 482 204 c 0,55,56
 396 198 396 198 236 161 c 128,-1,57
 76 124 76 124 54 117 c 128,-1,58
 32 110 32 110 26 108 c 0,59,60
 -116 102 -116 102 -118 188 c 0,61,62
 -118 250 -118 250 -82 304 c 0,63,64
 -52 354 -52 354 150 624 c 1,11,-1
EndSplineSet
EndChar

StartChar: TAH_M0B
Encoding: 59815 59815 76
Width: 858
GlyphClass: 2
Flags: W
AnchorPoint: "Anchor-2" 504 -322 basechar 0
AnchorPoint: "Anchor-1" 832 2066 basechar 0
AnchorPoint: "Cursive-0" -50 78 exit 0
AnchorPoint: "Cursive-0" 1076 102 entry 0
LayerCount: 2
Fore
SplineSet
212 528 m 1,0,-1
 216 766 l 2,1,2
 216 944 216 944 196 1280 c 0,3,4
 162 1820 162 1820 14 3064 c 1,5,-1
 -20 3130 l 1,6,-1
 100 3362 l 1,7,8
 132 3288 132 3288 258 2986 c 1,9,10
 352 2720 352 2720 352 2688 c 2,11,-1
 352 2686 l 2,12,13
 346 2674 346 2674 344 2674 c 0,14,15
 342 2702 342 2702 210 2806 c 0,16,17
 200 2814 200 2814 194 2814 c 1,18,19
 362 1592 362 1592 358 1126 c 0,20,21
 356 872 356 872 268 576 c 1,22,23
 582 976 582 976 838 1148 c 0,24,25
 974 1240 974 1240 1118 1242 c 0,26,27
 1340 1242 1340 1242 1466 1070 c 0,28,29
 1534 978 1534 978 1534 884 c 2,30,-1
 1534 868 l 1,31,32
 1526 704 1526 704 1448 590 c 0,33,34
 1444 584 1444 584 1442 580 c 0,35,36
 1330 448 1330 448 1144 334 c 1,37,38
 1200 318 1200 318 1202 228 c 128,-1,39
 1204 138 1204 138 1128 108 c 0,40,41
 1108 100 1108 100 1092 102 c 2,42,-1
 1076 102 l 1,43,44
 870 158 870 158 704 168 c 0,45,46
 614 174 614 174 506 148 c 0,47,48
 202 78 202 78 -50 78 c 1,49,50
 -100 86 -100 86 -102 138 c 0,51,52
 -104 232 -104 232 -28 294 c 0,53,54
 -4 314 -4 314 24 316 c 2,55,-1
 102 324 l 1,56,57
 196 480 196 480 212 502 c 1,58,-1
 212 528 l 1,0,-1
150 328 m 1,59,60
 796 398 796 398 1184 572 c 0,61,62
 1348 644 1348 644 1430 752 c 1,63,64
 1322 956 1322 956 1132 996 c 0,65,66
 1098 1004 1098 1004 1064 1004 c 0,67,68
 676 1004 676 1004 150 328 c 1,59,60
EndSplineSet
Substitution2: "Single Substitution lookup 29 subtable" TAH_M0R
EndChar

StartChar: TAH_M0M
Encoding: 59816 59816 77
Width: 1318
GlyphClass: 2
Flags: W
AnchorPoint: "Anchor-2" 600 -210 basechar 0
AnchorPoint: "Anchor-1" 914 2278 basechar 0
AnchorPoint: "Cursive-0" 0 104 exit 0
AnchorPoint: "Cursive-0" 1004 222 entry 0
LayerCount: 2
Fore
SplineSet
30 332 m 1,0,1
 398 446 398 446 942 666 c 0,2,3
 1284 804 1284 804 1306 930 c 1,4,5
 1234 1084 1234 1084 1046 1122 c 0,6,7
 1036 1124 1036 1124 1023 1127 c 128,-1,8
 1010 1130 1010 1130 978 1130 c 0,9,10
 702 1130 702 1130 308 688 c 0,11,12
 80 434 80 434 30 332 c 1,0,1
146 624 m 1,13,-1
 156 948 l 1,14,15
 156 1644 156 1644 -16 3010 c 0,16,17
 -20 3040 -20 3040 -22 3068 c 1,18,-1
 -48 3124 l 1,19,-1
 70 3358 l 1,20,21
 88 3308 88 3308 143 3184 c 128,-1,22
 198 3060 198 3060 226 2986 c 0,23,24
 312 2752 312 2752 314 2688 c 0,25,26
 314 2676 314 2676 308 2674 c 0,27,28
 280 2680 280 2680 180 2808 c 1,29,-1
 160 2812 l 1,30,31
 300 1818 300 1818 296 1256 c 0,32,33
 294 1000 294 1000 214 710 c 1,34,35
 554 1134 554 1134 766 1282 c 0,36,37
 890 1370 890 1370 1028 1370 c 0,38,39
 1232 1370 1232 1370 1346 1196 c 0,40,41
 1400 1114 1400 1114 1398 998 c 0,42,43
 1398 820 1398 820 1288 688 c 0,44,45
 1212 596 1212 596 1020 494 c 0,46,47
 982 474 982 474 980 472 c 1,48,-1
 1078 456 l 1,49,50
 1102 418 1102 418 1102 334 c 0,51,52
 1102 260 1102 260 1038 228 c 0,53,54
 1026 222 1026 222 1014 222 c 2,55,-1
 1004 222 l 1,56,57
 840 266 840 266 720 258 c 0,58,59
 618 254 618 254 484 240 c 0,60,61
 370 228 370 228 0 104 c 1,62,-1
 -16 104 l 2,63,64
 -100 110 -100 110 -98 186 c 0,65,66
 -98 284 -98 284 146 624 c 1,13,-1
EndSplineSet
EndChar

StartChar: AIN_00M
Encoding: 59817 59817 78
Width: 1264
GlyphClass: 2
Flags: W
AnchorPoint: "Anchor-2" 518 -42 basechar 0
AnchorPoint: "Anchor-1" -40 1852 basechar 0
AnchorPoint: "Cursive-0" -264 6 exit 0
LayerCount: 2
Fore
SplineSet
1208 880 m 0,0,1
 1208 840 1208 840 1088 654 c 1,2,-1
 1058 612 l 1,3,4
 644 356 644 356 -38 88 c 0,5,6
 -170 36 -170 36 -264 6 c 1,7,-1
 -272 6 l 1,8,9
 -308 14 -308 14 -310 64 c 0,10,11
 -312 196 -312 196 -190 248 c 0,12,13
 54 340 54 340 104 368 c 1,14,15
 -122 494 -122 494 -194 742 c 0,16,17
 -218 822 -218 822 -214 880 c 0,18,19
 -214 908 -214 908 -210 932 c 0,20,21
 -194 1004 -194 1004 -120 1110 c 1,22,-1
 -72 1166 l 2,23,24
 80 1336 80 1336 314 1336 c 0,25,26
 316 1336 316 1336 320 1336 c 0,27,28
 558 1334 558 1334 812 1144 c 1,29,-1
 808 1136 l 1,30,-1
 788 1136 l 1,31,32
 668 1180 668 1180 524 1180 c 0,33,34
 348 1180 348 1180 148 1118 c 0,35,36
 8 1076 8 1076 -88 1018 c 1,37,38
 -74 758 -74 758 138 606 c 0,39,40
 256 522 256 522 378 522 c 0,41,42
 488 522 488 522 538 542 c 0,43,44
 996 734 996 734 1192 880 c 0,45,46
 1208 894 1208 894 1208 880 c 0,0,1
EndSplineSet
AlternateSubs2: "'swsh' Swash in Arabic lookup 9 subtable" AIN_10M
EndChar

StartChar: AIN_M00
Encoding: 59818 59818 79
Width: 1696
GlyphClass: 2
Flags: W
AnchorPoint: "Anchor-2" 1164 -368 basechar 0
AnchorPoint: "Anchor-1" 838 2606 basechar 0
AnchorPoint: "Cursive-0" 1598 30 entry 0
LayerCount: 2
Fore
SplineSet
1176 620 m 1,0,-1
 1180 688 l 2,1,2
 1194 836 1194 836 1222 910 c 1,3,4
 520 416 520 416 402 -200 c 0,5,6
 402 -206 402 -206 402 -212 c 0,7,8
 402 -634 402 -634 652 -880 c 1,9,10
 1012 -1204 1012 -1204 1998 -1204 c 0,11,12
 2322 -1204 2322 -1204 2922 -1152 c 1,13,14
 2780 -1208 2780 -1208 2576 -1291 c 128,-1,15
 2372 -1374 2372 -1374 2251 -1415 c 128,-1,16
 2130 -1456 2130 -1456 1826 -1456 c 0,17,18
 980 -1456 980 -1456 638 -1164 c 0,19,20
 316 -886 316 -886 334 -408 c 0,21,22
 348 -86 348 -86 424 144 c 0,23,24
 538 488 538 488 802 762 c 1,25,26
 422 800 422 800 290 1100 c 0,27,28
 186 1338 186 1338 314 1564 c 1,29,-1
 374 1648 l 1,30,31
 572 1898 572 1898 850 1898 c 0,32,33
 1084 1898 1084 1898 1318 1708 c 1,34,-1
 1192 1736 l 2,35,36
 1168 1742 1168 1742 1084 1742 c 0,37,38
 868 1740 868 1740 666 1663 c 128,-1,39
 464 1586 464 1586 358 1504 c 1,40,41
 372 1266 372 1266 594 1114 c 0,42,43
 746 1012 746 1012 894 1012 c 0,44,45
 896 1012 896 1012 898 1012 c 0,46,47
 1030 1014 1030 1014 1136 1070 c 1,48,-1
 1132 1066 l 1,49,50
 1492 1324 1492 1324 1820 1462 c 1,51,-1
 1730 1202 l 1,52,53
 1464 1076 1464 1076 1256 932 c 1,54,55
 1252 894 1252 894 1250 836 c 0,56,57
 1250 432 1250 432 1606 284 c 0,58,59
 1638 270 1638 270 1672 264 c 1,60,61
 1702 244 1702 244 1702 164 c 0,62,63
 1702 76 1702 76 1642 42 c 0,64,65
 1624 32 1624 32 1608 30 c 2,66,-1
 1598 30 l 1,67,68
 1176 178 1176 178 1176 620 c 1,0,-1
EndSplineSet
EndChar

StartChar: AIN_B0M
Encoding: 59819 59819 80
Width: 1478
GlyphClass: 2
Flags: W
AnchorPoint: "Anchor-2" 248 -332 basechar 0
AnchorPoint: "Anchor-1" 536 2076 basechar 0
AnchorPoint: "Cursive-0" 104 90 exit 0
AnchorPoint: "Cursive-0" 1480 96 entry 0
LayerCount: 2
Fore
SplineSet
668 -356 m 1,0,1
 714 -390 714 -390 800 -392 c 0,2,3
 958 -392 958 -392 1106 -274 c 1,4,5
 1034 -380 1034 -380 946 -436 c 0,6,7
 838 -504 838 -504 751 -506 c 128,-1,8
 664 -508 664 -508 638 -460 c 0,9,10
 620 -426 620 -426 648 -336 c 0,11,12
 682 -216 682 -216 752 -132 c 1,13,14
 604 -120 604 -120 646 6 c 0,15,16
 648 8 648 8 676 66 c 0,17,18
 716 146 716 146 776 164 c 1,19,-1
 790 164 l 1,20,21
 824 156 824 156 826 95 c 128,-1,22
 828 34 828 34 810 20 c 1,23,-1
 810 20 l 1,24,25
 756 126 756 126 680 38 c 1,26,27
 692 -50 692 -50 820 -48 c 1,28,-1
 922 56 l 1,29,-1
 902 -38 l 2,30,31
 900 -46 900 -46 801 -159 c 128,-1,32
 702 -272 702 -272 668 -356 c 1,0,1
1480 96 m 0,33,34
 1218 96 1218 96 830 414 c 1,35,36
 432 210 432 210 120 96 c 2,37,-1
 104 90 l 1,38,39
 58 96 58 96 56 146 c 0,40,41
 56 266 56 266 180 330 c 1,42,43
 518 462 518 462 654 540 c 1,44,45
 444 698 444 698 300 700 c 0,46,47
 194 700 194 700 142 660 c 1,48,-1
 138 658 l 1,49,-1
 218 944 l 1,50,51
 524 1130 524 1130 866 1126 c 0,52,53
 1032 1124 1032 1124 1304 1044 c 0,54,55
 1544 972 1544 972 1544 924 c 0,56,57
 1544 922 1544 922 1492 792 c 0,58,59
 1456 704 1456 704 1440 692 c 1,60,61
 1286 690 1286 690 1028 534 c 1,62,63
 1194 414 1194 414 1356 364 c 0,64,65
 1454 334 1454 334 1556 334 c 1,66,67
 1598 326 1598 326 1598 276 c 0,68,69
 1600 176 1600 176 1526 116 c 0,70,71
 1504 98 1504 98 1480 96 c 0,33,34
578 836 m 1,72,-1
 864 646 l 1,73,74
 1034 740 1034 740 1176 808 c 1,75,76
 870 912 870 912 578 836 c 1,72,-1
EndSplineSet
AlternateSubs2: "'swsh' Swash in Arabic lookup 9 subtable" AIN_B1M
EndChar

StartChar: AIN_M0B
Encoding: 59820 59820 81
Width: 1582
GlyphClass: 2
Flags: W
AnchorPoint: "Anchor-2" 850 -368 basechar 0
AnchorPoint: "Anchor-1" 1236 2120 basechar 0
AnchorPoint: "Cursive-0" 52 68 exit 0
AnchorPoint: "Cursive-0" 1394 82 entry 0
LayerCount: 2
Fore
SplineSet
1468 316 m 0,0,1
 1504 300 1504 300 1506 227 c 128,-1,2
 1508 154 1508 154 1464 119 c 128,-1,3
 1420 84 1420 84 1402 82 c 2,4,-1
 1394 82 l 1,5,6
 1164 160 1164 160 874 408 c 1,7,8
 372 70 372 70 52 68 c 0,9,10
 28 74 28 74 24 164 c 0,11,12
 22 258 22 258 90 294 c 0,13,14
 108 304 108 304 126 306 c 0,15,16
 404 330 404 330 718 544 c 1,17,18
 494 716 494 716 378 724 c 0,19,20
 334 726 334 726 298 710 c 0,21,22
 270 698 270 698 202 654 c 1,23,-1
 280 960 l 1,24,25
 556 1134 556 1134 908 1134 c 0,26,27
 1122 1134 1122 1134 1364 1070 c 0,28,29
 1598 1008 1598 1008 1600 952 c 0,30,31
 1602 914 1602 914 1556 810 c 0,32,33
 1518 716 1518 716 1510 710 c 2,34,-1
 1488 710 l 2,35,36
 1336 710 1336 710 1076 540 c 1,37,38
 1284 368 1284 368 1468 316 c 0,0,1
672 842 m 1,39,-1
 906 672 l 1,40,41
 1052 766 1052 766 1188 830 c 1,42,43
 990 870 990 870 910 870 c 0,44,45
 806 870 806 870 672 842 c 1,39,-1
EndSplineSet
EndChar

StartChar: AIN_M0M
Encoding: 59821 59821 82
Width: 1506
GlyphClass: 2
Flags: W
AnchorPoint: "Anchor-2" 342 -128 basechar 0
AnchorPoint: "Anchor-1" 812 2402 basechar 0
AnchorPoint: "Cursive-0" 138 118 exit 0
AnchorPoint: "Cursive-0" 1400 58 entry 0
LayerCount: 2
Fore
SplineSet
668 -356 m 1,0,1
 714 -390 714 -390 800 -392 c 0,2,3
 958 -392 958 -392 1106 -274 c 1,4,5
 1034 -380 1034 -380 946 -436 c 0,6,7
 838 -504 838 -504 751 -506 c 128,-1,8
 664 -508 664 -508 638 -460 c 0,9,10
 620 -426 620 -426 648 -336 c 0,11,12
 682 -216 682 -216 752 -132 c 1,13,14
 604 -120 604 -120 646 6 c 0,15,16
 648 8 648 8 676 66 c 0,17,18
 716 146 716 146 776 164 c 1,19,-1
 790 164 l 1,20,21
 824 156 824 156 826 95 c 128,-1,22
 828 34 828 34 810 20 c 1,23,-1
 810 20 l 1,24,25
 756 126 756 126 680 38 c 1,26,27
 692 -50 692 -50 820 -48 c 1,28,-1
 922 56 l 1,29,-1
 902 -38 l 2,30,31
 900 -46 900 -46 801 -159 c 128,-1,32
 702 -272 702 -272 668 -356 c 1,0,1
1400 58 m 0,33,34
 1228 114 1228 114 846 430 c 1,35,36
 478 252 478 252 138 118 c 0,37,38
 84 98 84 98 82 168 c 0,39,40
 78 256 78 256 162 326 c 0,41,42
 192 352 192 352 214 360 c 2,43,-1
 696 564 l 1,44,45
 506 724 506 724 356 722 c 0,46,47
 264 722 264 722 164 656 c 1,48,-1
 236 944 l 1,49,50
 514 1116 514 1116 882 1118 c 0,51,52
 1122 1118 1122 1118 1390 1048 c 0,53,54
 1550 1006 1550 1006 1552 954 c 0,55,56
 1554 898 1554 898 1514 802 c 0,57,58
 1476 712 1476 712 1468 714 c 1,59,-1
 1464 706 l 1,60,61
 1386 696 1386 696 1058 540 c 1,62,63
 1298 356 1298 356 1474 292 c 0,64,65
 1490 286 1490 286 1490 184 c 0,66,67
 1490 88 1490 88 1420 62 c 0,68,69
 1406 56 1406 56 1400 58 c 0,33,34
646 840 m 1,70,71
 784 748 784 748 892 660 c 1,72,73
 1090 762 1090 762 1214 806 c 1,74,75
 1028 868 1028 868 906 868 c 0,76,77
 802 866 802 866 646 840 c 1,70,71
EndSplineSet
EndChar

StartChar: FAA_00M
Encoding: 59822 59822 83
Width: 1008
GlyphClass: 2
Flags: W
AnchorPoint: "Anchor-2" 346 -210 basechar 0
AnchorPoint: "Anchor-1" 302 2290 basechar 0
AnchorPoint: "Cursive-0" 242 86 exit 0
LayerCount: 2
Fore
SplineSet
628 720 m 2,0,-1
 514 716 l 1,1,-1
 492 716 l 1,2,3
 252 736 252 736 264 958 c 0,4,5
 272 1072 272 1072 330 1166 c 0,6,7
 428 1330 428 1330 548 1320 c 0,8,9
 652 1310 652 1310 732 1224 c 0,10,11
 940 998 940 998 938 708 c 0,12,13
 938 494 938 494 860 416 c 0,14,15
 856 412 856 412 854 410 c 0,16,17
 692 232 692 232 242 86 c 1,18,19
 198 92 198 92 196 142 c 0,20,21
 196 236 196 236 276 302 c 0,22,23
 300 322 300 322 316 328 c 0,24,25
 796 494 796 494 864 600 c 1,26,27
 862 626 862 626 852 638 c 0,28,29
 766 720 766 720 628 720 c 2,0,-1
676 950 m 1,30,31
 564 1068 564 1068 496 1068 c 2,32,-1
 494 1068 l 2,33,34
 422 1066 422 1066 376 1012 c 1,35,36
 408 950 408 950 534 946 c 0,37,38
 590 946 590 946 625 948 c 128,-1,39
 660 950 660 950 676 950 c 1,30,31
642 1752 m 1,40,-1
 496 1546 l 1,41,-1
 254 1730 l 1,42,-1
 396 1936 l 1,43,-1
 642 1752 l 1,40,-1
EndSplineSet
EndChar

StartChar: FAA_M00
Encoding: 59823 59823 84
Width: 2890
GlyphClass: 2
Flags: W
AnchorPoint: "Anchor-2" 1700 -484 basechar 0
AnchorPoint: "Anchor-1" 1978 2182 basechar 0
AnchorPoint: "Cursive-0" 2844 36 entry 0
LayerCount: 2
Fore
SplineSet
2338 1678 m 1,0,-1
 2196 1470 l 1,1,-1
 1948 1654 l 1,2,-1
 2090 1860 l 1,3,-1
 2338 1678 l 1,0,-1
334 598 m 0,4,5
 346 126 346 126 1130 128 c 0,6,7
 1778 130 1778 130 2392 494 c 1,8,9
 2350 646 2350 646 2348 754 c 0,10,11
 2348 828 2348 828 2358 908 c 0,12,13
 2370 1004 2370 1004 2432 1128 c 0,14,15
 2484 1232 2484 1232 2556 1236 c 1,16,17
 2654 1230 2654 1230 2719 1087 c 128,-1,18
 2784 944 2784 944 2784 816 c 0,19,20
 2784 670 2784 670 2738 560 c 0,21,22
 2716 512 2716 512 2616 432 c 1,23,24
 2728 330 2728 330 2920 270 c 1,25,26
 2962 244 2962 244 2962 168 c 0,27,28
 2962 88 2962 88 2892 48 c 0,29,30
 2868 34 2868 34 2848 36 c 2,31,-1
 2844 36 l 1,32,33
 2628 106 2628 106 2470 320 c 1,34,35
 1986 10 1986 10 1378 -94 c 0,36,37
 1178 -128 1178 -128 1002 -128 c 0,38,39
 532 -124 532 -124 328 124 c 1,40,41
 244 270 244 270 242 446 c 0,42,43
 244 694 244 694 376 926 c 0,44,45
 396 960 396 960 404 940 c 0,46,47
 410 928 410 928 406 918 c 0,48,49
 330 716 330 716 334 598 c 0,4,5
2412 884 m 1,50,51
 2426 698 2426 698 2506 564 c 1,52,53
 2626 652 2626 652 2722 742 c 1,54,55
 2694 868 2694 868 2574 976 c 0,56,57
 2552 990 2552 990 2530 992 c 0,58,59
 2470 986 2470 986 2412 884 c 1,50,51
EndSplineSet
EndChar

StartChar: FAA_B0M
Encoding: 59824 59824 85
Width: 1014
GlyphClass: 2
Flags: W
AnchorPoint: "Anchor-2" 568 -358 basechar 0
AnchorPoint: "Anchor-1" 464 2328 basechar 0
AnchorPoint: "Cursive-0" 100 94 exit 0
AnchorPoint: "Cursive-0" 1060 42 entry 0
LayerCount: 2
Fore
SplineSet
902 838 m 0,0,1
 902 566 902 566 740 428 c 1,2,3
 898 280 898 280 1134 280 c 0,4,5
 1180 276 1180 276 1168 190 c 0,6,7
 1154 96 1154 96 1100 60 c 0,8,9
 1076 44 1076 44 1060 42 c 0,10,11
 818 50 818 50 618 328 c 1,12,13
 370 190 370 190 100 94 c 1,14,-1
 96 94 l 2,15,16
 72 100 72 100 68 166 c 0,17,18
 66 230 66 230 114 278 c 0,19,20
 160 328 160 328 174 336 c 0,21,22
 336 394 336 394 528 494 c 1,23,24
 476 664 476 664 478 860 c 0,25,26
 484 992 484 992 545 1117 c 128,-1,27
 606 1242 606 1242 682 1246 c 1,28,29
 778 1240 778 1240 840 1105 c 128,-1,30
 902 970 902 970 902 838 c 0,0,1
546 894 m 0,31,32
 534 828 534 828 570 702 c 0,33,34
 588 638 588 638 644 552 c 1,35,36
 776 628 776 628 850 724 c 1,37,38
 824 898 824 898 696 994 c 0,39,40
 678 1008 678 1008 660 1008 c 0,41,42
 564 1006 564 1006 546 894 c 0,31,32
856 1796 m 1,43,-1
 710 1590 l 1,44,-1
 466 1768 l 1,45,-1
 608 1980 l 1,46,-1
 856 1796 l 1,43,-1
EndSplineSet
EndChar

StartChar: FAA_M0B
Encoding: 59825 59825 86
Width: 722
GlyphClass: 2
Flags: W
AnchorPoint: "Anchor-2" 438 -266 basechar 0
AnchorPoint: "Anchor-1" 460 2038 basechar 0
AnchorPoint: "Cursive-0" -26 28 exit 0
AnchorPoint: "Cursive-0" 828 -62 entry 0
LayerCount: 2
Fore
SplineSet
712 1504 m 1,0,-1
 566 1302 l 1,1,-1
 322 1480 l 1,2,-1
 464 1688 l 1,3,-1
 712 1504 l 1,0,-1
614 1046 m 1,4,5
 764 1034 764 1034 763 747 c 128,-1,6
 762 460 762 460 598 320 c 1,7,8
 722 220 722 220 902 172 c 0,9,10
 940 164 940 164 942 84 c 0,11,12
 944 8 944 8 894 -36 c 0,13,14
 854 -70 854 -70 828 -62 c 0,15,16
 606 14 606 14 436 182 c 1,17,18
 178 26 178 26 -26 28 c 0,19,20
 -52 28 -52 28 -52 102 c 0,21,22
 -52 182 -52 182 -6 226 c 0,23,24
 32 262 32 262 50 264 c 0,25,26
 194 278 194 278 326 334 c 1,27,28
 256 450 256 450 258 536 c 0,29,30
 262 708 262 708 344 836 c 0,31,32
 470 1032 470 1032 614 1046 c 1,4,5
312 600 m 1,33,34
 352 512 352 512 482 406 c 1,35,36
 646 492 646 492 692 540 c 1,37,38
 682 684 682 684 592 786 c 0,39,40
 574 806 574 806 540 808 c 0,41,42
 452 808 452 808 358 684 c 0,43,44
 324 638 324 638 312 600 c 1,33,34
EndSplineSet
EndChar

StartChar: FAA_M0M
Encoding: 59826 59826 87
Width: 948
GlyphClass: 2
Flags: W
AnchorPoint: "Anchor-2" 596 -418 basechar 0
AnchorPoint: "Anchor-1" 634 2160 basechar 0
AnchorPoint: "Cursive-0" 88 102 exit 0
AnchorPoint: "Cursive-0" 918 54 entry 0
LayerCount: 2
Fore
SplineSet
918 54 m 1,0,1
 702 140 702 140 576 328 c 1,2,3
 360 198 360 198 88 102 c 1,4,-1
 84 102 l 2,5,6
 60 108 60 108 60 172 c 0,7,8
 60 250 60 250 128 316 c 0,9,10
 152 338 152 338 162 344 c 0,11,12
 370 422 370 422 496 496 c 1,13,14
 446 650 446 650 446 744 c 0,15,16
 446 908 446 908 468 980 c 0,17,18
 500 1090 500 1090 528 1146 c 0,19,20
 580 1250 580 1250 656 1256 c 1,21,22
 754 1250 754 1250 828 1088 c 0,23,24
 880 976 880 976 878 852 c 0,25,26
 878 594 878 594 722 438 c 1,27,28
 824 342 824 342 994 288 c 0,29,30
 1028 276 1028 276 1028 194 c 0,31,32
 1028 114 1028 114 962 68 c 0,33,34
 942 54 942 54 926 54 c 2,35,-1
 918 54 l 1,0,1
510 896 m 1,36,37
 530 688 530 688 616 562 c 1,38,39
 750 640 750 640 824 732 c 1,40,41
 800 878 800 878 670 994 c 0,42,43
 648 1008 648 1008 626 1010 c 0,44,45
 570 1002 570 1002 510 896 c 1,36,37
770 1712 m 1,46,-1
 628 1508 l 1,47,-1
 380 1688 l 1,48,-1
 522 1894 l 1,49,-1
 770 1712 l 1,46,-1
EndSplineSet
EndChar

StartChar: KAF_00M
Encoding: 59827 59827 88
Width: 1076
GlyphClass: 2
Flags: W
AnchorPoint: "Anchor-2" 80 -6 basechar 0
AnchorPoint: "Anchor-1" -144 3240 basechar 0
AnchorPoint: "Cursive-0" -292 264 exit 0
LayerCount: 2
Fore
SplineSet
232 2240 m 2,0,-1
 632 2320 l 1,1,2
 672 2318 672 2318 678 2316 c 0,3,4
 818 2274 818 2274 818 2170 c 1,5,6
 808 2088 808 2088 768 2044 c 0,7,8
 748 2020 748 2020 488 1958 c 0,9,10
 240 1898 240 1898 156 1890 c 2,11,-1
 128 1888 l 2,12,13
 34 1884 34 1884 -48 1909 c 128,-1,14
 -130 1934 -130 1934 -164 1962 c 2,15,-1
 -200 1994 l 1,16,-1
 -54 1978 l 2,17,18
 -40 1976 -40 1976 64 1982 c 0,19,20
 140 1986 140 1986 390 2036 c 128,-1,21
 640 2086 640 2086 762 2140 c 1,22,23
 732 2210 732 2210 608 2206 c 1,24,-1
 596 2204 l 1,25,-1
 232 2130 l 1,26,27
 144 2130 144 2130 128 2168 c 0,28,29
 110 2216 110 2216 158 2324 c 0,30,31
 228 2494 228 2494 358 2568 c 0,32,33
 422 2604 422 2604 448 2592 c 0,34,35
 470 2584 470 2584 474 2572 c 2,36,-1
 434 2428 l 1,37,-1
 404 2452 l 1,38,39
 352 2464 352 2464 306 2426 c 0,40,41
 212 2348 212 2348 168 2262 c 1,42,43
 196 2240 196 2240 232 2240 c 2,0,-1
-824 2138 m 1,44,-1
 -832 2294 l 2,45,46
 -830 2388 -830 2388 -812 2446 c 0,47,48
 -778 2560 -778 2560 -494 2736 c 0,49,50
 196 3158 196 3158 784 3370 c 0,51,52
 1062 3470 1062 3470 1198 3474 c 2,53,-1
 1224 3474 l 1,54,55
 1374 3454 1374 3454 1374 3346 c 0,56,57
 1374 3292 1374 3292 1320 3176 c 2,58,-1
 1292 3116 l 2,59,60
 1282 3096 1282 3096 1116 2862 c 0,61,62
 966 2650 966 2650 910 2506 c 0,63,64
 894 2464 894 2464 886 2462 c 128,-1,65
 878 2460 878 2460 880 2498 c 0,66,67
 880 2520 880 2520 894 2566 c 0,68,69
 942 2722 942 2722 1146 3004 c 0,70,71
 1236 3128 1236 3128 1244 3152 c 0,72,73
 1254 3186 1254 3186 1254 3194 c 0,74,75
 1250 3250 1250 3250 1152 3250 c 128,-1,76
 1054 3250 1054 3250 840 3176 c 0,77,78
 340 3002 340 3002 -248 2658 c 0,79,80
 -602 2450 -602 2450 -730 2324 c 1,81,82
 -620 2268 -620 2268 -558 2232 c 0,83,84
 -294 2078 -294 2078 -294 2042 c 0,85,86
 -294 2032 -294 2032 -344 2032 c 0,87,88
 -390 2032 -390 2032 -522 2064 c 1,89,-1
 -542 2054 l 1,90,-1
 -538 2042 l 1,91,92
 -370 1778 -370 1778 204 1334 c 0,93,94
 422 1166 422 1166 422 940 c 0,95,96
 422 764 422 764 358 642 c 0,97,98
 242 428 242 428 -292 264 c 1,99,100
 -368 272 -368 272 -340 358 c 0,101,102
 -332 382 -332 382 -244 484 c 0,103,104
 -230 500 -230 500 -218 504 c 0,105,106
 180 656 180 656 294 780 c 0,107,108
 324 812 324 812 340 838 c 1,109,110
 322 978 322 978 152 1116 c 0,111,112
 -304 1490 -304 1490 -542 1770 c 0,113,114
 -680 1934 -680 1934 -764 2112 c 1,115,-1
 -820 2138 l 1,116,-1
 -824 2138 l 1,44,-1
EndSplineSet
EndChar

StartChar: KAF_M00
Encoding: 59828 59828 89
Width: 3252
GlyphClass: 2
Flags: W
AnchorPoint: "Anchor-2" 1534 -698 basechar 0
AnchorPoint: "Anchor-1" 1318 2240 basechar 0
AnchorPoint: "Cursive-0" 3164 64 entry 0
LayerCount: 2
Fore
SplineSet
1756 1172 m 1,0,1
 1640 964 1640 964 1461 887 c 128,-1,2
 1282 810 1282 810 1000 810 c 2,3,-1
 952 810 l 1,4,5
 1484 1008 1484 1008 1694 1180 c 1,6,7
 1672 1198 1672 1198 1640 1200 c 2,8,-1
 1600 1200 l 2,9,10
 1274 1202 1274 1202 1270 1328 c 0,11,12
 1272 1350 1272 1350 1404 1632 c 1,13,-1
 1404 1624 l 1,14,15
 1540 1838 1540 1838 1664 1868 c 0,16,17
 1728 1876 1728 1876 1758 1846 c 1,18,19
 1720 1690 1720 1690 1684 1604 c 1,20,21
 1650 1632 1650 1632 1618 1632 c 0,22,23
 1512 1632 1512 1632 1396 1522 c 0,24,25
 1392 1510 1392 1510 1394 1498 c 0,26,27
 1394 1430 1394 1430 1650 1414 c 0,28,29
 1714 1410 1714 1410 1734 1408 c 0,30,31
 1818 1400 1818 1400 1822 1334 c 1,32,-1
 1818 1312 l 1,33,-1
 1756 1172 l 1,0,1
3268 212 m 0,34,35
 3268 64 3268 64 3174 64 c 2,36,-1
 3164 64 l 1,37,38
 2896 162 2896 162 2789 346 c 128,-1,39
 2682 530 2682 530 2636 748 c 1,40,41
 2618 472 2618 472 2508 300 c 1,42,43
 2054 -48 2054 -48 1488 -216 c 0,44,45
 1166 -312 1166 -312 920 -308 c 0,46,47
 524 -304 524 -304 340 -76 c 1,48,49
 242 90 242 90 242 260 c 0,50,51
 240 430 240 430 368 744 c 0,52,53
 384 782 384 782 388 768 c 0,54,55
 396 748 396 748 392 746 c 0,56,57
 326 568 326 568 330 442 c 0,58,59
 336 62 336 62 782 -38 c 0,60,61
 852 -54 852 -54 974 -52 c 0,62,63
 1500 -52 1500 -52 2150 282 c 0,64,65
 2382 402 2382 402 2522 516 c 1,66,67
 2578 826 2578 826 2370 3094 c 1,68,69
 2354 3150 2354 3150 2355 3179 c 128,-1,70
 2356 3208 2356 3208 2446 3460 c 1,71,72
 2448 3456 2448 3456 2464 3390 c 0,73,74
 2584 2918 2584 2918 2636 2016 c 0,75,76
 2680 1232 2680 1232 2740 924 c 0,77,78
 2782 706 2782 706 2844 600 c 0,79,80
 2988 370 2988 370 3238 298 c 1,81,82
 3266 280 3266 280 3268 212 c 0,34,35
EndSplineSet
EndChar

StartChar: KAF_B0M
Encoding: 59829 59829 90
Width: 1558
GlyphClass: 2
Flags: W
AnchorPoint: "Anchor-2" 206 -334 basechar 0
AnchorPoint: "Anchor-1" 140 3194 basechar 0
AnchorPoint: "Cursive-0" -140 188 exit 0
AnchorPoint: "Cursive-0" 1436 342 entry 0
LayerCount: 2
Fore
SplineSet
1380 3318 m 1,0,1
 1568 3298 1568 3298 1568 3182 c 0,2,3
 1568 3116 1568 3116 1527 3032 c 128,-1,4
 1486 2948 1486 2948 1320 2714 c 0,5,6
 1164 2492 1164 2492 1116 2358 c 0,7,8
 1100 2314 1100 2314 1092 2314 c 0,9,10
 1086 2314 1086 2314 1086 2350 c 0,11,12
 1086 2372 1086 2372 1100 2420 c 0,13,14
 1156 2604 1156 2604 1378 2894 c 0,15,16
 1450 2988 1450 2988 1456 3011 c 128,-1,17
 1462 3034 1462 3034 1462 3046 c 0,18,19
 1456 3104 1456 3104 1356 3104 c 0,20,21
 1246 3104 1246 3104 1024 3030 c 0,22,23
 610 2890 610 2890 -46 2506 c 0,24,25
 -214 2408 -214 2408 -326 2330 c 0,26,27
 -446 2238 -446 2238 -508 2182 c 1,28,-1
 264 1686 l 2,29,30
 604 1470 604 1470 864 1108 c 0,31,32
 1228 600 1228 600 1510 580 c 0,33,34
 1540 578 1540 578 1542 502 c 0,35,36
 1544 358 1544 358 1436 342 c 1,37,38
 1168 348 1168 348 790 886 c 0,39,40
 562 1208 562 1208 354 1358 c 1,41,42
 544 1102 544 1102 554 898 c 1,43,44
 552 740 552 740 494 598 c 1,45,46
 376 384 376 384 -140 188 c 1,47,-1
 -148 188 l 2,48,49
 -198 194 -198 194 -200 258 c 0,50,51
 -202 378 -202 378 -66 428 c 0,52,53
 362 590 362 590 488 776 c 1,54,55
 426 1024 426 1024 100 1374 c 0,56,57
 -76 1564 -76 1564 -570 1986 c 0,58,59
 -598 2010 -598 2010 -630 2022 c 1,60,61
 -630 2130 -630 2130 -604 2294 c 1,62,63
 -572 2412 -572 2412 -292 2592 c 0,64,65
 308 2982 308 2982 956 3214 c 0,66,67
 1248 3318 1248 3318 1380 3318 c 1,0,1
EndSplineSet
EndChar

StartChar: KAF_M0B
Encoding: 59830 59830 91
Width: 1778
GlyphClass: 2
Flags: W
AnchorPoint: "Anchor-2" 964 -24 basechar 0
AnchorPoint: "Anchor-1" 340 3262 basechar 0
AnchorPoint: "Cursive-0" -114 158 exit 0
AnchorPoint: "Cursive-0" 1706 218 entry 0
LayerCount: 2
Fore
SplineSet
656 2160 m 2,0,-1
 1056 2240 l 1,1,2
 1096 2238 1096 2238 1102 2236 c 0,3,4
 1242 2194 1242 2194 1242 2090 c 1,5,6
 1232 2008 1232 2008 1192 1964 c 0,7,8
 1172 1940 1172 1940 912 1878 c 0,9,10
 664 1818 664 1818 580 1810 c 2,11,-1
 552 1808 l 2,12,13
 458 1804 458 1804 376 1829 c 128,-1,14
 294 1854 294 1854 260 1882 c 2,15,-1
 224 1914 l 1,16,-1
 370 1898 l 2,17,18
 384 1896 384 1896 488 1902 c 0,19,20
 564 1906 564 1906 814 1956 c 128,-1,21
 1064 2006 1064 2006 1186 2060 c 1,22,23
 1156 2130 1156 2130 1032 2126 c 1,24,-1
 1020 2124 l 1,25,-1
 656 2050 l 1,26,27
 568 2050 568 2050 552 2088 c 0,28,29
 534 2136 534 2136 582 2244 c 0,30,31
 652 2414 652 2414 782 2488 c 0,32,33
 846 2524 846 2524 872 2512 c 0,34,35
 894 2504 894 2504 898 2492 c 2,36,-1
 858 2348 l 1,37,-1
 828 2372 l 1,38,39
 776 2384 776 2384 730 2346 c 0,40,41
 636 2268 636 2268 592 2182 c 1,42,43
 620 2160 620 2160 656 2160 c 2,0,-1
816 872 m 1,44,-1
 816 836 l 2,45,46
 816 688 816 688 768 538 c 1,47,48
 706 400 706 400 434 264 c 0,49,50
 222 158 222 158 -114 158 c 0,51,52
 -150 164 -150 164 -152 234 c 0,53,54
 -154 308 -154 308 -104 352 c 0,55,56
 -58 394 -58 394 -40 396 c 0,57,58
 232 402 232 402 472 502 c 0,59,60
 698 598 698 598 756 740 c 1,61,62
 676 1078 676 1078 54 1606 c 0,63,64
 -380 1974 -380 1974 -406 2002 c 0,65,66
 -418 2014 -418 2014 -418 2036 c 0,67,68
 -418 2156 -418 2156 -387 2265 c 128,-1,69
 -356 2374 -356 2374 -76 2552 c 0,70,71
 582 2972 582 2972 1172 3186 c 0,72,73
 1448 3286 1448 3286 1616 3290 c 2,74,-1
 1646 3290 l 1,75,76
 1796 3270 1796 3270 1796 3160 c 0,77,78
 1796 3044 1796 3044 1586 2758 c 0,79,80
 1388 2488 1388 2488 1330 2324 c 0,81,82
 1314 2280 1314 2280 1308 2280 c 128,-1,83
 1302 2280 1302 2280 1302 2316 c 0,84,85
 1302 2346 1302 2346 1316 2386 c 0,86,87
 1368 2554 1368 2554 1560 2812 c 0,88,89
 1650 2932 1650 2932 1660 2962 c 0,90,91
 1674 3008 1674 3008 1672 3012 c 0,92,93
 1668 3068 1668 3068 1554 3070 c 0,94,95
 1444 3070 1444 3070 1208 2990 c 0,96,97
 818 2860 818 2860 162 2466 c 0,98,99
 -148 2280 -148 2280 -286 2160 c 1,100,101
 -84 2046 -84 2046 204 1846 c 128,-1,102
 492 1646 492 1646 520 1628 c 0,103,104
 862 1388 862 1388 1068 1108 c 0,105,106
 1324 760 1324 760 1392 689 c 128,-1,107
 1460 618 1460 618 1548 554 c 0,108,109
 1616 504 1616 504 1780 452 c 0,110,111
 1824 438 1824 438 1826 350 c 0,112,113
 1828 264 1828 264 1758 230 c 0,114,115
 1734 218 1734 218 1714 218 c 2,116,-1
 1706 218 l 1,117,118
 1528 280 1528 280 1420 374 c 0,119,120
 1292 484 1292 484 1036 844 c 0,121,122
 784 1198 784 1198 576 1348 c 1,123,124
 796 1074 796 1074 816 872 c 1,44,-1
EndSplineSet
EndChar

StartChar: KAF_M0M
Encoding: 59831 59831 92
Width: 1350
GlyphClass: 2
Flags: W
AnchorPoint: "Anchor-2" 742 -18 basechar 0
AnchorPoint: "Anchor-1" 180 3304 basechar 0
AnchorPoint: "Cursive-0" -8 256 exit 0
AnchorPoint: "Cursive-0" 1354 296 entry 0
LayerCount: 2
Fore
SplineSet
1372 3320 m 1,0,1
 1556 3300 1556 3300 1560 3178 c 0,2,3
 1556 3052 1556 3052 1355 2778 c 128,-1,4
 1154 2504 1154 2504 1104 2358 c 0,5,6
 1086 2322 1086 2322 1080 2320 c 0,7,8
 1070 2328 1070 2328 1070 2356 c 128,-1,9
 1070 2384 1070 2384 1084 2420 c 0,10,11
 1140 2604 1140 2604 1350 2872 c 0,12,13
 1434 2982 1434 2982 1439 3005 c 128,-1,14
 1444 3028 1444 3028 1448 3042 c 0,15,16
 1438 3104 1438 3104 1340 3104 c 0,17,18
 1230 3104 1230 3104 1012 3030 c 0,19,20
 596 2888 596 2888 -62 2504 c 0,21,22
 -228 2408 -228 2408 -338 2332 c 0,23,24
 -458 2240 -458 2240 -522 2184 c 1,25,26
 -196 2004 -196 2004 184 1746 c 0,27,28
 518 1526 518 1526 759 1183 c 128,-1,29
 1000 840 1000 840 1048 784 c 0,30,31
 1240 580 1240 580 1430 528 c 0,32,33
 1484 508 1484 508 1484 436 c 0,34,35
 1484 368 1484 368 1408 314 c 0,36,37
 1384 298 1384 298 1362 296 c 2,38,-1
 1354 296 l 1,39,40
 1234 334 1234 334 1102 438 c 128,-1,41
 970 542 970 542 733 895 c 128,-1,42
 496 1248 496 1248 326 1408 c 1,43,44
 554 1118 554 1118 558 930 c 0,45,46
 558 918 558 918 558 906 c 0,47,48
 558 732 558 732 502 610 c 0,49,50
 408 414 408 414 -8 256 c 1,51,-1
 -12 256 l 2,52,53
 -46 262 -46 262 -46 340 c 0,54,55
 -46 412 -46 412 26 476 c 0,56,57
 48 492 48 492 66 498 c 0,58,59
 438 632 438 632 494 790 c 1,60,61
 434 1034 434 1034 167 1306 c 128,-1,62
 -100 1578 -100 1578 -582 1988 c 1,63,-1
 -642 2024 l 1,64,65
 -642 2132 -642 2132 -616 2296 c 1,66,67
 -586 2404 -586 2404 -304 2592 c 0,68,69
 304 2980 304 2980 944 3212 c 0,70,71
 1238 3320 1238 3320 1372 3320 c 1,0,1
EndSplineSet
EndChar

StartChar: LAM_00M
Encoding: 59832 59832 93
Width: 850
GlyphClass: 2
Flags: W
AnchorPoint: "Anchor-2" 432 -412 basechar 0
AnchorPoint: "Anchor-1" 232 3596 basechar 0
AnchorPoint: "Cursive-0" 42 94 exit 0
LayerCount: 2
Fore
SplineSet
390 2818 m 1,0,-1
 364 2822 l 1,1,-1
 360 2816 l 1,2,3
 528 1390 528 1390 530 1050 c 0,4,5
 530 648 530 648 396 372 c 0,6,7
 322 226 322 226 84 112 c 0,8,9
 60 100 60 100 42 94 c 2,10,-1
 38 94 l 2,11,12
 18 100 18 100 20 172 c 0,13,14
 20 238 20 238 60 282 c 0,15,16
 102 330 102 330 116 336 c 0,17,18
 352 424 352 424 404 554 c 0,19,20
 404 568 404 568 390 812 c 128,-1,21
 376 1056 376 1056 348 1461 c 128,-1,22
 320 1866 320 1866 188 3072 c 1,23,-1
 160 3138 l 1,24,-1
 278 3372 l 1,25,26
 300 3320 300 3320 351 3194 c 128,-1,27
 402 3068 402 3068 432 2998 c 0,28,29
 524 2740 524 2740 524 2710 c 0,30,31
 524 2688 524 2688 518 2686 c 0,32,33
 490 2690 490 2690 390 2818 c 1,0,-1
EndSplineSet
EndChar

StartChar: LAM_M00
Encoding: 59833 59833 94
Width: 2996
GlyphClass: 2
Flags: W
AnchorPoint: "Anchor-2" 1942 -502 basechar 0
AnchorPoint: "Anchor-1" 1378 1904 basechar 0
AnchorPoint: "Cursive-0" 2880 30 entry 0
LayerCount: 2
Fore
SplineSet
970 -404 m 1,0,1
 294 -364 294 -364 282 320 c 0,2,3
 284 628 284 628 418 918 c 0,4,5
 442 970 442 970 463 971 c 128,-1,6
 484 972 484 972 466 928 c 0,7,8
 422 850 422 850 394 709 c 128,-1,9
 366 568 366 568 366 476 c 0,10,11
 366 134 366 134 628 -38 c 0,12,13
 790 -142 790 -142 1018 -144 c 0,14,15
 1138 -144 1138 -144 1258 -116 c 0,16,17
 1848 14 1848 14 2330 478 c 0,18,19
 2342 488 2342 488 2346 494 c 2,20,-1
 2346 612 l 2,21,22
 2346 1264 2346 1264 2144 3086 c 0,23,24
 2144 3094 2144 3094 2142 3108 c 2,25,-1
 2174 3204 l 2,26,27
 2212 3320 2212 3320 2232 3374 c 1,28,29
 2364 2916 2364 2916 2420 1973 c 128,-1,30
 2476 1030 2476 1030 2524 831 c 128,-1,31
 2572 632 2572 632 2618 550 c 0,32,33
 2752 320 2752 320 2956 264 c 0,34,35
 2994 252 2994 252 2994 174 c 128,-1,36
 2994 96 2994 96 2928 46 c 0,37,38
 2906 32 2906 32 2888 30 c 2,39,-1
 2880 30 l 1,40,41
 2522 160 2522 160 2440 686 c 1,42,43
 2430 516 2430 516 2386 404 c 128,-1,44
 2342 292 2342 292 2314 246 c 1,45,-1
 2112 74 l 1,46,47
 1500 -402 1500 -402 1022 -404 c 2,48,-1
 970 -404 l 1,0,1
EndSplineSet
EndChar

StartChar: LAM_B0M
Encoding: 59834 59834 95
Width: 800
GlyphClass: 2
Flags: W
AnchorPoint: "Anchor-2" 462 -282 basechar 0
AnchorPoint: "Anchor-1" 182 3552 basechar 0
AnchorPoint: "Cursive-0" 34 178 exit 0
AnchorPoint: "Cursive-0" 860 100 entry 0
LayerCount: 2
Fore
SplineSet
744 418 m 0,0,1
 802 348 802 348 932 336 c 0,2,3
 974 332 974 332 974 238 c 0,4,5
 976 142 976 142 896 108 c 0,6,7
 876 100 876 100 860 100 c 0,8,9
 674 100 674 100 578 356 c 0,10,11
 534 470 534 470 496 798 c 1,12,13
 472 606 472 606 380 444 c 0,14,15
 280 274 280 274 34 178 c 1,16,-1
 26 178 l 2,17,18
 -16 184 -16 184 -16 242 c 0,19,20
 -18 374 -18 374 110 420 c 0,21,22
 292 478 292 478 372 608 c 0,23,24
 444 718 444 718 432 1008 c 0,25,26
 404 1610 404 1610 278 2714 c 0,27,28
 254 2940 254 2940 222 3140 c 1,29,-1
 222 3142 l 1,30,31
 242 3208 242 3208 318 3410 c 1,32,33
 334 3324 334 3324 342 3286 c 0,34,35
 482 2666 482 2666 556 1560 c 0,36,37
 594 974 594 974 606 868 c 0,38,39
 644 542 644 542 744 418 c 0,0,1
EndSplineSet
EndChar

StartChar: LAM_M0B
Encoding: 59835 59835 96
Width: 978
GlyphClass: 2
Flags: W
AnchorPoint: "Anchor-2" 442 -118 basechar 0
AnchorPoint: "Anchor-1" 202 3618 basechar 0
AnchorPoint: "Cursive-0" -48 46 exit 0
AnchorPoint: "Cursive-0" 904 116 entry 0
LayerCount: 2
Fore
SplineSet
630 596 m 0,0,1
 750 424 750 424 978 348 c 0,2,3
 1014 336 1014 336 1016 250 c 128,-1,4
 1018 164 1018 164 948 126 c 0,5,6
 930 116 930 116 908 116 c 2,7,-1
 904 116 l 1,8,9
 712 164 712 164 586 328 c 0,10,11
 460 494 460 494 426 686 c 1,12,13
 404 406 404 406 310 248 c 0,14,15
 190 44 190 44 -48 46 c 0,16,17
 -84 54 -84 54 -88 134 c 0,18,19
 -90 206 -90 206 -42 244 c 128,-1,20
 6 282 6 282 26 284 c 0,21,22
 222 300 222 300 320 444 c 1,23,24
 336 668 336 668 320 970 c 0,25,26
 294 1458 294 1458 222 2296 c 0,27,28
 166 2944 166 2944 136 3108 c 0,29,30
 126 3164 126 3164 124 3174 c 2,31,-1
 180 3340 l 2,32,33
 210 3426 210 3426 214 3438 c 1,34,35
 346 2986 346 2986 416 1948 c 0,36,37
 476 1106 476 1106 502 948 c 0,38,39
 540 726 540 726 630 596 c 0,0,1
EndSplineSet
EndChar

StartChar: LAM_M0M
Encoding: 59836 59836 97
Width: 1100
GlyphClass: 2
Flags: W
AnchorPoint: "Anchor-2" 570 -218 basechar 0
AnchorPoint: "Anchor-1" 324 3650 basechar 0
AnchorPoint: "Cursive-0" 144 164 exit 0
AnchorPoint: "Cursive-0" 984 140 entry 0
LayerCount: 2
Fore
SplineSet
358 3374 m 0,0,1
 482 2920 482 2920 543 1976 c 128,-1,2
 604 1032 604 1032 681 759 c 128,-1,3
 758 486 758 486 978 402 c 0,4,5
 1014 386 1014 386 1058 374 c 0,6,7
 1124 348 1124 348 1122 280 c 0,8,9
 1122 216 1122 216 1042 160 c 0,10,11
 1012 140 1012 140 984 140 c 1,12,13
 788 210 788 210 672 402 c 0,14,15
 616 494 616 494 546 766 c 1,16,17
 530 600 530 600 484 466 c 2,18,-1
 468 420 l 1,19,20
 398 260 398 260 144 164 c 1,21,-1
 140 164 l 2,22,23
 66 170 66 170 62 234 c 0,24,25
 62 330 62 330 182 388 c 0,26,27
 204 398 204 398 220 404 c 0,28,29
 384 460 384 460 448 572 c 1,30,31
 456 722 456 722 456 824 c 0,32,33
 456 1488 456 1488 252 3168 c 0,34,35
 254 3178 254 3178 342 3440 c 1,36,37
 344 3434 344 3434 358 3374 c 0,0,1
EndSplineSet
EndChar

StartChar: MIM_00M
Encoding: 59837 59837 98
Width: 340
GlyphClass: 2
Flags: W
AnchorPoint: "Anchor-2" 288 40 basechar 0
AnchorPoint: "Anchor-1" -54 1702 basechar 0
AnchorPoint: "Cursive-0" -54 102 exit 0
LayerCount: 2
Fore
SplineSet
304 1068 m 0,0,1
 412 1068 412 1068 464 911 c 128,-1,2
 516 754 516 754 513 658 c 128,-1,3
 510 562 510 562 480 486 c 0,4,5
 444 396 444 396 386 338 c 0,6,7
 276 240 276 240 78 146 c 1,8,-1
 72 76 l 2,9,10
 62 32 62 32 48 72 c 0,11,12
 48 78 48 78 46 103 c 128,-1,13
 44 128 44 128 44 138 c 1,14,-1
 -54 102 l 1,15,16
 -80 108 -80 108 -82 182 c 0,17,18
 -82 272 -82 272 -14 320 c 2,19,-1
 20 344 l 1,20,-1
 34 348 l 1,21,-1
 36 406 l 1,22,23
 38 760 38 760 166 964 c 0,24,25
 230 1066 230 1066 304 1068 c 0,0,1
84 364 m 1,26,27
 330 466 330 466 430 566 c 0,28,29
 444 580 444 580 448 588 c 0,30,31
 406 766 406 766 296 822 c 0,32,33
 288 826 288 826 276 826 c 0,34,35
 198 826 198 826 142 694 c 0,36,37
 96 584 96 584 84 364 c 1,26,27
EndSplineSet
EndChar

StartChar: MIM_M00
Encoding: 59838 59838 99
Width: 1960
GlyphClass: 2
Flags: W
AnchorPoint: "Anchor-2" 1160 -500 basechar 0
AnchorPoint: "Anchor-1" 1066 1116 basechar 0
AnchorPoint: "Cursive-0" 1934 6 entry 0
LayerCount: 2
Fore
SplineSet
24 402 m 0,0,1
 16 368 16 368 -87 159 c 128,-1,2
 -190 -50 -190 -50 -208 -216 c 1,3,4
 -208 -360 -208 -360 -84 -412 c 0,5,6
 -60 -422 -60 -422 -36 -426 c 2,7,-1
 -16 -426 l 2,8,9
 128 -426 128 -426 374 -180 c 2,10,-1
 472 -84 l 1,11,12
 788 240 788 240 988 350 c 128,-1,13
 1188 460 1188 460 1388 462 c 2,14,-1
 1412 462 l 2,15,16
 1474 460 1474 460 1518 440 c 1,17,18
 1518 448 1518 448 1521 459 c 128,-1,19
 1524 470 1524 470 1526 477 c 128,-1,20
 1528 484 1528 484 1530 494 c 128,-1,21
 1532 504 1532 504 1536 509 c 128,-1,22
 1540 514 1540 514 1548 540 c 1,23,24
 1622 346 1622 346 2008 240 c 0,25,26
 2028 228 2028 228 2028 142 c 0,27,28
 2028 62 2028 62 1968 16 c 0,29,30
 1952 6 1952 6 1938 6 c 2,31,-1
 1934 6 l 1,32,33
 1898 18 1898 18 1862 32 c 1,34,-1
 1866 -10 l 1,35,-1
 1866 -50 l 2,36,37
 1866 -160 1866 -160 1840 -216 c 0,38,39
 1836 -216 1836 -216 1824 -210 c 128,-1,40
 1812 -204 1812 -204 1798 -200 c 0,41,42
 1508 -126 1508 -126 1494 220 c 0,43,44
 1490 220 1490 220 1490 224 c 2,45,-1
 1486 228 l 1,46,47
 1404 258 1404 258 1330 258 c 0,48,49
 1070 258 1070 258 702 -104 c 0,50,51
 650 -156 650 -156 552 -256 c 0,52,53
 284 -538 284 -538 198 -579 c 128,-1,54
 112 -620 112 -620 66 -622 c 2,55,-1
 42 -622 l 1,56,57
 -126 -596 -126 -596 -202 -484 c 0,58,59
 -274 -372 -274 -372 -276 -244 c 1,60,-1
 -272 -192 l 2,61,62
 -252 34 -252 34 -28 380 c 0,63,64
 -6 410 -6 410 4 414 c 0,65,66
 18 410 18 410 24 402 c 0,0,1
EndSplineSet
EndChar

StartChar: MIM_B0M
Encoding: 59839 59839 100
Width: 970
GlyphClass: 2
Flags: W
AnchorPoint: "Anchor-2" 294 -474 basechar 0
AnchorPoint: "Anchor-1" 522 1136 basechar 0
AnchorPoint: "Cursive-0" 2 -30 exit 0
AnchorPoint: "Cursive-0" 914 -50 entry 0
LayerCount: 2
Fore
SplineSet
914 -50 m 1024,0,-1
988 184 m 1024,1,-1
502 350 m 1,2,-1
 522 434 l 1,3,4
 528 424 528 424 590 362 c 0,5,6
 756 196 756 196 988 184 c 0,7,8
 1058 180 1058 180 1016 64 c 0,9,10
 976 -48 976 -48 914 -50 c 0,11,12
 868 -50 868 -50 796 -24 c 1,13,14
 806 -168 806 -168 762 -322 c 1,15,16
 464 -238 464 -238 464 98 c 0,17,18
 464 148 464 148 368 118 c 0,19,20
 364 118 364 118 154 30 c 0,21,22
 90 4 90 4 2 -30 c 1,23,24
 -14 -22 -14 -22 -12 42 c 0,25,26
 -12 118 -12 118 48 186 c 0,27,28
 70 210 70 210 78 212 c 0,29,30
 188 248 188 248 330 310 c 0,31,32
 450 362 450 362 502 350 c 1,2,-1
EndSplineSet
EndChar

StartChar: MIM_M0B
Encoding: 59840 59840 101
Width: 1286
GlyphClass: 2
Flags: W
AnchorPoint: "Anchor-2" 866 -320 basechar 0
AnchorPoint: "Anchor-1" 644 1838 basechar 0
AnchorPoint: "Cursive-0" -64 44 exit 0
AnchorPoint: "Cursive-0" 1272 88 entry 0
LayerCount: 2
Fore
SplineSet
382 408 m 1,0,1
 218 58 218 58 -64 44 c 1,2,3
 -106 52 -106 52 -108 104 c 0,4,5
 -108 214 -108 214 -38 264 c 0,6,7
 -14 282 -14 282 10 282 c 0,8,9
 250 288 250 288 378 494 c 0,10,11
 402 530 402 530 458 634 c 1,12,-1
 462 638 l 1,13,14
 472 632 472 632 482 616 c 1,15,16
 590 802 590 802 710 832 c 1,17,-1
 726 832 l 2,18,19
 822 832 822 832 956 610 c 0,20,21
 962 600 962 600 964 598 c 0,22,23
 1096 392 1096 392 1322 330 c 0,24,25
 1336 326 1336 326 1346 322 c 0,26,27
 1382 306 1382 306 1384 212 c 128,-1,28
 1386 118 1386 118 1312 94 c 0,29,30
 1294 88 1294 88 1280 88 c 2,31,-1
 1272 88 l 1,32,33
 1080 152 1080 152 934 296 c 0,34,35
 922 308 922 308 914 314 c 1,36,37
 894 252 894 252 858 196 c 1,38,-1
 854 196 l 2,39,40
 600 202 600 202 400 388 c 1,41,-1
 382 408 l 1,0,1
544 556 m 1,42,43
 658 476 658 476 824 430 c 1,44,45
 746 554 746 554 708 579 c 128,-1,46
 670 604 670 604 635 604 c 128,-1,47
 600 604 600 604 544 556 c 1,42,43
EndSplineSet
EndChar

StartChar: MIM_M0M
Encoding: 59841 59841 102
Width: 970
GlyphClass: 2
Flags: W
AnchorPoint: "Anchor-2" 610 -608 basechar 0
AnchorPoint: "Anchor-1" 594 1460 basechar 0
AnchorPoint: "Cursive-0" 132 8 exit 0
AnchorPoint: "Cursive-0" 1070 -40 entry 0
LayerCount: 2
Fore
SplineSet
598 134 m 0,0,1
 598 190 598 190 522 163 c 128,-1,2
 446 136 446 136 284 68 c 0,3,4
 220 42 220 42 132 8 c 1,5,6
 116 16 116 16 118 80 c 0,7,8
 118 156 118 156 178 224 c 0,9,10
 200 248 200 248 208 250 c 0,11,12
 318 286 318 286 460 348 c 0,13,14
 580 400 580 400 632 388 c 1,15,16
 634 402 634 402 647 451 c 128,-1,17
 660 500 660 500 662 508 c 1,18,19
 788 306 788 306 1146 194 c 1,20,21
 1182 174 1182 174 1183 105 c 128,-1,22
 1184 36 1184 36 1141 -1 c 128,-1,23
 1098 -38 1098 -38 1082 -40 c 2,24,-1
 1070 -40 l 1,25,26
 986 -10 986 -10 960 4 c 1,27,-1
 960 -36 l 2,28,29
 960 -166 960 -166 932 -274 c 1,30,31
 598 -210 598 -210 598 134 c 0,0,1
EndSplineSet
EndChar

StartChar: HAA_00M
Encoding: 59842 59842 103
Width: 1396
GlyphClass: 2
Flags: W
AnchorPoint: "Anchor-2" 660 -230 basechar 0
AnchorPoint: "Anchor-1" 248 2576 basechar 0
AnchorPoint: "Cursive-0" 20 2 exit 0
LayerCount: 2
Fore
SplineSet
590 1858 m 0,0,1
 562 1828 562 1828 540 1828 c 0,2,3
 478 1828 478 1828 392 1854 c 1,4,5
 384 1836 384 1836 376 1820 c 0,6,7
 216 1524 216 1524 -80 1304 c 0,8,9
 -254 1176 -254 1176 -336 1140 c 2,10,-1
 -418 1104 l 1,11,-1
 -202 1272 l 2,12,13
 -94 1356 -94 1356 22 1464 c 0,14,15
 232 1658 232 1658 356 1862 c 1,16,17
 270 1884 270 1884 240 1900 c 0,18,19
 214 1914 214 1914 208 1940 c 0,20,21
 194 2016 194 2016 302 2156 c 1,22,23
 272 2180 272 2180 238 2110 c 0,24,25
 234 2102 234 2102 232 2096 c 1,26,27
 240 2232 240 2232 304 2248 c 1,28,-1
 314 2248 l 2,29,30
 402 2248 402 2248 562 2052 c 0,31,32
 650 1944 650 1944 590 1858 c 0,0,1
398 2022 m 0,33,34
 386 2114 386 2114 336 2106 c 128,-1,35
 286 2098 286 2098 246 2014 c 1,36,37
 248 1980 248 1980 394 1948 c 1,38,39
 400 2000 400 2000 398 2022 c 0,33,34
438 2058 m 1,40,-1
 434 2024 l 2,41,42
 430 1994 430 1994 416 1942 c 1,43,44
 550 1908 550 1908 570 1926 c 1,45,46
 530 1982 530 1982 438 2058 c 1,40,-1
852 1166 m 1,47,-1
 750 1170 l 2,48,49
 732 1170 732 1170 728 1156 c 1,50,51
 880 1030 880 1030 1152 874 c 1,52,53
 1364 740 1364 740 1364 536 c 0,54,55
 1364 296 1364 296 1292 250 c 0,56,57
 1210 194 1210 194 1034 194 c 0,58,59
 830 196 830 196 578 268 c 1,60,61
 234 74 234 74 20 2 c 0,62,63
 -22 -8 -22 -8 -28 48 c 0,64,65
 -32 136 -32 136 54 212 c 0,66,67
 78 234 78 234 96 244 c 0,68,69
 168 266 168 266 356 354 c 1,70,71
 238 416 238 416 240 548 c 0,72,73
 240 652 240 652 278 734 c 0,74,75
 376 932 376 932 422 990 c 128,-1,76
 468 1048 468 1048 538 1104 c 1,77,-1
 522 1112 l 1,78,-1
 506 1374 l 1,79,80
 528 1364 528 1364 662 1303 c 128,-1,81
 796 1242 796 1242 864 1208 c 1,82,83
 908 1174 908 1174 852 1166 c 1,47,-1
322 704 m 1,84,85
 380 558 380 558 612 482 c 1,86,87
 718 546 718 546 786 622 c 1,88,89
 782 830 782 830 668 926 c 0,90,91
 634 948 634 948 596 948 c 0,92,93
 472 946 472 946 322 704 c 1,84,85
774 442 m 1,94,95
 924 412 924 412 1077 412 c 128,-1,96
 1230 412 1230 412 1288 432 c 1,97,98
 1262 552 1262 552 1108 666 c 0,99,100
 1064 698 1064 698 974 753 c 128,-1,101
 884 808 884 808 844 836 c 1,102,-1
 844 784 l 2,103,104
 844 600 844 600 774 442 c 1,94,95
EndSplineSet
AlternateSubs2: "'swsh' Swash in Arabic lookup 9 subtable" HAA_10M
EndChar

StartChar: HAA_M00
Encoding: 59843 59843 104
Width: 1310
GlyphClass: 2
Flags: W
AnchorPoint: "Anchor-2" 438 26 basechar 0
AnchorPoint: "Anchor-1" 488 3136 basechar 0
AnchorPoint: "Cursive-0" 1286 64 entry 0
LayerCount: 2
Fore
SplineSet
850 2438 m 0,0,1
 822 2408 822 2408 800 2408 c 0,2,3
 738 2408 738 2408 652 2434 c 1,4,5
 644 2416 644 2416 636 2400 c 0,6,7
 476 2104 476 2104 180 1884 c 0,8,9
 6 1756 6 1756 -76 1720 c 2,10,-1
 -158 1684 l 1,11,-1
 58 1852 l 2,12,13
 166 1936 166 1936 282 2044 c 0,14,15
 492 2238 492 2238 616 2442 c 1,16,17
 530 2464 530 2464 500 2480 c 0,18,19
 474 2494 474 2494 468 2520 c 0,20,21
 454 2596 454 2596 562 2736 c 1,22,23
 532 2760 532 2760 498 2690 c 0,24,25
 494 2682 494 2682 492 2676 c 1,26,27
 500 2812 500 2812 564 2828 c 1,28,-1
 574 2828 l 2,29,30
 662 2828 662 2828 822 2632 c 0,31,32
 910 2524 910 2524 850 2438 c 0,0,1
658 2602 m 0,33,34
 646 2694 646 2694 596 2686 c 128,-1,35
 546 2678 546 2678 506 2594 c 1,36,37
 508 2560 508 2560 654 2528 c 1,38,39
 660 2580 660 2580 658 2602 c 0,33,34
698 2638 m 1,40,-1
 694 2604 l 2,41,42
 690 2574 690 2574 676 2522 c 1,43,44
 810 2488 810 2488 830 2506 c 1,45,46
 790 2562 790 2562 698 2638 c 1,40,-1
1038 468 m 0,47,48
 1150 340 1150 340 1360 298 c 1,49,50
 1400 280 1400 280 1400 202 c 0,51,52
 1400 128 1400 128 1334 76 c 0,53,54
 1312 62 1312 62 1294 64 c 2,55,-1
 1286 64 l 1,56,57
 1152 110 1152 110 1078 168 c 0,58,59
 908 314 908 314 830 600 c 0,60,61
 806 700 806 700 786 764 c 1,62,63
 736 576 736 576 712 530 c 0,64,65
 634 414 634 414 386 328 c 0,66,67
 294 298 294 298 242 298 c 0,68,69
 128 298 128 298 106 454 c 0,70,71
 104 478 104 478 104 500 c 2,72,-1
 104 538 l 1,73,74
 114 652 114 652 161 781 c 128,-1,75
 208 910 208 910 273 1000 c 128,-1,76
 338 1090 338 1090 580 1366 c 1,77,78
 508 1524 508 1524 456 1608 c 1,79,-1
 456 1612 l 1,80,-1
 514 1826 l 2,81,82
 522 1846 522 1846 528 1860 c 1,83,84
 610 1720 610 1720 696 1504 c 1,85,86
 868 1716 868 1716 936 1858 c 0,87,88
 942 1876 942 1876 948 1868 c 2,89,-1
 948 1858 l 1,90,-1
 934 1720 l 1,91,92
 908 1614 908 1614 740 1392 c 1,93,94
 770 1294 770 1294 838 922 c 0,95,96
 894 634 894 634 1038 468 c 0,47,48
186 628 m 0,97,98
 194 566 194 566 274 566 c 0,99,100
 276 566 276 566 278 566 c 0,101,102
 358 566 358 566 506 634 c 0,103,104
 656 704 656 704 732 764 c 1,105,106
 730 1032 730 1032 646 1212 c 0,107,108
 632 1240 632 1240 630 1254 c 1,109,110
 588 1204 588 1204 502 1110 c 0,111,112
 240 820 240 820 200 702 c 0,113,114
 188 660 188 660 186 628 c 0,97,98
EndSplineSet
EndChar

StartChar: HAA_B0M
Encoding: 59844 59844 105
Width: 734
GlyphClass: 2
Flags: W
AnchorPoint: "Anchor-2" 578 -878 basechar 0
AnchorPoint: "Anchor-1" 426 2010 basechar 0
AnchorPoint: "Cursive-0" -76 -6 exit 0
AnchorPoint: "Cursive-0" 814 126 entry 0
LayerCount: 2
Fore
SplineSet
160 62 m 1,0,-1
 -76 -6 l 1,1,-1
 -88 -6 l 2,2,3
 -114 0 -114 0 -116 28 c 0,4,5
 -118 104 -118 104 -64 167 c 128,-1,6
 -10 230 -10 230 -2 236 c 2,7,-1
 268 312 l 1,8,9
 324 648 324 648 586 1172 c 0,10,11
 596 1192 596 1192 602 1212 c 1,12,13
 696 962 696 962 696 740 c 0,14,15
 696 652 696 652 684 584 c 0,16,17
 658 420 658 420 528 278 c 1,18,19
 694 308 694 308 890 366 c 1,20,21
 926 366 926 366 928 296 c 0,22,23
 930 164 930 164 814 126 c 0,24,25
 766 110 766 110 732 100 c 1,26,27
 902 -72 902 -72 906 -232 c 2,28,-1
 906 -254 l 2,29,30
 904 -302 904 -302 872 -384 c 0,31,32
 812 -538 812 -538 700 -540 c 0,33,34
 546 -542 546 -542 416 -388 c 0,35,36
 246 -188 246 -188 244 16 c 1,37,38
 198 16 198 16 154 10 c 1,39,-1
 156 32 l 2,40,41
 160 46 160 46 160 62 c 1,0,-1
516 908 m 1,42,43
 366 568 366 568 332 332 c 1,44,45
 478 388 478 388 606 500 c 1,46,47
 604 656 604 656 524 896 c 0,48,49
 522 902 522 902 516 908 c 1,42,43
362 16 m 1,50,51
 474 -220 474 -220 668 -292 c 0,52,53
 724 -312 724 -312 766 -311 c 128,-1,54
 808 -310 808 -310 822 -306 c 1,55,56
 810 -180 810 -180 662 -64 c 0,57,58
 542 22 542 22 362 20 c 1,59,-1
 362 16 l 1,50,51
EndSplineSet
EndChar

StartChar: HAA_M0B
Encoding: 59845 59845 106
Width: 962
GlyphClass: 2
Flags: W
AnchorPoint: "Anchor-2" 516 -228 basechar 0
AnchorPoint: "Anchor-1" 482 2102 basechar 0
AnchorPoint: "Cursive-0" 4 126 exit 0
AnchorPoint: "Cursive-0" 1022 40 entry 0
LayerCount: 2
Fore
SplineSet
550 418 m 1,0,1
 332 126 332 126 4 126 c 0,2,3
 -38 126 -38 126 -38 202 c 0,4,5
 -40 268 -40 268 10 314 c 128,-1,6
 60 360 60 360 80 362 c 0,7,8
 256 362 256 362 366 452 c 0,9,10
 376 460 376 460 382 464 c 1,11,12
 224 524 224 524 170 584 c 0,13,14
 124 636 124 636 124 722 c 0,15,16
 124 938 124 938 306 1188 c 0,17,18
 336 1232 336 1232 402 1284 c 1,19,-1
 388 1542 l 1,20,21
 530 1480 530 1480 744 1374 c 0,22,23
 798 1340 798 1340 736 1336 c 2,24,-1
 618 1336 l 1,25,26
 750 1240 750 1240 1030 1076 c 0,27,28
 1246 942 1246 942 1248 736 c 0,29,30
 1248 592 1248 592 1168 456 c 0,31,32
 1160 442 1160 442 1156 436 c 0,33,34
 1096 360 1096 360 842 382 c 1,35,36
 916 316 916 316 1098 274 c 0,37,38
 1140 264 1140 264 1140 186 c 0,39,40
 1142 116 1142 116 1072 58 c 0,41,42
 1050 40 1050 40 1026 40 c 2,43,-1
 1022 40 l 1,44,45
 844 94 844 94 784 236 c 0,46,47
 760 298 760 298 760 362 c 2,48,-1
 760 386 l 1,49,-1
 550 418 l 1,0,1
194 880 m 1,50,51
 256 718 256 718 572 642 c 1,52,53
 642 734 642 734 670 798 c 1,54,55
 666 1016 666 1016 546 1116 c 0,56,57
 512 1138 512 1138 478 1142 c 0,58,59
 348 1136 348 1136 194 880 c 1,50,51
658 622 m 1,60,61
 796 600 796 600 933 600 c 128,-1,62
 1070 600 1070 600 1172 626 c 1,63,64
 1146 746 1146 746 988 864 c 0,65,66
 970 876 970 876 854 946 c 128,-1,67
 738 1016 738 1016 728 1024 c 1,68,69
 728 992 728 992 712 830 c 1,70,-1
 712 826 l 1,71,72
 694 708 694 708 658 622 c 1,60,61
EndSplineSet
EndChar

StartChar: HAA_M0M
Encoding: 59846 59846 107
Width: 1078
GlyphClass: 2
Flags: W
AnchorPoint: "Anchor-2" 574 -86 basechar 0
AnchorPoint: "Anchor-1" 628 2174 basechar 0
AnchorPoint: "Cursive-0" 34 180 exit 0
AnchorPoint: "Cursive-0" 1128 24 entry 0
LayerCount: 2
Fore
SplineSet
732 1332 m 1,0,1
 766 1298 766 1298 1148 1074 c 0,2,3
 1364 940 1364 940 1364 726 c 0,4,5
 1364 554 1364 554 1266 432 c 0,6,7
 1214 380 1214 380 1089 381 c 128,-1,8
 964 382 964 382 932 384 c 1,9,10
 1030 298 1030 298 1202 258 c 0,11,12
 1268 242 1268 242 1268 162 c 128,-1,13
 1268 82 1268 82 1190 42 c 0,14,15
 1162 26 1162 26 1136 24 c 2,16,-1
 1128 24 l 1,17,18
 850 130 850 130 848 366 c 0,19,20
 848 376 848 376 852 392 c 1,21,22
 724 402 724 402 554 448 c 1,23,24
 228 252 228 252 34 180 c 0,25,26
 -10 172 -10 172 -12 236 c 0,27,28
 -14 372 -14 372 110 422 c 0,29,30
 262 478 262 478 354 534 c 1,31,32
 300 568 300 568 286 584 c 0,33,34
 240 636 240 636 242 730 c 0,35,36
 242 938 242 938 424 1186 c 0,37,38
 454 1230 454 1230 518 1284 c 1,39,-1
 508 1542 l 1,40,41
 668 1480 668 1480 856 1372 c 0,42,43
 920 1338 920 1338 852 1334 c 2,44,-1
 748 1334 l 2,45,46
 736 1334 736 1334 732 1332 c 1,0,1
310 878 m 1,47,48
 360 740 360 740 602 670 c 1,49,50
 728 744 728 744 786 810 c 1,51,52
 782 1020 782 1020 664 1120 c 1,53,54
 628 1140 628 1140 598 1144 c 0,55,56
 466 1138 466 1138 310 878 c 1,47,48
766 626 m 1,57,58
 916 604 916 604 1059 604 c 128,-1,59
 1202 604 1202 604 1284 626 c 1,60,61
 1258 746 1258 746 1104 860 c 0,62,63
 1086 872 1086 872 970 942 c 128,-1,64
 854 1012 854 1012 844 1020 c 1,65,-1
 844 954 l 2,66,67
 842 784 842 784 770 630 c 1,68,-1
 766 626 l 1,57,58
EndSplineSet
EndChar

StartChar: KSH_G
Encoding: 1600 1600 108
Width: 340
GlyphClass: 2
Flags: W
AnchorPoint: "Anchor-2" 238 -230 basechar 0
AnchorPoint: "Anchor-1" 388 924 basechar 0
AnchorPoint: "Cursive-0" -74 14 exit 0
AnchorPoint: "Cursive-0" 342 18 entry 0
LayerCount: 2
Fore
SplineSet
0 248 m 1,0,1
 96 222 96 222 200 222 c 0,2,3
 204 222 204 222 208 222 c 0,4,5
 300 224 300 224 416 260 c 1,6,-1
 420 260 l 1,7,8
 436 252 436 252 438 208 c 0,9,10
 438 80 438 80 358 28 c 0,11,12
 346 20 346 20 342 18 c 0,13,14
 232 -16 232 -16 116 -18 c 0,15,16
 16 -18 16 -18 -74 14 c 0,17,18
 -108 26 -108 26 -110 112 c 0,19,20
 -110 188 -110 188 -44 236 c 0,21,22
 -30 246 -30 246 -8 248 c 2,23,-1
 0 248 l 1,0,1
EndSplineSet
EndChar

StartChar: KSH_01
Encoding: 59852 59852 109
Width: 506
GlyphClass: 2
LigCaretCntFixed: 1
Flags: W
AnchorPoint: "Anchor-2" 238 -230 basechar 0
AnchorPoint: "Anchor-1" 388 924 basechar 0
AnchorPoint: "Cursive-0" -62 22 exit 0
AnchorPoint: "Cursive-0" 618 50 entry 0
LayerCount: 2
Fore
SplineSet
12 256 m 1,0,1
 156 218 156 218 304 218 c 0,2,3
 308 218 308 218 312 218 c 0,4,5
 464 220 464 220 692 292 c 1,6,-1
 696 292 l 1,7,8
 712 284 712 284 714 240 c 0,9,10
 714 112 714 112 634 60 c 0,11,12
 622 52 622 52 618 50 c 0,13,14
 412 -16 412 -16 222 -18 c 0,15,16
 62 -18 62 -18 -62 22 c 0,17,18
 -96 34 -96 34 -98 120 c 0,19,20
 -98 200 -98 200 -32 244 c 0,21,22
 -18 254 -18 254 4 256 c 2,23,-1
 12 256 l 1,0,1
EndSplineSet
Ligature2: "'rlig' Required Ligatures in Arabic lookup 66 subtable" KSH_G KSH_G
LCarets2: 1 54
EndChar

StartChar: KSH_02
Encoding: 59853 59853 110
Width: 832
GlyphClass: 2
Flags: W
AnchorPoint: "Anchor-2" 374 -180 basechar 0
AnchorPoint: "Anchor-1" 504 1428 basechar 0
AnchorPoint: "Cursive-0" -58 18 exit 0
AnchorPoint: "Cursive-0" 834 66 entry 0
LayerCount: 2
Fore
SplineSet
16 252 m 1,0,1
 164 210 164 210 396 210 c 0,2,3
 400 210 400 210 404 210 c 0,4,5
 604 212 604 212 910 308 c 1,6,-1
 914 308 l 1,7,8
 930 300 930 300 928 256 c 0,9,10
 928 126 928 126 850 74 c 0,11,12
 844 70 844 70 834 66 c 0,13,14
 582 -22 582 -22 304 -24 c 0,15,16
 68 -24 68 -24 -58 18 c 0,17,18
 -92 30 -92 30 -92 118 c 0,19,20
 -92 198 -92 198 -28 240 c 0,21,22
 -14 250 -14 250 10 252 c 2,23,-1
 16 252 l 1,0,1
EndSplineSet
Ligature2: "'rlig' Required Ligatures in Arabic lookup 66 subtable" KSH_G KSH_G KSH_G
EndChar

StartChar: KSH_03
Encoding: 59854 59854 111
Width: 1038
GlyphClass: 2
Flags: W
AnchorPoint: "Anchor-2" 390 -240 basechar 0
AnchorPoint: "Anchor-1" 574 1290 basechar 0
AnchorPoint: "Cursive-0" -56 2 exit 0
AnchorPoint: "Cursive-0" 1032 62 entry 0
LayerCount: 2
Fore
SplineSet
20 236 m 1,0,1
 238 182 238 182 464 182 c 0,2,3
 470 182 470 182 476 182 c 0,4,5
 742 184 742 184 1106 302 c 1,6,-1
 1110 302 l 1,7,8
 1126 294 1126 294 1126 252 c 0,9,10
 1126 116 1126 116 1048 70 c 0,11,12
 1038 64 1038 64 1032 62 c 0,13,14
 672 -56 672 -56 378 -56 c 0,15,16
 108 -56 108 -56 -56 2 c 0,17,18
 -90 14 -90 14 -90 102 c 0,19,20
 -90 176 -90 176 -24 224 c 0,21,22
 -10 234 -10 234 12 236 c 2,23,-1
 20 236 l 1,0,1
EndSplineSet
Ligature2: "'rlig' Required Ligatures in Arabic lookup 66 subtable" KSH_G KSH_G KSH_G KSH_G
EndChar

StartChar: KSH_04
Encoding: 59855 59855 112
Width: 1290
GlyphClass: 2
Flags: W
AnchorPoint: "Anchor-2" 552 -282 basechar 0
AnchorPoint: "Anchor-1" 582 1714 basechar 0
AnchorPoint: "Cursive-0" -72 46 exit 0
AnchorPoint: "Cursive-0" 1294 92 entry 0
LayerCount: 2
Fore
SplineSet
2 280 m 1,0,1
 340 190 340 190 620 192 c 0,2,3
 624 192 624 192 626 192 c 0,4,5
 934 194 934 194 1368 334 c 1,6,-1
 1372 334 l 1,7,8
 1388 326 1388 326 1388 286 c 0,9,10
 1388 138 1388 138 1314 102 c 0,11,12
 1302 96 1302 96 1294 92 c 0,13,14
 904 -40 904 -40 516 -40 c 0,15,16
 172 -40 172 -40 -72 46 c 0,17,18
 -106 58 -106 58 -108 144 c 0,19,20
 -108 220 -108 220 -42 268 c 0,21,22
 -28 278 -28 278 -6 280 c 2,23,-1
 2 280 l 1,0,1
EndSplineSet
Ligature2: "'rlig' Required Ligatures in Arabic lookup 66 subtable" KSH_G KSH_G KSH_G KSH_G KSH_G
EndChar

StartChar: AIN_00A
Encoding: 59856 59856 113
Width: 1068
GlyphClass: 2
Flags: W
AnchorPoint: "Anchor-2" 478 -418 basechar 0
AnchorPoint: "Anchor-1" 154 1856 basechar 0
AnchorPoint: "Cursive-0" -82 22 exit 0
LayerCount: 2
Fore
SplineSet
484 1030 m 0,0,1
 132 1026 132 1026 -122 866 c 1,2,3
 -108 618 -108 618 104 448 c 0,4,5
 244 340 244 340 382 338 c 0,6,7
 430 340 430 340 470 350 c 0,8,9
 808 466 808 466 1048 692 c 1,10,-1
 1054 696 l 1,11,12
 1058 690 1058 690 1058 688 c 0,13,14
 1056 636 1056 636 906 424 c 1,15,16
 696 194 696 194 308 76 c 0,17,18
 124 20 124 20 -28 18 c 1,19,-1
 -82 22 l 2,20,21
 -102 28 -102 28 -104 50 c 0,22,23
 -104 124 -104 124 -26 224 c 0,24,25
 -8 244 -8 244 4 252 c 1,26,27
 -230 438 -230 438 -246 710 c 0,28,29
 -246 746 -246 746 -242 762 c 0,30,31
 -210 914 -210 914 -104 1018 c 0,32,33
 54 1190 54 1190 286 1192 c 2,34,35
 286 1192 286 1192 288 1192 c 0,36,37
 524 1190 524 1190 778 1000 c 1,38,-1
 778 990 l 1,39,40
 768 988 768 988 760 988 c 0,41,42
 644 1030 644 1030 484 1030 c 0,0,1
EndSplineSet
EndChar

StartChar: BAA_B0S
Encoding: 59857 59857 114
Width: 686
GlyphClass: 2
Flags: W
AnchorPoint: "Anchor-2" 446 -1006 basechar 0
AnchorPoint: "Anchor-1" 334 1864 basechar 0
AnchorPoint: "Cursive-0" -16 14 exit 0
AnchorPoint: "Cursive-0" 698 30 entry 0
LayerCount: 2
Fore
SplineSet
702 30 m 1024,0,-1
404 416 m 1,1,2
 302 16 302 16 -16 14 c 1,3,4
 -48 26 -48 26 -52 70 c 0,5,6
 -52 170 -52 170 16 232 c 0,7,8
 38 248 38 248 60 248 c 0,9,10
 222 272 222 272 334 400 c 1,11,-1
 334 428 l 2,12,13
 332 726 332 726 214 1170 c 1,14,-1
 290 1426 l 1,15,16
 314 1366 314 1366 322 1344 c 0,17,18
 390 1172 390 1172 442 797 c 128,-1,19
 494 422 494 422 570 346 c 0,20,21
 646 274 646 274 766 268 c 0,22,23
 800 262 800 262 800 184 c 0,24,25
 800 110 800 110 738 50 c 0,26,27
 718 30 718 30 698 30 c 0,28,29
 582 34 582 34 505 140 c 128,-1,30
 428 246 428 246 404 416 c 1,1,2
446 -678 m 1,31,-1
 200 -490 l 1,32,-1
 346 -290 l 1,33,-1
 590 -468 l 1,34,-1
 446 -678 l 1,31,-1
EndSplineSet
Substitution2: "Single Substitution lookup 32 subtable" BAA_B0B
EndChar

StartChar: YHZJIM_000
Encoding: 64512 64512 115
Width: 2276
GlyphClass: 3
LigCaretCntFixed: 1
Flags: W
AnchorPoint: "Anchor-4" 1138 3306 baselig 0
AnchorPoint: "Anchor-3" 2044 462 baselig 0
AnchorPoint: "Anchor-4" 530 2170 baselig 1
AnchorPoint: "Anchor-3" 412 -1758 baselig 1
LayerCount: 2
Fore
SplineSet
1468 2638 m 1,0,-1
 1436 2552 l 1,1,-1
 1024 2374 l 1,2,-1
 1060 2466 l 1,3,4
 1092 2482 1092 2482 1166 2514 c 1,5,6
 1092 2540 1092 2540 1086 2596 c 1,7,8
 1090 2650 1090 2650 1152 2726 c 128,-1,9
 1214 2802 1214 2802 1270 2812 c 1,10,-1
 1284 2812 l 1,11,12
 1330 2802 1330 2802 1330 2762 c 1,13,-1
 1304 2652 l 1,14,-1
 1286 2692 l 1,15,16
 1264 2710 1264 2710 1240 2710 c 0,17,18
 1200 2710 1200 2710 1150 2662 c 1,19,20
 1172 2586 1172 2586 1280 2584 c 0,21,22
 1334 2586 1334 2586 1389 2608 c 128,-1,23
 1444 2630 1444 2630 1468 2638 c 1,0,-1
1526 2004 m 1,24,-1
 1506 2000 l 2,25,26
 1446 1986 1446 1986 1318 1735 c 128,-1,27
 1190 1484 1190 1484 1056 1356 c 0,28,29
 994 1300 994 1300 971 1283 c 128,-1,30
 948 1266 948 1266 940 1260 c 1,31,32
 1242 1260 1242 1260 2158 1280 c 1,33,-1
 2204 1280 l 1,34,-1
 2108 1012 l 1,35,-1
 2024 1012 l 1,36,37
 1330 832 1330 832 1020 660 c 0,38,39
 496 366 496 366 384 -128 c 0,40,41
 380 -176 380 -176 380 -254 c 0,42,43
 384 -672 384 -672 632 -914 c 1,44,45
 992 -1238 992 -1238 1972 -1238 c 0,46,47
 2296 -1238 2296 -1238 2898 -1186 c 1,48,49
 2756 -1242 2756 -1242 2552 -1325 c 128,-1,50
 2348 -1408 2348 -1408 2227 -1449 c 128,-1,51
 2106 -1490 2106 -1490 1808 -1490 c 0,52,53
 972 -1490 972 -1490 614 -1194 c 1,54,55
 318 -924 318 -924 318 -436 c 1,56,-1
 322 -292 l 2,57,58
 330 -80 330 -80 468 262 c 1,59,60
 710 738 710 738 1304 1016 c 1,61,-1
 1090 1016 l 2,62,63
 314 1016 314 1016 216 982 c 1,64,65
 218 986 218 986 314 1246 c 1,66,67
 822 1314 822 1314 1180 1730 c 0,68,69
 1316 1890 1316 1890 1398 2067 c 128,-1,70
 1480 2244 1480 2244 1568 2248 c 2,71,-1
 1576 2248 l 2,72,73
 1644 2244 1644 2244 1698 2160 c 1,74,75
 1738 2072 1738 2072 1738 1960 c 0,76,77
 1738 1822 1738 1822 1678 1638 c 1,78,79
 1646 2000 1646 2000 1526 2004 c 1,24,-1
1536 -380 m 1,80,-1
 1290 -198 l 1,81,-1
 1432 8 l 1,82,-1
 1678 -172 l 1,83,-1
 1536 -380 l 1,80,-1
EndSplineSet
Ligature2: "'liga' Standard Ligatures lookup 5 subtable" YHZ_00B JIM_B00
LCarets2: 1 278
EndChar

StartChar: YHZHHA_000
Encoding: 64513 64513 116
Width: 2438
GlyphClass: 3
LigCaretCntFixed: 1
Flags: W
AnchorPoint: "Anchor-4" 1194 3100 baselig 0
AnchorPoint: "Anchor-3" 2262 544 baselig 0
AnchorPoint: "Anchor-4" 522 1978 baselig 1
AnchorPoint: "Anchor-3" 1306 -552 baselig 1
LayerCount: 2
Fore
SplineSet
1492 2482 m 1,0,-1
 1462 2398 l 1,1,-1
 1048 2216 l 1,2,-1
 1082 2312 l 1,3,4
 1114 2328 1114 2328 1190 2358 c 1,5,6
 1116 2384 1116 2384 1112 2438 c 0,7,8
 1116 2492 1116 2492 1176 2569 c 128,-1,9
 1236 2646 1236 2646 1296 2658 c 1,10,-1
 1308 2658 l 1,11,12
 1354 2650 1354 2650 1356 2606 c 1,13,-1
 1326 2498 l 1,14,-1
 1310 2536 l 1,15,16
 1288 2554 1288 2554 1264 2554 c 0,17,18
 1224 2554 1224 2554 1174 2506 c 1,19,20
 1196 2430 1196 2430 1304 2428 c 0,21,22
 1358 2430 1358 2430 1413 2452 c 128,-1,23
 1468 2474 1468 2474 1492 2482 c 1,0,-1
1190 234 m 2,24,-1
 1716 250 l 1,25,26
 2098 246 2098 246 2256 76 c 0,27,28
 2364 -38 2364 -38 2390 -202 c 1,29,30
 2390 -200 2390 -200 2392 -189 c 128,-1,31
 2394 -178 2394 -178 2394 -176 c 1,32,33
 2404 -242 2404 -242 2404 -318 c 0,34,35
 2402 -616 2402 -616 2266 -852 c 0,36,37
 1992 -1324 1992 -1324 1508 -1462 c 0,38,39
 1360 -1506 1360 -1506 1190 -1506 c 0,40,41
 542 -1506 542 -1506 382 -924 c 0,42,43
 346 -776 346 -776 345 -615 c 128,-1,44
 344 -454 344 -454 356 -357 c 128,-1,45
 368 -260 368 -260 403 -129 c 128,-1,46
 438 2 438 2 468 60 c 2,47,-1
 496 122 l 2,48,49
 526 192 526 192 544 222 c 1,50,51
 444 316 444 316 380 398 c 1,52,53
 468 354 468 354 612 312 c 1,54,55
 868 666 868 666 1332 880 c 1,56,57
 1168 880 1168 880 838 869 c 128,-1,58
 508 858 508 858 392 856 c 128,-1,59
 276 854 276 854 244 844 c 1,60,61
 246 848 246 848 344 1106 c 1,62,63
 852 1174 852 1174 1208 1590 c 0,64,65
 1344 1750 1344 1750 1425 1928 c 128,-1,66
 1506 2106 1506 2106 1594 2106 c 2,67,-1
 1602 2106 l 2,68,69
 1682 2100 1682 2100 1724 2022 c 0,70,71
 1768 1922 1768 1922 1770 1798 c 0,72,73
 1770 1662 1770 1662 1712 1498 c 1,74,75
 1682 1864 1682 1864 1554 1870 c 1,76,-1
 1536 1866 l 2,77,78
 1476 1852 1476 1852 1347 1600 c 128,-1,79
 1218 1348 1218 1348 1092 1222 c 0,80,81
 1026 1162 1026 1162 1001 1145 c 128,-1,82
 976 1128 976 1128 968 1120 c 1,83,84
 1086 1120 1086 1120 1635 1129 c 128,-1,85
 2184 1138 2184 1138 2203 1140 c 128,-1,86
 2222 1142 2222 1142 2236 1142 c 1,87,-1
 2136 872 l 1,88,-1
 2034 876 l 1,89,90
 1292 684 1292 684 952 464 c 0,91,92
 818 376 818 376 718 280 c 1,93,94
 934 234 934 234 1190 234 c 2,24,-1
1236 -20 m 1,95,96
 858 -20 858 -20 612 172 c 1,97,98
 476 -4 476 -4 414 -264 c 0,99,100
 406 -322 406 -322 406 -428 c 0,101,102
 406 -986 406 -986 800 -1174 c 0,103,104
 968 -1256 968 -1256 1202 -1256 c 0,105,106
 1284 -1256 1284 -1256 1378 -1246 c 0,107,108
 1668 -1212 1668 -1212 1982 -960 c 0,109,110
 2082 -878 2082 -878 2184 -758 c 128,-1,111
 2286 -638 2286 -638 2342 -448 c 1,112,113
 2286 -16 2286 -16 1712 -12 c 2,114,-1
 1598 -12 l 1,115,-1
 1236 -20 l 1,95,96
EndSplineSet
Ligature2: "'liga' Standard Ligatures lookup 5 subtable" YHZ_00B HHA_B00
LCarets2: 1 236
EndChar

StartChar: YHZMIM_000
Encoding: 64514 64514 117
Width: 2756
GlyphClass: 3
LigCaretCntFixed: 1
Flags: W
AnchorPoint: "Anchor-4" 1944 1862 baselig 0
AnchorPoint: "Anchor-3" 2450 -42 baselig 0
AnchorPoint: "Anchor-4" 1002 1162 baselig 1
AnchorPoint: "Anchor-3" 1142 -704 baselig 1
LayerCount: 2
Fore
SplineSet
2290 1334 m 1,0,-1
 2260 1246 l 1,1,-1
 1846 1068 l 1,2,-1
 1882 1160 l 1,3,4
 1914 1176 1914 1176 1988 1208 c 1,5,6
 1914 1234 1914 1234 1910 1290 c 0,7,8
 1914 1344 1914 1344 1974 1421 c 128,-1,9
 2034 1498 2034 1498 2094 1508 c 1,10,-1
 2106 1508 l 1,11,12
 2152 1500 2152 1500 2154 1458 c 1,13,-1
 2124 1348 l 1,14,-1
 2108 1386 l 1,15,16
 2086 1404 2086 1404 2062 1406 c 0,17,18
 2022 1406 2022 1406 1974 1356 c 1,19,20
 1996 1280 1996 1280 2102 1278 c 0,21,22
 2156 1280 2156 1280 2211 1303 c 128,-1,23
 2266 1326 2266 1326 2290 1334 c 1,0,-1
-176 -354 m 2,24,-1
 -180 -388 l 1,25,26
 -180 -528 -180 -528 -56 -582 c 0,27,28
 -30 -594 -30 -594 -4 -598 c 2,29,-1
 18 -598 l 2,30,31
 162 -598 162 -598 406 -354 c 2,32,-1
 506 -256 l 1,33,34
 820 68 820 68 1019 178 c 128,-1,35
 1218 288 1218 288 1418 288 c 2,36,-1
 1440 288 l 2,37,38
 1500 282 1500 282 1550 262 c 1,39,40
 1556 300 1556 300 1578 358 c 1,41,42
 1648 294 1648 294 1764 292 c 0,43,44
 1792 294 1792 294 1802 296 c 0,45,46
 2028 340 2028 340 2146 504 c 0,47,48
 2206 590 2206 590 2330 852 c 1,49,50
 2412 1044 2412 1044 2510 1048 c 1,51,52
 2580 1042 2580 1042 2628 966 c 1,53,54
 2676 850 2676 850 2676 744 c 128,-1,55
 2676 638 2676 638 2648 492 c 0,56,57
 2644 486 2644 486 2636 492 c 0,58,59
 2610 790 2610 790 2506 792 c 1,60,61
 2380 780 2380 780 2290 576 c 128,-1,62
 2200 372 2200 372 2158 314 c 0,63,64
 2040 160 2040 160 1838 94 c 1,65,66
 1898 -6 1898 -6 1906 -158 c 1,67,-1
 1906 -186 l 2,68,69
 1906 -268 1906 -268 1888 -314 c 2,70,-1
 1864 -384 l 1,71,72
 1626 -342 1626 -342 1550 -78 c 0,73,74
 1532 -18 1532 -18 1528 44 c 1,75,76
 1474 78 1474 78 1362 80 c 0,77,78
 1102 80 1102 80 734 -284 c 0,79,80
 682 -336 682 -336 586 -436 c 0,81,82
 318 -716 318 -716 231 -756 c 128,-1,83
 144 -796 144 -796 100 -796 c 2,84,-1
 76 -796 l 1,85,86
 -80 -776 -80 -776 -160 -668 c 0,87,88
 -240 -562 -240 -562 -244 -422 c 1,89,-1
 -240 -372 l 2,90,91
 -218 -138 -218 -138 4 206 c 0,92,93
 26 234 26 234 40 242 c 1,94,95
 48 234 48 234 56 232 c 1,96,97
 48 190 48 190 -61 -30 c 128,-1,98
 -170 -250 -170 -250 -176 -354 c 2,24,-1
EndSplineSet
Ligature2: "'liga' Standard Ligatures lookup 5 subtable" YHZ_00B MIM_B00
LCarets2: 1 186
EndChar

StartChar: YHZAMK_000
Encoding: 64515 64515 118
Width: 2622
GlyphClass: 3
LigCaretCntFixed: 1
Flags: W
AnchorPoint: "Anchor-4" 1524 3022 baselig 0
AnchorPoint: "Anchor-3" 2348 -508 baselig 0
AnchorPoint: "Anchor-4" 1040 1526 baselig 1
AnchorPoint: "Anchor-3" 1236 -968 baselig 1
LayerCount: 2
Fore
SplineSet
1846 2394 m 1,0,-1
 1812 2308 l 1,1,-1
 1400 2130 l 1,2,-1
 1436 2224 l 1,3,4
 1468 2240 1468 2240 1542 2270 c 1,5,6
 1468 2296 1468 2296 1464 2350 c 0,7,8
 1468 2404 1468 2404 1529 2481 c 128,-1,9
 1590 2558 1590 2558 1648 2570 c 1,10,-1
 1662 2570 l 1,11,12
 1708 2562 1708 2562 1708 2518 c 1,13,-1
 1680 2410 l 1,14,-1
 1664 2450 l 1,15,16
 1642 2468 1642 2468 1618 2466 c 0,17,18
 1578 2466 1578 2466 1526 2418 c 1,19,20
 1548 2342 1548 2342 1658 2340 c 0,21,22
 1712 2342 1712 2342 1767 2364 c 128,-1,23
 1822 2386 1822 2386 1846 2394 c 1,0,-1
2490 460 m 1,24,-1
 2486 422 l 1,25,26
 2464 290 2464 290 2432 238 c 1,27,28
 2242 30 2242 30 1856 -206 c 0,29,30
 1386 -496 1386 -496 956 -498 c 0,31,32
 428 -498 428 -498 332 20 c 0,33,34
 314 116 314 116 316 226 c 0,35,36
 318 538 318 538 410 750 c 0,37,38
 434 802 434 802 454 802 c 1,39,40
 460 794 460 794 460 780 c 128,-1,41
 460 766 460 766 440 717 c 128,-1,42
 420 668 420 668 397 554 c 128,-1,43
 374 440 374 440 374 364 c 0,44,45
 374 30 374 30 634 -144 c 0,46,47
 798 -250 798 -250 1016 -250 c 0,48,49
 1154 -250 1154 -250 1314 -208 c 0,50,51
 1946 -26 1946 -26 2360 398 c 1,52,53
 2330 408 2330 408 2041 451 c 128,-1,54
 1752 494 1752 494 1526 586 c 1,55,-1
 1524 586 l 1,56,-1
 1590 784 l 1,57,-1
 1602 830 l 2,58,59
 1606 830 1606 830 1618 834 c 0,60,61
 1964 876 1964 876 2128 1024 c 1,62,63
 2106 1098 2106 1098 1977 1336 c 128,-1,64
 1848 1574 1848 1574 1822 1744 c 1,65,-1
 1782 1786 l 1,66,-1
 1880 2036 l 1,67,68
 2016 1852 2016 1852 2144 1686 c 0,69,70
 2176 1638 2176 1638 2140 1648 c 0,71,72
 2128 1652 2128 1652 2120 1656 c 2,73,-1
 2026 1700 l 2,74,75
 2022 1704 2022 1704 2010 1700 c 2,76,-1
 2006 1700 l 1,77,78
 2036 1626 2036 1626 2082 1532 c 2,79,-1
 2136 1414 l 2,80,81
 2200 1266 2200 1266 2198 1130 c 2,82,-1
 2196 1076 l 2,83,84
 2194 962 2194 962 2136 842 c 1,85,86
 2078 764 2078 764 1974 712 c 1,87,88
 2054 694 2054 694 2192 682 c 0,89,90
 2332 670 2332 670 2388 642 c 0,91,92
 2488 590 2488 590 2490 460 c 1,24,-1
EndSplineSet
Ligature2: "'liga' Standard Ligatures lookup 5 subtable" YHZ_00B AMK_B00
LCarets2: 1 304
EndChar

StartChar: YHZYAA_000
Encoding: 64516 64516 119
Width: 2622
GlyphClass: 3
LigCaretCntFixed: 1
Flags: W
AnchorPoint: "Anchor-4" 1526 2922 baselig 0
AnchorPoint: "Anchor-3" 2336 -596 baselig 0
AnchorPoint: "Anchor-4" 1046 1330 baselig 1
AnchorPoint: "Anchor-3" 1432 -1558 baselig 1
LayerCount: 2
Fore
SplineSet
1842 2310 m 1,0,-1
 1808 2226 l 1,1,-1
 1396 2046 l 1,2,-1
 1432 2140 l 1,3,4
 1464 2156 1464 2156 1538 2188 c 1,5,6
 1464 2212 1464 2212 1460 2268 c 0,7,8
 1464 2322 1464 2322 1525 2398 c 128,-1,9
 1586 2474 1586 2474 1644 2486 c 1,10,-1
 1656 2486 l 1,11,12
 1702 2478 1702 2478 1702 2436 c 1,13,-1
 1676 2326 l 1,14,-1
 1658 2366 l 1,15,16
 1636 2384 1636 2384 1612 2384 c 0,17,18
 1572 2384 1572 2384 1522 2334 c 1,19,20
 1544 2258 1544 2258 1652 2256 c 0,21,22
 1706 2258 1706 2258 1762 2280 c 128,-1,23
 1818 2302 1818 2302 1842 2310 c 1,0,-1
2478 368 m 1,24,-1
 2474 332 l 2,25,26
 2454 212 2454 212 2416 150 c 1,27,28
 2222 -62 2222 -62 1836 -300 c 0,29,30
 1370 -588 1370 -588 940 -588 c 0,31,32
 412 -588 412 -588 316 -72 c 0,33,34
 298 26 298 26 300 136 c 0,35,36
 302 448 302 448 394 658 c 0,37,38
 416 716 416 716 438 712 c 0,39,40
 444 706 444 706 444 692 c 128,-1,41
 444 678 444 678 427 637 c 128,-1,42
 410 596 410 596 386 474 c 128,-1,43
 362 352 362 352 362 276 c 0,44,45
 362 -62 362 -62 622 -234 c 0,46,47
 784 -342 784 -342 960 -342 c 0,48,49
 962 -342 962 -342 964 -342 c 0,50,51
 1142 -340 1142 -340 1298 -300 c 0,52,53
 1920 -126 1920 -126 2336 298 c 2,54,-1
 2348 310 l 1,55,56
 2318 322 2318 322 2028 364 c 128,-1,57
 1738 406 1738 406 1510 494 c 1,58,-1
 1508 494 l 1,59,60
 1510 500 1510 500 1568 692 c 2,61,-1
 1586 744 l 1,62,-1
 1602 744 l 1,63,64
 1950 786 1950 786 2116 930 c 1,65,66
 2094 1004 2094 1004 1963 1244 c 128,-1,67
 1832 1484 1832 1484 1804 1654 c 1,68,-1
 1770 1700 l 1,69,-1
 1864 1946 l 1,70,71
 1924 1866 1924 1866 2132 1594 c 0,72,73
 2172 1538 2172 1538 2104 1564 c 0,74,75
 2032 1598 2032 1598 2021 1607 c 128,-1,76
 2010 1616 2010 1616 1994 1610 c 2,77,-1
 1990 1610 l 1,78,79
 2018 1544 2018 1544 2065 1447 c 128,-1,80
 2112 1350 2112 1350 2124 1322 c 0,81,82
 2188 1174 2188 1174 2186 1042 c 2,83,-1
 2182 988 l 2,84,85
 2180 878 2180 878 2120 750 c 1,86,87
 2064 676 2064 676 1962 626 c 1,88,89
 2042 608 2042 608 2180 595 c 128,-1,90
 2318 582 2318 582 2374 556 c 0,91,92
 2476 500 2476 500 2478 368 c 1,24,-1
1392 -1042 m 1,93,-1
 1534 -842 l 1,94,-1
 1782 -1024 l 1,95,-1
 1640 -1228 l 1,96,-1
 1396 -1050 l 1,97,-1
 1260 -1254 l 1,98,-1
 1012 -1072 l 1,99,-1
 1156 -860 l 1,100,-1
 1392 -1042 l 1,93,-1
EndSplineSet
Ligature2: "'liga' Standard Ligatures lookup 5 subtable" YHZ_00B YAA_B00
LCarets2: 1 238
EndChar

StartChar: BAAJIM_000
Encoding: 64517 64517 120
Width: 2140
GlyphClass: 3
LigCaretCntFixed: 1
Flags: W
AnchorPoint: "Anchor-4" 1556 2698 baselig 0
AnchorPoint: "Anchor-3" 2018 -434 baselig 0
AnchorPoint: "Anchor-4" 546 2892 baselig 1
AnchorPoint: "Anchor-3" 318 -1776 baselig 1
LayerCount: 2
Fore
SplineSet
1436 1986 m 1,0,-1
 1416 1982 l 2,1,2
 1356 1968 1356 1968 1228 1718 c 128,-1,3
 1100 1468 1100 1468 966 1338 c 0,4,5
 904 1282 904 1282 881 1266 c 128,-1,6
 858 1250 858 1250 850 1244 c 1,7,8
 1152 1244 1152 1244 2068 1262 c 1,9,-1
 2116 1262 l 1,10,-1
 2018 994 l 1,11,-1
 1930 994 l 1,12,13
 1236 814 1236 814 926 644 c 0,14,15
 406 350 406 350 294 -146 c 1,16,17
 292 -194 292 -194 292 -270 c 0,18,19
 296 -688 296 -688 542 -932 c 1,20,21
 902 -1256 902 -1256 1882 -1256 c 0,22,23
 2206 -1256 2206 -1256 2808 -1204 c 1,24,25
 2666 -1260 2666 -1260 2462 -1343 c 128,-1,26
 2258 -1426 2258 -1426 2137 -1467 c 128,-1,27
 2016 -1508 2016 -1508 1718 -1508 c 0,28,29
 882 -1508 882 -1508 524 -1212 c 1,30,31
 224 -938 224 -938 224 -410 c 1,32,-1
 228 -308 l 2,33,34
 236 -108 236 -108 378 244 c 1,35,36
 620 720 620 720 1214 998 c 1,37,-1
 998 998 l 2,38,39
 222 998 222 998 126 964 c 1,40,41
 128 968 128 968 224 1228 c 1,42,43
 732 1296 732 1296 1090 1712 c 0,44,45
 1226 1872 1226 1872 1306 2050 c 128,-1,46
 1386 2228 1386 2228 1478 2228 c 2,47,-1
 1486 2228 l 2,48,49
 1552 2222 1552 2222 1604 2142 c 1,50,51
 1648 2042 1648 2042 1648 1920 c 0,52,53
 1648 1784 1648 1784 1592 1622 c 1,54,55
 1562 1982 1562 1982 1436 1986 c 1,0,-1
1252 -398 m 1,56,-1
 1004 -216 l 1,57,-1
 1148 -8 l 1,58,-1
 1392 -192 l 1,59,-1
 1252 -398 l 1,56,-1
1722 412 m 1,60,-1
 1868 616 l 1,61,-1
 2112 434 l 1,62,-1
 1966 228 l 1,63,-1
 1722 412 l 1,60,-1
EndSplineSet
Ligature2: "'liga' Standard Ligatures lookup 5 subtable" BAA_00B JIM_B00
LCarets2: 1 210
EndChar

StartChar: BAAHHA_000
Encoding: 64518 64518 121
Width: 2752
GlyphClass: 3
LigCaretCntFixed: 1
Flags: W
AnchorPoint: "Anchor-4" 2240 2494 baselig 0
AnchorPoint: "Anchor-3" 2326 -1308 baselig 0
AnchorPoint: "Anchor-4" 946 2440 baselig 1
AnchorPoint: "Anchor-3" 1272 -394 baselig 1
LayerCount: 2
Fore
SplineSet
1170 300 m 1,0,-1
 1712 320 l 1,1,2
 2086 316 2086 316 2240 144 c 0,3,4
 2382 -8 2382 -8 2380 -234 c 0,5,6
 2380 -564 2380 -564 2256 -782 c 0,7,8
 1976 -1252 1976 -1252 1498 -1392 c 0,9,10
 1346 -1436 1346 -1436 1178 -1436 c 0,11,12
 558 -1432 558 -1432 380 -896 c 0,13,14
 324 -714 324 -714 324 -506 c 0,15,16
 326 -110 326 -110 522 304 c 1,17,18
 432 388 432 388 368 464 c 1,19,20
 436 432 436 432 572 386 c 1,21,22
 674 554 674 554 788 672 c 1,23,24
 734 706 734 706 522 807 c 128,-1,25
 310 908 310 908 264 1004 c 0,26,27
 248 1042 248 1042 242 1120 c 2,28,-1
 242 1140 l 2,29,30
 242 1388 242 1388 448 1470 c 0,31,32
 608 1528 608 1528 888 1530 c 0,33,34
 1374 1530 1374 1530 1938 1450 c 2,35,-1
 2118 1422 l 1,36,-1
 2046 1166 l 1,37,-1
 2042 1166 l 1,38,39
 1930 1118 1930 1118 1832 1074 c 1,40,41
 1830 1058 1830 1058 1820 1032 c 128,-1,42
 1810 1006 1810 1006 1810 966 c 0,43,44
 1814 872 1814 872 1914 810 c 0,45,46
 1962 784 1962 784 2032 782 c 0,47,48
 2280 782 2280 782 2518 980 c 1,49,50
 2496 1032 2496 1032 2434 1140 c 0,51,52
 2280 1408 2280 1408 2256 1590 c 1,53,-1
 2212 1638 l 1,54,-1
 2310 1886 l 1,55,56
 2344 1834 2344 1834 2436 1719 c 128,-1,57
 2528 1604 2528 1604 2565 1551 c 128,-1,58
 2602 1498 2602 1498 2587 1497 c 128,-1,59
 2572 1496 2572 1496 2552 1502 c 128,-1,60
 2532 1508 2532 1508 2498 1528 c 128,-1,61
 2464 1548 2464 1548 2456 1552 c 2,62,-1
 2432 1548 l 1,63,64
 2490 1396 2490 1396 2542 1282 c 128,-1,65
 2594 1168 2594 1168 2594 1074 c 0,66,67
 2594 906 2594 906 2518 774 c 1,68,69
 2372 630 2372 630 2126 570 c 0,70,71
 2048 552 2048 552 1984 552 c 2,72,-1
 1960 552 l 2,73,74
 1792 552 1792 552 1750 730 c 0,75,76
 1740 770 1740 770 1742 814 c 0,77,78
 1742 922 1742 922 1794 1058 c 1,79,80
 1206 784 1206 784 988 638 c 1,81,82
 1014 546 1014 546 1016 507 c 128,-1,83
 1018 468 1018 468 1016 449 c 128,-1,84
 1014 430 1014 430 1014 420 c 1,85,86
 980 498 980 498 894 580 c 1,87,88
 784 492 784 492 670 354 c 1,89,90
 894 300 894 300 1170 300 c 1,0,-1
340 1162 m 1,91,92
 400 1102 400 1102 611 989 c 128,-1,93
 822 876 822 876 902 786 c 1,94,95
 1198 1046 1198 1046 1648 1236 c 1,96,97
 1322 1280 1322 1280 1092 1280 c 128,-1,98
 862 1280 862 1280 792 1276 c 0,99,100
 468 1258 468 1258 350 1174 c 0,101,102
 342 1164 342 1164 340 1162 c 1,91,92
1606 58 m 1,103,-1
 1210 46 l 1,104,105
 856 46 856 46 620 222 c 0,106,107
 600 238 600 238 584 248 c 1,108,109
 452 28 452 28 402 -250 c 0,110,111
 402 -268 402 -268 396 -296 c 2,112,-1
 396 -326 l 2,113,114
 396 -870 396 -870 754 -1080 c 0,115,116
 938 -1184 938 -1184 1198 -1188 c 0,117,118
 1278 -1188 1278 -1188 1370 -1176 c 0,119,120
 1662 -1142 1662 -1142 1976 -880 c 0,121,122
 2244 -654 2244 -654 2326 -382 c 1,123,124
 2270 54 2270 54 1694 58 c 2,125,-1
 1606 58 l 1,103,-1
2566 512 m 1,126,-1
 2814 326 l 1,127,-1
 2672 124 l 1,128,-1
 2424 304 l 1,129,-1
 2566 512 l 1,126,-1
EndSplineSet
Ligature2: "'liga' Standard Ligatures lookup 5 subtable" BAA_00B HHA_B00
LCarets2: 1 182
EndChar

StartChar: BAAKHA_000
Encoding: 64519 64519 122
Width: 2740
GlyphClass: 3
LigCaretCntFixed: 1
Flags: W
AnchorPoint: "Anchor-4" 2192 2556 baselig 0
AnchorPoint: "Anchor-3" 2522 -1180 baselig 0
AnchorPoint: "Anchor-4" 946 2880 baselig 1
AnchorPoint: "Anchor-3" 1280 -382 baselig 1
LayerCount: 2
Fore
SplineSet
1174 312 m 1,0,-1
 1720 332 l 1,1,2
 2308 326 2308 326 2380 -128 c 0,3,4
 2384 -158 2384 -158 2384 -255 c 128,-1,5
 2384 -352 2384 -352 2370 -424 c 0,6,7
 2346 -624 2346 -624 2260 -770 c 0,8,9
 1916 -1338 1916 -1338 1312 -1420 c 0,10,11
 1264 -1424 1264 -1424 1186 -1424 c 0,12,13
 562 -1420 562 -1420 384 -882 c 0,14,15
 332 -712 332 -712 332 -506 c 0,16,17
 334 -90 334 -90 526 316 c 1,18,19
 436 400 436 400 372 476 c 1,20,21
 418 456 418 456 576 402 c 1,22,23
 672 560 672 560 792 684 c 1,24,25
 738 718 738 718 526 819 c 128,-1,26
 314 920 314 920 270 1016 c 0,27,28
 254 1054 254 1054 246 1134 c 1,29,-1
 246 1152 l 2,30,31
 246 1400 246 1400 454 1482 c 0,32,33
 614 1540 614 1540 896 1542 c 0,34,35
 1378 1542 1378 1542 1942 1462 c 2,36,-1
 2122 1436 l 1,37,-1
 2050 1178 l 1,38,-1
 2046 1178 l 1,39,40
 1968 1146 1968 1146 1840 1086 c 1,41,42
 1838 1076 1838 1076 1826 1048 c 128,-1,43
 1814 1020 1814 1020 1814 978 c 0,44,45
 1818 884 1818 884 1918 822 c 0,46,47
 1966 796 1966 796 2036 794 c 0,48,49
 2284 794 2284 794 2522 992 c 1,50,51
 2500 1044 2500 1044 2438 1152 c 0,52,53
 2284 1420 2284 1420 2260 1602 c 1,54,-1
 2216 1650 l 1,55,-1
 2316 1898 l 1,56,57
 2350 1846 2350 1846 2442 1732 c 0,58,59
 2590 1542 2590 1542 2590 1514 c 0,60,61
 2590 1510 2590 1510 2586 1510 c 0,62,63
 2558 1516 2558 1516 2514 1538 c 128,-1,64
 2470 1560 2470 1560 2460 1564 c 2,65,-1
 2436 1560 l 1,66,67
 2480 1444 2480 1444 2539 1317 c 128,-1,68
 2598 1190 2598 1190 2598 1090 c 0,69,70
 2598 906 2598 906 2542 818 c 2,71,-1
 2522 786 l 1,72,73
 2376 642 2376 642 2130 582 c 0,74,75
 2052 564 2052 564 1988 564 c 2,76,-1
 1964 564 l 2,77,78
 1796 564 1796 564 1754 742 c 0,79,80
 1744 782 1744 782 1746 828 c 0,81,82
 1746 936 1746 936 1798 1070 c 1,83,84
 1210 796 1210 796 992 650 c 1,85,86
 1018 558 1018 558 1020 519 c 128,-1,87
 1022 480 1022 480 1020 461 c 128,-1,88
 1018 442 1018 442 1018 432 c 1,89,90
 980 516 980 516 902 592 c 1,91,92
 782 496 782 496 674 366 c 1,93,94
 898 312 898 312 1174 312 c 1,0,-1
340 1174 m 1,95,96
 400 1114 400 1114 613 1001 c 128,-1,97
 826 888 826 888 906 798 c 1,98,99
 1198 1056 1198 1056 1656 1248 c 1,100,101
 1330 1292 1330 1292 1098 1292 c 128,-1,102
 866 1292 866 1292 796 1288 c 0,103,104
 476 1270 476 1270 356 1186 c 0,105,106
 352 1182 352 1182 340 1174 c 1,95,96
1214 58 m 1,107,108
 838 58 838 58 592 260 c 1,109,110
 454 30 454 30 406 -236 c 0,111,112
 406 -254 406 -254 400 -284 c 2,113,-1
 400 -314 l 2,114,115
 400 -866 400 -866 768 -1074 c 0,116,117
 948 -1172 948 -1172 1198 -1176 c 0,118,119
 1278 -1176 1278 -1176 1370 -1164 c 0,120,121
 1658 -1130 1658 -1130 1974 -876 c 0,122,123
 2074 -794 2074 -794 2175 -675 c 128,-1,124
 2276 -556 2276 -556 2330 -370 c 1,125,126
 2274 66 2274 66 1698 70 c 2,127,-1
 1610 70 l 1,128,-1
 1214 58 l 1,107,108
2570 526 m 1,129,-1
 2818 338 l 1,130,-1
 2676 136 l 1,131,-1
 2428 316 l 1,132,-1
 2570 526 l 1,129,-1
1198 2184 m 1,133,-1
 1052 1972 l 1,134,-1
 804 2160 l 1,135,-1
 946 2362 l 1,136,-1
 1198 2184 l 1,133,-1
EndSplineSet
Ligature2: "'liga' Standard Ligatures lookup 5 subtable" BAA_00B KHA_B00
LCarets2: 1 220
EndChar

StartChar: BAAMIM_000
Encoding: 64520 64520 123
Width: 1642
GlyphClass: 3
LigCaretCntFixed: 1
Flags: W
AnchorPoint: "Anchor-4" 1114 1918 baselig 0
AnchorPoint: "Anchor-3" 1502 -634 baselig 0
AnchorPoint: "Anchor-4" 378 1012 baselig 1
AnchorPoint: "Anchor-3" 60 -968 baselig 1
LayerCount: 2
Fore
SplineSet
1070 1062 m 0,0,1
 1060 1164 1060 1164 1058 1193 c 128,-1,2
 1056 1222 1056 1222 1020 1264 c 1,3,-1
 1134 1502 l 1,4,5
 1152 1474 1152 1474 1226 1343 c 128,-1,6
 1300 1212 1300 1212 1372 1104 c 0,7,8
 1396 1066 1396 1066 1374 1066 c 0,9,10
 1336 1072 1336 1072 1244 1128 c 1,11,-1
 1220 1132 l 1,12,13
 1212 1124 1212 1124 1212 1116 c 0,14,15
 1230 900 1230 900 1291 695 c 128,-1,16
 1352 490 1352 490 1538 406 c 0,17,18
 1682 348 1682 348 1746 296 c 1,19,-1
 1746 268 l 2,20,21
 1746 130 1746 130 1728 62 c 1,22,23
 1724 66 1724 66 1641 105 c 128,-1,24
 1558 144 1558 144 1476 202 c 1,25,26
 1386 240 1386 240 1284 240 c 128,-1,27
 1182 240 1182 240 1070 202 c 0,28,29
 878 128 878 128 542 -199 c 128,-1,30
 206 -526 206 -526 68 -614 c 128,-1,31
 -70 -702 -70 -702 -184 -712 c 1,32,-1
 -200 -712 l 2,33,34
 -326 -712 -326 -712 -418 -610 c 0,35,36
 -428 -600 -428 -600 -432 -592 c 0,37,38
 -516 -476 -516 -476 -518 -322 c 2,39,-1
 -518 -304 l 1,40,41
 -504 -86 -504 -86 -298 284 c 0,42,43
 -278 310 -278 310 -264 314 c 1,44,45
 -266 308 -266 308 -269 288 c 128,-1,46
 -272 268 -272 268 -366 44 c 0,47,48
 -462 -182 -462 -182 -462 -316 c 0,49,50
 -462 -448 -462 -448 -354 -504 c 0,51,52
 -318 -522 -318 -522 -278 -522 c 0,53,54
 -62 -522 -62 -522 368 -102 c 0,55,56
 884 404 884 404 1224 448 c 1,57,58
 1106 662 1106 662 1070 1062 c 0,0,1
1262 -250 m 1,59,-1
 1408 -46 l 1,60,-1
 1656 -226 l 1,61,-1
 1510 -432 l 1,62,-1
 1262 -250 l 1,59,-1
EndSplineSet
Ligature2: "'liga' Standard Ligatures lookup 5 subtable" BAA_00B MIM_B00
LCarets2: 1 116
EndChar

StartChar: BAAAMK_000
Encoding: 64521 64521 124
Width: 2642
GlyphClass: 3
LigCaretCntFixed: 1
Flags: W
AnchorPoint: "Anchor-4" 1798 2658 baselig 0
AnchorPoint: "Anchor-3" 2652 -588 baselig 0
AnchorPoint: "Anchor-4" 1078 1650 baselig 1
AnchorPoint: "Anchor-3" 1112 -914 baselig 1
LayerCount: 2
Fore
SplineSet
2436 316 m 1,0,-1
 2432 276 l 2,1,2
 2412 156 2412 156 2372 98 c 1,3,4
 2178 -114 2178 -114 1792 -352 c 0,5,6
 1324 -640 1324 -640 898 -642 c 0,7,8
 368 -642 368 -642 276 -126 c 0,9,10
 258 -28 258 -28 256 82 c 0,11,12
 258 388 258 388 352 604 c 0,13,14
 374 656 374 656 394 658 c 1,15,16
 400 650 400 650 400 635 c 128,-1,17
 400 620 400 620 384 576 c 128,-1,18
 368 532 368 532 344 415 c 128,-1,19
 320 298 320 298 320 222 c 0,20,21
 320 -164 320 -164 580 -292 c 0,22,23
 912 -456 912 -456 1256 -358 c 0,24,25
 1874 -186 1874 -186 2302 258 c 1,26,27
 2272 270 2272 270 1981 310 c 128,-1,28
 1690 350 1690 350 1464 440 c 1,29,-1
 1528 632 l 1,30,-1
 1544 686 l 1,31,-1
 1558 688 l 2,32,33
 1906 734 1906 734 2072 878 c 1,34,35
 2050 952 2050 952 1919 1190 c 128,-1,36
 1788 1428 1788 1428 1764 1598 c 1,37,-1
 1764 1602 l 1,38,-1
 1724 1646 l 1,39,-1
 1824 1892 l 1,40,41
 2034 1624 2034 1624 2086 1542 c 0,42,43
 2120 1488 2120 1488 2082 1502 c 0,44,45
 2070 1506 2070 1506 2062 1510 c 2,46,-1
 1968 1556 l 2,47,48
 1960 1560 1960 1560 1952 1556 c 2,49,-1
 1948 1556 l 1,50,51
 1976 1490 1976 1490 2024 1393 c 128,-1,52
 2072 1296 2072 1296 2082 1268 c 0,53,54
 2142 1134 2142 1134 2140 992 c 2,55,-1
 2136 930 l 2,56,57
 2134 816 2134 816 2078 696 c 1,58,59
 2020 620 2020 620 1918 568 c 1,60,61
 2000 550 2000 550 2138 538 c 0,62,63
 2286 526 2286 526 2334 502 c 0,64,65
 2434 452 2434 452 2436 316 c 1,0,-1
2538 90 m 1,66,-1
 2786 -94 l 1,67,-1
 2640 -296 l 1,68,-1
 2398 -116 l 1,69,-1
 2538 90 l 1,66,-1
EndSplineSet
Ligature2: "'liga' Standard Ligatures lookup 5 subtable" BAA_00B AMK_B00
LCarets2: 1 256
EndChar

StartChar: BAAYAA_000
Encoding: 64522 64522 125
Width: 2702
GlyphClass: 3
LigCaretCntFixed: 1
Flags: W
AnchorPoint: "Anchor-4" 1842 2732 baselig 0
AnchorPoint: "Anchor-3" 2664 -542 baselig 0
AnchorPoint: "Anchor-4" 1068 1692 baselig 1
AnchorPoint: "Anchor-3" 548 -1016 baselig 1
LayerCount: 2
Fore
SplineSet
2436 300 m 1,0,-1
 2432 260 l 2,1,2
 2412 140 2412 140 2372 82 c 1,3,4
 2176 -130 2176 -130 1792 -368 c 0,5,6
 1324 -656 1324 -656 898 -658 c 0,7,8
 368 -658 368 -658 276 -142 c 0,9,10
 256 -44 256 -44 256 66 c 0,11,12
 256 372 256 372 352 588 c 0,13,14
 374 640 374 640 396 642 c 1,15,16
 402 634 402 634 401 619 c 128,-1,17
 400 604 400 604 384 560 c 128,-1,18
 368 516 368 516 344 399 c 128,-1,19
 320 282 320 282 320 206 c 0,20,21
 320 -180 320 -180 580 -308 c 0,22,23
 912 -472 912 -472 1258 -374 c 0,24,25
 1876 -202 1876 -202 2302 242 c 1,26,27
 2272 254 2272 254 1982 294 c 128,-1,28
 1692 334 1692 334 1464 424 c 1,29,-1
 1528 616 l 1,30,-1
 1546 670 l 1,31,-1
 1558 672 l 1,32,33
 1906 718 1906 718 2072 862 c 1,34,35
 2050 936 2050 936 1920 1174 c 128,-1,36
 1790 1412 1790 1412 1764 1582 c 1,37,-1
 1764 1586 l 1,38,-1
 1724 1630 l 1,39,-1
 1824 1876 l 1,40,41
 2034 1608 2034 1608 2086 1526 c 0,42,43
 2120 1472 2120 1472 2082 1486 c 0,44,45
 2070 1490 2070 1490 2062 1494 c 2,46,-1
 1968 1540 l 2,47,48
 1960 1544 1960 1544 1952 1540 c 2,49,-1
 1948 1540 l 1,50,51
 1976 1474 1976 1474 2024 1377 c 128,-1,52
 2072 1280 2072 1280 2082 1252 c 0,53,54
 2142 1118 2142 1118 2140 976 c 2,55,-1
 2136 914 l 2,56,57
 2134 800 2134 800 2080 680 c 1,58,59
 2022 604 2022 604 1918 552 c 1,60,61
 2000 534 2000 534 2138 522 c 0,62,63
 2286 510 2286 510 2334 486 c 0,64,65
 2434 436 2434 436 2436 300 c 1,0,-1
2554 58 m 1,66,-1
 2800 -126 l 1,67,-1
 2656 -330 l 1,68,-1
 2410 -148 l 1,69,-1
 2554 58 l 1,66,-1
1356 -1050 m 1,70,-1
 1498 -854 l 1,71,-1
 1744 -1032 l 1,72,-1
 1602 -1242 l 1,73,-1
 1360 -1058 l 1,74,-1
 1216 -1266 l 1,75,-1
 974 -1082 l 1,76,-1
 1120 -876 l 1,77,-1
 1356 -1050 l 1,70,-1
EndSplineSet
Ligature2: "'liga' Standard Ligatures lookup 5 subtable" BAA_00B YAA_B00
LCarets2: 1 210
EndChar

StartChar: TAAJIM_000
Encoding: 64523 64523 126
Width: 2280
GlyphClass: 3
LigCaretCntFixed: 1
Flags: W
AnchorPoint: "Anchor-4" 1550 3612 baselig 0
AnchorPoint: "Anchor-3" 2082 670 baselig 0
AnchorPoint: "Anchor-4" 406 2394 baselig 1
AnchorPoint: "Anchor-3" 450 -1552 baselig 1
LayerCount: 2
Fore
SplineSet
1562 2210 m 1,0,-1
 1542 2208 l 2,1,2
 1482 2194 1482 2194 1354 1942 c 0,3,4
 1226 1692 1226 1692 1094 1564 c 0,5,6
 1032 1508 1032 1508 1008 1491 c 128,-1,7
 984 1474 984 1474 976 1468 c 1,8,9
 1280 1468 1280 1468 2196 1488 c 1,10,-1
 2244 1488 l 1,11,-1
 2144 1218 l 1,12,-1
 2060 1218 l 1,13,14
 1366 1038 1366 1038 1056 866 c 0,15,16
 532 572 532 572 420 78 c 0,17,18
 416 30 416 30 418 -46 c 0,19,20
 422 -464 422 -464 668 -708 c 1,21,22
 1028 -1032 1028 -1032 2010 -1030 c 0,23,24
 2334 -1030 2334 -1030 2934 -982 c 1,25,26
 2792 -1038 2792 -1038 2588 -1120 c 128,-1,27
 2384 -1202 2384 -1202 2263 -1243 c 128,-1,28
 2142 -1284 2142 -1284 1850 -1284 c 0,29,30
 1014 -1284 1014 -1284 654 -988 c 1,31,32
 354 -714 354 -714 356 -228 c 1,33,-1
 360 -86 l 2,34,35
 368 114 368 114 508 466 c 1,36,37
 752 944 752 944 1342 1220 c 1,38,-1
 1126 1220 l 2,39,40
 334 1220 334 1220 256 1186 c 1,41,42
 258 1190 258 1190 352 1450 c 1,43,44
 858 1518 858 1518 1216 1932 c 0,45,46
 1354 2094 1354 2094 1438 2273 c 128,-1,47
 1522 2452 1522 2452 1606 2456 c 2,48,-1
 1614 2456 l 2,49,50
 1682 2452 1682 2452 1734 2366 c 1,51,52
 1776 2274 1776 2274 1776 2158 c 0,53,54
 1776 2020 1776 2020 1718 1844 c 1,55,56
 1688 2206 1688 2206 1562 2210 c 1,0,-1
1494 -176 m 1,57,-1
 1246 8 l 1,58,-1
 1392 214 l 1,59,-1
 1636 32 l 1,60,-1
 1494 -176 l 1,57,-1
1598 2950 m 1,61,-1
 1452 2742 l 1,62,-1
 1208 2928 l 1,63,-1
 1354 3132 l 1,64,-1
 1594 2958 l 1,65,-1
 1734 3156 l 1,66,-1
 1978 2972 l 1,67,-1
 1838 2772 l 1,68,-1
 1598 2950 l 1,61,-1
EndSplineSet
Ligature2: "'liga' Standard Ligatures lookup 5 subtable" TAA_00B JIM_B00
LCarets2: 1 296
EndChar

StartChar: TAAHHA_000
Encoding: 64524 64524 127
Width: 2438
GlyphClass: 3
LigCaretCntFixed: 1
Flags: W
AnchorPoint: "Anchor-4" 1536 3602 baselig 0
AnchorPoint: "Anchor-3" 2262 752 baselig 0
AnchorPoint: "Anchor-4" 522 2188 baselig 1
AnchorPoint: "Anchor-3" 1306 -346 baselig 1
LayerCount: 2
Fore
SplineSet
1190 442 m 1,0,-1
 1716 456 l 1,1,2
 2098 452 2098 452 2256 282 c 0,3,4
 2368 162 2368 162 2394 10 c 1,5,-1
 2394 32 l 1,6,7
 2404 -34 2404 -34 2404 -112 c 0,8,9
 2402 -410 2402 -410 2266 -644 c 0,10,11
 1992 -1116 1992 -1116 1508 -1256 c 0,12,13
 1360 -1300 1360 -1300 1190 -1300 c 0,14,15
 526 -1300 526 -1300 378 -686 c 0,16,17
 346 -554 346 -554 345 -421 c 128,-1,18
 344 -288 344 -288 356 -170 c 128,-1,19
 368 -52 368 -52 403 78 c 128,-1,20
 438 208 438 208 468 268 c 2,21,-1
 496 330 l 2,22,23
 526 400 526 400 544 430 c 1,24,25
 444 524 444 524 380 604 c 1,26,27
 468 560 468 560 612 520 c 1,28,29
 868 874 868 874 1332 1088 c 1,30,31
 1168 1088 1168 1088 838 1077 c 128,-1,32
 508 1066 508 1066 392 1064 c 128,-1,33
 276 1062 276 1062 244 1052 c 1,34,35
 246 1056 246 1056 344 1314 c 1,36,37
 852 1382 852 1382 1208 1798 c 0,38,39
 1344 1958 1344 1958 1425 2135 c 128,-1,40
 1506 2312 1506 2312 1594 2312 c 2,41,-1
 1602 2312 l 2,42,43
 1686 2306 1686 2306 1728 2228 c 0,44,45
 1770 2136 1770 2136 1770 2018 c 0,46,47
 1770 1880 1770 1880 1712 1704 c 1,48,49
 1682 2070 1682 2070 1554 2076 c 1,50,-1
 1536 2072 l 2,51,52
 1476 2058 1476 2058 1347 1807 c 128,-1,53
 1218 1556 1218 1556 1092 1428 c 0,54,55
 1026 1368 1026 1368 1001 1351 c 128,-1,56
 976 1334 976 1334 968 1328 c 1,57,58
 1086 1328 1086 1328 1634 1336 c 128,-1,59
 2182 1344 2182 1344 2201 1346 c 128,-1,60
 2220 1348 2220 1348 2236 1348 c 1,61,-1
 2136 1080 l 1,62,-1
 2034 1084 l 1,63,64
 1292 892 1292 892 952 672 c 0,65,66
 818 584 818 584 718 488 c 1,67,68
 934 444 934 444 1190 442 c 1,0,-1
1594 196 m 1,69,-1
 1236 188 l 2,70,71
 882 188 882 188 646 356 c 0,72,73
 628 370 628 370 616 378 c 1,74,75
 474 194 474 194 414 -56 c 0,76,77
 406 -114 406 -114 406 -220 c 0,78,79
 406 -770 406 -770 792 -962 c 0,80,81
 964 -1048 964 -1048 1204 -1048 c 0,82,83
 1286 -1048 1286 -1048 1382 -1036 c 0,84,85
 1676 -1000 1676 -1000 1988 -748 c 0,86,87
 2084 -670 2084 -670 2185 -550 c 128,-1,88
 2286 -430 2286 -430 2342 -240 c 1,89,90
 2286 192 2286 192 1708 196 c 2,91,-1
 1594 196 l 1,69,-1
1590 2866 m 1,92,-1
 1448 2658 l 1,93,-1
 1202 2844 l 1,94,-1
 1344 3048 l 1,95,-1
 1588 2874 l 1,96,-1
 1724 3072 l 1,97,-1
 1972 2888 l 1,98,-1
 1830 2684 l 1,99,-1
 1590 2866 l 1,92,-1
EndSplineSet
Ligature2: "'liga' Standard Ligatures lookup 5 subtable" TAA_00B HHA_B00
LCarets2: 1 270
EndChar

StartChar: TAAKHA_000
Encoding: 64525 64525 128
Width: 2430
GlyphClass: 3
LigCaretCntFixed: 1
Flags: W
AnchorPoint: "Anchor-4" 1610 3528 baselig 0
AnchorPoint: "Anchor-3" 2262 750 baselig 0
AnchorPoint: "Anchor-4" 380 2870 baselig 1
AnchorPoint: "Anchor-3" 1306 -344 baselig 1
LayerCount: 2
Fore
SplineSet
1182 438 m 1,0,-1
 1728 458 l 1,1,2
 2098 454 2098 454 2256 282 c 0,3,4
 2364 166 2364 166 2390 10 c 1,5,6
 2390 12 2390 12 2394 22 c 128,-1,7
 2398 32 2398 32 2398 34 c 1,8,9
 2410 -32 2410 -32 2408 -104 c 0,10,11
 2406 -412 2406 -412 2266 -642 c 0,12,13
 1992 -1114 1992 -1114 1508 -1254 c 0,14,15
 1360 -1298 1360 -1298 1190 -1298 c 0,16,17
 526 -1298 526 -1298 378 -684 c 0,18,19
 350 -568 350 -568 349 -408 c 128,-1,20
 348 -248 348 -248 360 -150 c 128,-1,21
 372 -52 372 -52 407 76 c 128,-1,22
 442 204 442 204 470 266 c 2,23,-1
 544 430 l 1,24,25
 444 524 444 524 380 606 c 1,26,27
 486 552 486 552 612 516 c 1,28,29
 872 876 872 876 1332 1088 c 1,30,31
 1168 1088 1168 1088 838 1078 c 128,-1,32
 508 1068 508 1068 392 1066 c 128,-1,33
 276 1064 276 1064 244 1052 c 1,34,35
 246 1056 246 1056 344 1314 c 1,36,37
 852 1382 852 1382 1208 1798 c 0,38,39
 1344 1958 1344 1958 1425 2136 c 128,-1,40
 1506 2314 1506 2314 1598 2314 c 2,41,-1
 1606 2314 l 2,42,43
 1684 2308 1684 2308 1728 2224 c 0,44,45
 1770 2134 1770 2134 1770 2018 c 0,46,47
 1770 1882 1770 1882 1712 1706 c 1,48,49
 1682 2072 1682 2072 1554 2076 c 1,50,-1
 1536 2072 l 2,51,52
 1476 2058 1476 2058 1347 1808 c 128,-1,53
 1218 1558 1218 1558 1092 1428 c 0,54,55
 1026 1368 1026 1368 1001 1352 c 128,-1,56
 976 1336 976 1336 968 1330 c 1,57,58
 1088 1330 1088 1330 1637 1337 c 128,-1,59
 2186 1344 2186 1344 2206 1346 c 128,-1,60
 2226 1348 2226 1348 2240 1348 c 1,61,-1
 2136 1080 l 1,62,-1
 2034 1080 l 1,63,64
 1292 888 1292 888 952 668 c 0,65,66
 818 580 818 580 718 484 c 1,67,68
 930 438 930 438 1182 438 c 1,0,-1
1224 190 m 2,69,70
 850 190 850 190 616 376 c 1,71,72
 472 190 472 190 414 -56 c 0,73,74
 406 -114 406 -114 406 -218 c 0,75,76
 406 -768 406 -768 792 -962 c 0,77,78
 966 -1048 966 -1048 1204 -1048 c 0,79,80
 1286 -1048 1286 -1048 1382 -1036 c 0,81,82
 1676 -1000 1676 -1000 1988 -748 c 0,83,84
 2084 -670 2084 -670 2185 -550 c 128,-1,85
 2286 -430 2286 -430 2342 -240 c 1,86,87
 2286 192 2286 192 1712 198 c 2,88,-1
 1602 198 l 1,89,-1
 1224 190 l 2,69,70
628 2136 m 1,90,-1
 482 1932 l 1,91,-1
 238 2110 l 1,92,-1
 380 2318 l 1,93,-1
 628 2136 l 1,90,-1
1610 2894 m 1,94,-1
 1468 2692 l 1,95,-1
 1220 2874 l 1,96,-1
 1366 3080 l 1,97,-1
 1606 2900 l 1,98,-1
 1748 3104 l 1,99,-1
 1992 2920 l 1,100,-1
 1850 2714 l 1,101,-1
 1610 2894 l 1,94,-1
EndSplineSet
Ligature2: "'liga' Standard Ligatures lookup 5 subtable" TAA_00B KHA_B00
LCarets2: 1 270
EndChar

StartChar: TAAMIM_000
Encoding: 64526 64526 129
Width: 1990
GlyphClass: 3
LigCaretCntFixed: 1
Flags: W
AnchorPoint: "Anchor-4" 1166 2582 baselig 0
AnchorPoint: "Anchor-3" 1830 -556 baselig 0
AnchorPoint: "Anchor-4" 506 1092 baselig 1
AnchorPoint: "Anchor-3" 954 -640 baselig 1
LayerCount: 2
Fore
SplineSet
1496 956 m 0,0,1
 1468 960 1468 960 1374 1018 c 1,2,-1
 1348 1018 l 1,3,-1
 1344 1006 l 1,4,5
 1400 666 1400 666 1456 472 c 1,6,7
 1530 490 1530 490 1598 496 c 2,8,-1
 1618 496 l 2,9,10
 1826 496 1826 496 1894 312 c 0,11,12
 1914 260 1914 260 1912 202 c 0,13,14
 1912 80 1912 80 1828 -66 c 1,15,16
 1776 -134 1776 -134 1684 -134 c 0,17,18
 1682 -134 1682 -134 1678 -132 c 0,19,20
 1582 -130 1582 -130 1464 -6 c 1,21,22
 1396 86 1396 86 1350 220 c 1,23,24
 1338 218 1338 218 1336 216 c 0,25,26
 1038 56 1038 56 695 -265 c 128,-1,27
 352 -586 352 -586 269 -624 c 128,-1,28
 186 -662 186 -662 136 -664 c 2,29,-1
 124 -664 l 2,30,31
 -178 -664 -178 -664 -224 -324 c 0,32,33
 -226 -312 -226 -312 -226 -302 c 2,34,-1
 -226 -278 l 2,35,36
 -224 -100 -224 -100 -38 290 c 0,37,38
 -24 322 -24 322 -10 328 c 1,39,40
 -12 322 -12 322 -10 320 c 2,41,-1
 -68 126 l 1,42,43
 -164 -158 -164 -158 -166 -270 c 0,44,45
 -166 -458 -166 -458 22 -474 c 1,46,-1
 30 -474 l 2,47,48
 160 -470 160 -470 500 -171 c 128,-1,49
 840 128 840 128 988 236 c 128,-1,50
 1136 344 1136 344 1296 414 c 1,51,52
 1262 562 1262 562 1225 817 c 128,-1,53
 1188 1072 1188 1072 1186 1078 c 2,54,-1
 1190 1088 l 1,55,-1
 1158 1126 l 1,56,-1
 1272 1364 l 1,57,58
 1290 1336 1290 1336 1355 1220 c 128,-1,59
 1420 1104 1420 1104 1496 994 c 0,60,61
 1520 956 1520 956 1496 956 c 0,0,1
1642 134 m 0,62,63
 1698 106 1698 106 1756 106 c 0,64,65
 1780 106 1780 106 1808 112 c 1,66,67
 1742 274 1742 274 1556 274 c 2,68,-1
 1532 274 l 1,69,70
 1590 166 1590 166 1642 134 c 0,62,63
1234 1872 m 1,71,-1
 1092 1672 l 1,72,-1
 848 1854 l 1,73,-1
 986 2060 l 1,74,-1
 1230 1880 l 1,75,-1
 1370 2084 l 1,76,-1
 1614 1902 l 1,77,-1
 1474 1694 l 1,78,-1
 1234 1872 l 1,71,-1
EndSplineSet
Ligature2: "'liga' Standard Ligatures lookup 5 subtable" TAA_00B MIM_B00
LCarets2: 1 186
EndChar

